<svg width="1593" height="1068" viewBox="0 0 1593 1068" fill="none" xmlns="http://www.w3.org/2000/svg">
<g clip-path="url(#clip0_436_3271)">
<g filter="url(#filter0_d_436_3271)">
<g clip-path="url(#clip1_436_3271)">
<g opacity="0.8">
<rect width="1286.38" height="132.393" transform="translate(153.328 277.393)" fill="white"/>
<path d="M153.328 277.393H1439.71V409.785H153.328V277.393Z" fill="white"/>
<path d="M194.088 313.841L196.188 311.742L212.86 328.414L212.86 313.718L215.824 313.718L215.824 333.478L196.064 333.478L196.064 330.514L210.761 330.514L194.088 313.841Z" fill="#009221"/>
<path d="M271.225 335.105H269.012L261.677 315.313H261.613V335.105H259.021V312.531H263.226L270.181 331.564H270.245L277.2 312.531H281.247V335.105H278.623V315.313H278.56L271.225 335.105ZM300.657 327.169C300.657 332.291 297.495 335.484 293.101 335.484C288.706 335.484 285.544 332.291 285.544 327.169C285.544 322.047 288.706 318.822 293.101 318.822C297.495 318.822 300.657 322.047 300.657 327.169ZM288.137 327.169C288.137 330.995 290.002 333.366 293.101 333.366C296.199 333.366 298.064 330.995 298.064 327.169C298.064 323.344 296.199 320.941 293.101 320.941C290.002 320.941 288.137 323.344 288.137 327.169ZM307.368 319.202V322.11C308.127 320.15 310.119 318.822 312.553 318.822C316.126 318.822 318.244 321.067 318.244 324.861V335.105H315.62V325.43C315.62 322.49 314.324 320.972 311.826 320.972C309.392 320.972 307.463 322.521 307.463 326.347V335.105H304.839V319.202H307.368ZM330.825 332.765V334.915C329.656 335.263 328.739 335.358 328.043 335.358C325.134 335.358 323.648 333.967 323.648 331.026V321.194H321.309V319.202H323.648V315.155H326.241V319.202H330.414V321.194H326.209V330.9C326.209 332.575 327.063 333.145 328.517 333.145C329.118 333.145 329.814 333.081 330.825 332.765ZM337.445 322.11C338.204 320.087 340.101 318.822 342.536 318.822C346.108 318.822 348.227 321.067 348.227 324.861V335.105H345.602V325.43C345.602 322.49 344.306 320.972 341.809 320.972C339.374 320.972 337.445 322.521 337.445 326.347V335.105H334.821V311.835H337.445V322.11ZM356.034 335.105H353.409V311.835H356.034V335.105ZM365.834 335.231L359.448 319.202H362.198L367.257 332.196H367.32L372.094 319.202H374.813L368.395 335.579C366.941 339.373 365.676 340.954 362.768 340.985C362.325 340.985 361.724 340.922 361.218 340.827V338.677C361.724 338.804 362.072 338.804 362.483 338.804C364.064 338.804 364.791 337.919 365.834 335.231ZM393.318 326.031H387.627V335.105H384.94V312.531H393.286C398.313 312.531 401.222 314.839 401.222 319.265C401.222 323.723 398.313 326.031 393.318 326.031ZM387.627 323.755H393.223C396.638 323.755 398.503 322.332 398.503 319.265C398.503 316.198 396.638 314.807 393.223 314.807H387.627V323.755ZM414.559 335.105C414.37 334.219 414.275 333.176 414.275 332.417C413.579 334.283 411.398 335.452 408.742 335.452C405.96 335.452 403.588 333.84 403.588 330.9C403.588 327.833 405.865 326.505 409.09 326.126L414.211 325.462V324.545C414.211 322.016 412.662 320.941 410.481 320.941C408.362 320.941 407.035 322.047 406.845 323.881H404.316C404.632 320.656 407.161 318.822 410.544 318.822C414.401 318.822 416.804 320.656 416.804 324.482V331.785C416.804 332.955 416.867 334.061 417.183 335.105H414.559ZM409.279 333.461C411.745 333.461 414.211 331.911 414.211 328.845V327.422L409.88 327.896C407.888 328.181 406.244 328.687 406.244 330.837C406.244 332.322 407.288 333.461 409.279 333.461ZM426.262 335.231L419.875 319.202H422.626L427.685 332.196H427.748L432.522 319.202H435.241L428.823 335.579C427.369 339.373 426.104 340.954 423.195 340.985C422.753 340.985 422.152 340.922 421.646 340.827V338.677C422.152 338.804 422.5 338.804 422.911 338.804C424.491 338.804 425.219 337.919 426.262 335.231ZM451.057 322.237C452.037 320.087 454.06 318.822 456.4 318.822C460.067 318.822 461.869 321.13 461.869 324.861V335.105H459.214V325.43C459.214 322.458 458.139 320.972 455.767 320.972C453.396 320.972 451.594 322.68 451.594 326.347V335.105H448.938V325.43C448.938 322.458 447.895 320.972 445.492 320.972C443.089 320.972 441.287 322.68 441.287 326.347V335.105H438.663V319.202H441.192V322.11C441.951 320.087 443.911 318.822 446.219 318.822C448.907 318.822 450.361 320.119 451.057 322.237ZM480.096 330.426C479.369 333.808 476.618 335.484 473.52 335.484C469.03 335.484 465.869 332.354 465.869 327.232C465.869 322.047 469.125 318.822 473.362 318.822C478.073 318.822 480.191 322.585 480.191 326.663V327.707H468.43C468.556 331.374 470.485 333.397 473.52 333.397C475.67 333.397 476.966 332.354 477.63 330.426H480.096ZM473.362 320.941C470.864 320.941 468.967 322.553 468.525 325.81H477.63C477.567 323.059 476.207 320.941 473.362 320.941ZM486.89 319.202V322.11C487.649 320.15 489.641 318.822 492.075 318.822C495.648 318.822 497.766 321.067 497.766 324.861V335.105H495.142V325.43C495.142 322.49 493.846 320.972 491.348 320.972C488.914 320.972 486.985 322.521 486.985 326.347V335.105H484.361V319.202H486.89ZM510.347 332.765V334.915C509.177 335.263 508.26 335.358 507.565 335.358C504.656 335.358 503.17 333.967 503.17 331.026V321.194H500.831V319.202H503.17V315.155H505.763V319.202H509.936V321.194H505.731V330.9C505.731 332.575 506.585 333.145 508.039 333.145C508.64 333.145 509.335 333.081 510.347 332.765Z" fill="#1A1A1A"/>
<path d="M257.574 373.133C257.574 367.213 260.645 362.925 265.431 362.925C270.245 362.925 273.288 367.213 273.288 373.133C273.288 379.053 270.245 383.341 265.431 383.341C260.645 383.341 257.574 379.053 257.574 373.133ZM260.009 373.133C260.009 377.974 261.835 381.294 265.431 381.294C269.055 381.294 270.881 377.974 270.881 373.133C270.881 368.291 269.055 364.972 265.431 364.972C261.835 364.972 260.009 368.291 260.009 373.133ZM275.494 367.766V366.161C278.869 366.161 280.086 365.221 280.557 363.174H282.023V383.009H279.644V367.766H275.494ZM292.204 377.172H294.5C294.805 380.353 297.405 381.432 300.337 381.432C303.159 381.432 305.234 380.076 305.234 377.697C305.234 376.037 304.321 374.958 301.638 374.461L297.875 373.714C295.219 373.216 292.84 371.998 292.84 368.596C292.84 365.359 295.634 362.925 299.729 362.925C303.961 362.925 306.755 364.75 307.143 368.319H304.847C304.515 366.106 302.578 364.833 299.756 364.833C296.879 364.833 295.164 366.438 295.164 368.513C295.164 370.477 296.271 371.169 298.678 371.639L302.55 372.441C305.594 373.05 307.53 374.461 307.53 377.587C307.53 380.962 304.542 383.341 300.365 383.341C296.077 383.341 292.481 381.487 292.204 377.172ZM323 378.914C322.364 381.875 319.957 383.341 317.246 383.341C313.317 383.341 310.551 380.602 310.551 376.12C310.551 371.583 313.4 368.762 317.107 368.762C321.229 368.762 323.083 372.054 323.083 375.622V376.535H312.792C312.902 379.744 314.59 381.515 317.246 381.515C319.127 381.515 320.261 380.602 320.842 378.914H323ZM317.107 370.615C314.922 370.615 313.262 372.026 312.875 374.876H320.842C320.787 372.469 319.597 370.615 317.107 370.615ZM329.27 380.574V387.933H326.974V369.094H329.187V371.639C329.823 370.228 331.483 368.762 333.89 368.762C337.431 368.762 340.086 371.639 340.086 376.065C340.086 380.464 337.431 383.341 333.89 383.341C331.594 383.341 329.961 381.985 329.27 380.574ZM329.159 375.844V376.231C329.159 379.385 330.708 381.543 333.419 381.543C336.158 381.543 337.763 379.302 337.763 376.065C337.763 372.801 336.158 370.56 333.419 370.56C330.708 370.56 329.159 372.69 329.159 375.844ZM361.997 368.679C361.997 372.386 358.927 374.046 355.966 375.954C353.56 377.559 351.181 379.219 351.181 381.017H362.191V383.009H348.635V381.93C348.635 378.417 352.038 375.954 354.971 374.129C357.599 372.441 359.729 370.975 359.729 368.679C359.729 366.798 358.65 364.916 355.717 364.916C353.006 364.916 351.43 366.964 351.264 369.343H349.023C349.216 365.857 351.596 362.925 355.745 362.925C359.895 362.925 361.997 365.746 361.997 368.679ZM364.854 373.133C364.854 367.213 367.925 362.925 372.711 362.925C377.524 362.925 380.567 367.213 380.567 373.133C380.567 379.053 377.524 383.341 372.711 383.341C367.925 383.341 364.854 379.053 364.854 373.133ZM367.288 373.133C367.288 377.974 369.114 381.294 372.711 381.294C376.335 381.294 378.16 377.974 378.16 373.133C378.16 368.291 376.335 364.972 372.711 364.972C369.114 364.972 367.288 368.291 367.288 373.133ZM396.55 368.679C396.55 372.386 393.48 374.046 390.52 375.954C388.113 377.559 385.734 379.219 385.734 381.017H396.744V383.009H383.189V381.93C383.189 378.417 386.591 375.954 389.524 374.129C392.152 372.441 394.282 370.975 394.282 368.679C394.282 366.798 393.203 364.916 390.271 364.916C387.56 364.916 385.983 366.964 385.817 369.343H383.576C383.77 365.857 386.149 362.925 390.298 362.925C394.448 362.925 396.55 365.746 396.55 368.679ZM413.212 377.642C413.212 380.713 410.749 383.341 406.323 383.341C402.091 383.341 399.352 380.962 399.075 377.227H401.399C401.565 379.689 403.308 381.404 406.323 381.404C409.2 381.404 410.971 379.938 410.971 377.559C410.971 375.263 409.256 373.963 406.655 373.963H404.497V372.026H406.572C408.647 372.026 410.445 371.113 410.445 368.568C410.445 366.549 409.117 364.861 406.406 364.861C403.584 364.861 402.008 366.825 401.869 369.177H399.628C399.85 365.746 402.146 362.925 406.406 362.925C410.639 362.925 412.741 365.608 412.741 368.54C412.741 370.975 411.137 372.662 409.2 372.939C411.552 373.299 413.212 375.18 413.212 377.642Z" fill="#757575"/>
<path d="M1308.05 328.908C1308.05 332.481 1304.98 335.136 1300.68 335.389V338.551H1298.78V335.358C1294.61 335.01 1291.13 332.702 1290.88 328.465H1293.41C1293.69 331.469 1296 332.892 1298.78 333.208V324.798L1297.2 324.482C1294.23 323.881 1291.61 322.49 1291.61 318.601C1291.61 315.028 1294.48 312.373 1298.78 312.183V309.211H1300.68V312.246C1304.63 312.626 1307.19 314.649 1307.57 318.285H1305.08C1304.79 316.072 1303.18 314.807 1300.68 314.491V322.648L1302.52 322.996C1305.9 323.691 1308.05 325.367 1308.05 328.908ZM1298.03 322.11L1298.78 322.269V314.428C1295.81 314.586 1294.11 316.261 1294.11 318.506C1294.11 320.751 1295.34 321.573 1298.03 322.11ZM1301.5 325.304L1300.68 325.146V333.239C1303.59 333.018 1305.52 331.5 1305.52 329.034C1305.52 327.137 1304.54 325.873 1301.5 325.304ZM1326.24 318.728C1326.24 322.964 1322.73 324.861 1319.35 327.043C1316.6 328.876 1313.88 330.773 1313.88 332.828H1326.46V335.105H1310.97V333.872C1310.97 329.856 1314.86 327.043 1318.21 324.956C1321.22 323.027 1323.65 321.352 1323.65 318.728C1323.65 316.578 1322.42 314.428 1319.07 314.428C1315.97 314.428 1314.17 316.767 1313.98 319.486H1311.42C1311.64 315.503 1314.36 312.151 1319.1 312.151C1323.84 312.151 1326.24 315.376 1326.24 318.728ZM1328.65 317.684V315.85C1332.51 315.85 1333.9 314.776 1334.44 312.436H1336.12V335.105H1333.4V317.684H1328.65ZM1348.84 322.3C1346.47 322.3 1344.89 323.47 1344.03 324.829H1341.6L1342.87 312.531H1355.57V314.839H1344.83L1344.07 322.3C1345.02 321.099 1346.98 320.087 1349.06 320.087C1353.77 320.087 1356.71 323.502 1356.71 327.77C1356.71 332.07 1353.77 335.484 1348.84 335.484C1344.29 335.484 1341.03 332.765 1340.68 328.402H1343.37C1343.59 331.279 1345.68 333.271 1348.87 333.271C1352.41 333.271 1354.09 330.647 1354.09 327.77C1354.09 324.893 1352.41 322.3 1348.84 322.3ZM1360.3 335.105V331.659H1363.74V335.105H1360.3ZM1366.9 323.818C1366.9 317.052 1370.41 312.151 1375.88 312.151C1381.38 312.151 1384.86 317.052 1384.86 323.818C1384.86 330.584 1381.38 335.484 1375.88 335.484C1370.41 335.484 1366.9 330.584 1366.9 323.818ZM1369.69 323.818C1369.69 329.351 1371.77 333.145 1375.88 333.145C1380.02 333.145 1382.11 329.351 1382.11 323.818C1382.11 318.285 1380.02 314.491 1375.88 314.491C1371.77 314.491 1369.69 318.285 1369.69 323.818ZM1388.02 323.818C1388.02 317.052 1391.53 312.151 1397 312.151C1402.5 312.151 1405.98 317.052 1405.98 323.818C1405.98 330.584 1402.5 335.484 1397 335.484C1391.53 335.484 1388.02 330.584 1388.02 323.818ZM1390.8 323.818C1390.8 329.351 1392.89 333.145 1397 333.145C1401.14 333.145 1403.23 329.351 1403.23 323.818C1403.23 318.285 1401.14 314.491 1397 314.491C1392.89 314.491 1390.8 318.285 1390.8 323.818Z" fill="#009221"/>
<path d="M1318.65 377.587C1318.65 380.713 1315.97 383.036 1312.2 383.258V386.024H1310.54V383.23C1306.89 382.926 1303.85 380.906 1303.63 377.199H1305.84C1306.09 379.827 1308.11 381.072 1310.54 381.349V373.99L1309.16 373.714C1306.56 373.188 1304.26 371.971 1304.26 368.568C1304.26 365.442 1306.78 363.118 1310.54 362.952V360.352H1312.2V363.008C1315.66 363.34 1317.9 365.11 1318.23 368.291H1316.05C1315.8 366.355 1314.39 365.248 1312.2 364.972V372.109L1313.81 372.413C1316.77 373.022 1318.65 374.488 1318.65 377.587ZM1309.88 371.639L1310.54 371.777V364.916C1307.94 365.055 1306.45 366.521 1306.45 368.485C1306.45 370.449 1307.53 371.169 1309.88 371.639ZM1312.92 374.433L1312.2 374.295V381.377C1314.75 381.183 1316.44 379.855 1316.44 377.697C1316.44 376.037 1315.58 374.931 1312.92 374.433ZM1328.37 381.349C1332.02 381.349 1333.93 377.559 1333.93 372.441C1333.29 374.488 1331.35 376.452 1328.34 376.452C1324.44 376.452 1321.81 373.575 1321.81 369.785C1321.81 365.802 1324.52 362.925 1328.64 362.925C1333.01 362.925 1336.14 366.742 1336.14 372.801C1336.14 379.053 1332.87 383.341 1328.34 383.341C1324.82 383.341 1322.45 381.266 1322 377.946H1324.19C1324.66 380.187 1326.01 381.349 1328.37 381.349ZM1328.64 364.861C1325.82 364.861 1324.05 366.936 1324.05 369.702C1324.05 372.496 1325.82 374.516 1328.64 374.516C1331.41 374.516 1333.29 372.496 1333.29 369.702C1333.29 366.936 1331.41 364.861 1328.64 364.861ZM1345.66 381.349C1349.31 381.349 1351.22 377.559 1351.22 372.441C1350.58 374.488 1348.64 376.452 1345.63 376.452C1341.73 376.452 1339.1 373.575 1339.1 369.785C1339.1 365.802 1341.81 362.925 1345.93 362.925C1350.3 362.925 1353.43 366.742 1353.43 372.801C1353.43 379.053 1350.16 383.341 1345.63 383.341C1342.11 383.341 1339.74 381.266 1339.29 377.946H1341.48C1341.95 380.187 1343.3 381.349 1345.66 381.349ZM1345.93 364.861C1343.11 364.861 1341.34 366.936 1341.34 369.702C1341.34 372.496 1343.11 374.516 1345.93 374.516C1348.7 374.516 1350.58 372.496 1350.58 369.702C1350.58 366.936 1348.7 364.861 1345.93 364.861ZM1355.61 367.766V366.161C1358.99 366.161 1360.21 365.221 1360.68 363.174H1362.14V383.009H1359.76V367.766H1355.61ZM1367.63 383.009V379.993H1370.65V383.009H1367.63ZM1381.4 364.916C1377.75 364.916 1375.84 368.706 1375.84 373.824C1376.48 371.777 1378.41 369.813 1381.43 369.813C1385.33 369.813 1387.96 372.69 1387.96 376.48C1387.96 380.464 1385.24 383.341 1381.12 383.341C1376.75 383.341 1373.63 379.523 1373.63 373.465C1373.63 367.213 1376.89 362.925 1381.43 362.925C1384.94 362.925 1387.32 364.999 1387.76 368.319H1385.58C1385.11 366.078 1383.75 364.916 1381.4 364.916ZM1381.12 381.404C1383.94 381.404 1385.72 379.329 1385.72 376.563C1385.72 373.769 1383.94 371.749 1381.12 371.749C1378.36 371.749 1376.48 373.769 1376.48 376.563C1376.48 379.329 1378.36 381.404 1381.12 381.404ZM1402.56 363.257V375.678H1406.8V377.587H1402.56V383.009H1400.24V377.587H1390.45V375.65L1399.88 363.257H1402.56ZM1400.24 365.719L1392.74 375.678H1400.24V365.719Z" fill="#757575"/>
</g>
<g opacity="0.8" clip-path="url(#clip2_436_3271)">
<rect width="1286.38" height="132.393" transform="translate(153.328 145)" fill="white"/>
<mask id="path-8-inside-1_436_3271" fill="white">
<path d="M153.328 145H1439.71V277.393H153.328V145Z"/>
</mask>
<path d="M153.328 145H1439.71V277.393H153.328V145Z" fill="white"/>
<path d="M1439.71 277.393V275.417H153.328V277.393V279.369H1439.71V277.393Z" fill="#E2E2E2" mask="url(#path-8-inside-1_436_3271)"/>
<path d="M194.088 181.449L196.187 179.349L212.86 196.022L212.86 181.325L215.824 181.325L215.824 201.085L196.064 201.085L196.064 198.121L210.76 198.121L194.088 181.449Z" fill="#009221"/>
<path d="M267.399 193.638H261.708V202.712H259.02V180.138H267.367C272.394 180.138 275.303 182.446 275.303 186.872C275.303 191.33 272.394 193.638 267.399 193.638ZM261.708 191.362H267.304C270.718 191.362 272.584 189.939 272.584 186.872C272.584 183.806 270.718 182.415 267.304 182.415H261.708V191.362ZM288.64 202.712C288.45 201.827 288.355 200.784 288.355 200.025C287.66 201.89 285.478 203.06 282.823 203.06C280.04 203.06 277.669 201.447 277.669 198.507C277.669 195.44 279.946 194.113 283.17 193.733L288.292 193.069V192.152C288.292 189.623 286.743 188.548 284.562 188.548C282.443 188.548 281.115 189.655 280.926 191.488H278.396C278.713 188.264 281.242 186.43 284.625 186.43C288.482 186.43 290.885 188.264 290.885 192.089V199.392C290.885 200.562 290.948 201.669 291.264 202.712H288.64ZM283.36 201.068C285.826 201.068 288.292 199.519 288.292 196.452V195.029L283.961 195.504C281.969 195.788 280.325 196.294 280.325 198.444C280.325 199.93 281.368 201.068 283.36 201.068ZM300.343 202.839L293.956 186.809H296.707L301.765 199.803H301.829L306.603 186.809H309.322L302.904 203.186C301.449 206.98 300.185 208.561 297.276 208.593C296.833 208.593 296.233 208.529 295.727 208.435V206.285C296.233 206.411 296.58 206.411 296.991 206.411C298.572 206.411 299.299 205.526 300.343 202.839ZM325.137 189.844C326.118 187.694 328.141 186.43 330.481 186.43C334.148 186.43 335.95 188.738 335.95 192.468V202.712H333.294V193.038C333.294 190.066 332.219 188.58 329.848 188.58C327.477 188.58 325.675 190.287 325.675 193.954V202.712H323.019V193.038C323.019 190.066 321.976 188.58 319.573 188.58C317.17 188.58 315.368 190.287 315.368 193.954V202.712H312.744V186.809H315.273V189.718C316.032 187.694 317.992 186.43 320.3 186.43C322.988 186.43 324.442 187.726 325.137 189.844ZM354.177 198.033C353.45 201.416 350.699 203.092 347.601 203.092C343.111 203.092 339.95 199.962 339.95 194.84C339.95 189.655 343.206 186.43 347.443 186.43C352.153 186.43 354.272 190.192 354.272 194.271V195.314H342.51C342.637 198.981 344.566 201.005 347.601 201.005C349.751 201.005 351.047 199.962 351.711 198.033H354.177ZM347.443 188.548C344.945 188.548 343.048 190.16 342.605 193.417H351.711C351.648 190.666 350.288 188.548 347.443 188.548ZM360.971 186.809V189.718C361.73 187.758 363.721 186.43 366.156 186.43C369.729 186.43 371.847 188.675 371.847 192.468V202.712H369.223V193.038C369.223 190.097 367.926 188.58 365.429 188.58C362.994 188.58 361.066 190.129 361.066 193.954V202.712H358.442V186.809H360.971ZM384.428 200.373V202.522C383.258 202.87 382.341 202.965 381.646 202.965C378.737 202.965 377.251 201.574 377.251 198.634V188.801H374.911V186.809H377.251V182.762H379.843V186.809H384.017V188.801H379.812V198.507C379.812 200.183 380.666 200.752 382.12 200.752C382.721 200.752 383.416 200.689 384.428 200.373ZM397.815 202.712H395.128V180.138H403.822C408.881 180.138 411.758 182.509 411.758 186.841C411.758 190.508 409.197 192.563 406.541 193.164L412.738 202.712H409.671L403.822 193.575H397.815V202.712ZM397.815 191.299H403.664C407.079 191.299 409.007 189.781 409.007 186.841C409.007 183.995 407.079 182.415 403.664 182.415H397.815V191.299ZM429.58 198.033C428.853 201.416 426.102 203.092 423.004 203.092C418.515 203.092 415.353 199.962 415.353 194.84C415.353 189.655 418.609 186.43 422.846 186.43C427.557 186.43 429.675 190.192 429.675 194.271V195.314H417.914C418.04 198.981 419.969 201.005 423.004 201.005C425.154 201.005 426.45 199.962 427.114 198.033H429.58ZM422.846 188.548C420.348 188.548 418.451 190.16 418.009 193.417H427.114C427.051 190.666 425.691 188.548 422.846 188.548ZM432.706 194.776C432.706 189.686 435.773 186.43 440.199 186.43C443.74 186.43 446.08 188.453 446.585 191.836H444.088C443.645 189.718 442.349 188.548 440.199 188.548C437.069 188.548 435.298 191.046 435.298 194.776C435.298 198.507 437.069 200.973 440.199 200.973C442.349 200.973 443.645 199.803 444.088 197.685H446.585C446.08 201.1 443.74 203.092 440.199 203.092C435.773 203.092 432.706 199.867 432.706 194.776ZM463.7 198.033C462.972 201.416 460.222 203.092 457.124 203.092C452.634 203.092 449.472 199.962 449.472 194.84C449.472 189.655 452.729 186.43 456.965 186.43C461.676 186.43 463.795 190.192 463.795 194.271V195.314H452.033C452.16 198.981 454.088 201.005 457.124 201.005C459.273 201.005 460.57 199.962 461.234 198.033H463.7ZM456.965 188.548C454.468 188.548 452.571 190.16 452.128 193.417H461.234C461.17 190.666 459.811 188.548 456.965 188.548ZM467.775 183.489V180.296H470.747V183.489H467.775ZM467.964 202.712V186.809H470.589V202.712H467.964ZM480.358 202.712L474.003 186.809H476.69L481.812 200.12H481.875L486.776 186.809H489.4L483.298 202.712H480.358ZM505.385 198.033C504.658 201.416 501.907 203.092 498.809 203.092C494.319 203.092 491.158 199.962 491.158 194.84C491.158 189.655 494.414 186.43 498.651 186.43C503.361 186.43 505.48 190.192 505.48 194.271V195.314H493.718C493.845 198.981 495.774 201.005 498.809 201.005C500.959 201.005 502.255 199.962 502.919 198.033H505.385ZM498.651 188.548C496.153 188.548 494.256 190.16 493.813 193.417H502.919C502.856 190.666 501.496 188.548 498.651 188.548ZM520.967 202.712V199.93C520.177 201.542 518.217 203.092 515.593 203.092C511.546 203.092 508.511 199.803 508.511 194.776C508.511 189.718 511.546 186.43 515.593 186.43C518.343 186.43 520.145 188.011 520.873 189.623V179.443H523.497V202.712H520.967ZM520.999 194.966V194.524C520.999 190.919 519.229 188.485 516.13 188.485C513 188.485 511.166 191.046 511.166 194.776C511.166 198.476 513 201.036 516.13 201.036C519.229 201.036 520.999 198.57 520.999 194.966Z" fill="#1A1A1A"/>
<path d="M256.772 235.373V233.769C260.147 233.769 261.364 232.828 261.834 230.781H263.3V250.616H260.921V235.373H256.772ZM274.677 239.412C272.602 239.412 271.219 240.436 270.472 241.625H268.342L269.448 230.864H280.569V232.883H271.164L270.5 239.412C271.33 238.361 273.045 237.476 274.871 237.476C278.992 237.476 281.565 240.463 281.565 244.198C281.565 247.96 278.992 250.948 274.677 250.948C270.693 250.948 267.844 248.569 267.54 244.751H269.891C270.085 247.269 271.91 249.012 274.705 249.012C277.803 249.012 279.269 246.716 279.269 244.198C279.269 241.681 277.803 239.412 274.677 239.412ZM305.64 250.616L303.454 245.111H293.993L291.808 250.616H289.429L297.423 230.864H300.107L308.13 250.616H305.64ZM298.696 233.243L294.768 243.147H302.68L298.779 233.243H298.696ZM322.46 250.616H320.219V248.099C319.555 249.842 317.895 250.948 315.793 250.948C312.639 250.948 310.868 249.039 310.868 245.664V236.701H313.192V245.222C313.192 247.794 314.271 249.15 316.457 249.15C318.559 249.15 320.136 247.711 320.136 244.364V236.701H322.46V250.616ZM337.116 249.731V247.684C336.48 249.039 334.931 250.367 332.496 250.367C328.928 250.367 326.327 247.684 326.327 243.34C326.327 239.163 328.928 236.369 332.496 236.369C334.931 236.369 336.535 237.808 337.199 239.136V236.701H339.44V249.565C339.44 253.991 336.563 255.872 332.856 255.872C329.508 255.872 327.24 254.517 326.687 251.806H329.011C329.481 253.549 330.947 254.102 332.828 254.102C335.567 254.102 337.116 252.636 337.116 249.731ZM337.282 243.672V243.009C337.282 240.131 335.484 238.167 332.911 238.167C330.2 238.167 328.596 240.242 328.596 243.34C328.596 246.411 330.2 248.541 332.911 248.541C335.484 248.541 337.282 246.55 337.282 243.672ZM362.375 236.286C362.375 239.993 359.304 241.653 356.344 243.562C353.937 245.166 351.558 246.826 351.558 248.624H362.569V250.616H349.013V249.537C349.013 246.024 352.416 243.562 355.348 241.736C357.976 240.048 360.107 238.582 360.107 236.286C360.107 234.405 359.028 232.524 356.095 232.524C353.384 232.524 351.807 234.571 351.641 236.95H349.401C349.594 233.464 351.973 230.532 356.123 230.532C360.273 230.532 362.375 233.354 362.375 236.286ZM365.232 240.74C365.232 234.82 368.302 230.532 373.088 230.532C377.902 230.532 380.945 234.82 380.945 240.74C380.945 246.66 377.902 250.948 373.088 250.948C368.302 250.948 365.232 246.66 365.232 240.74ZM367.666 240.74C367.666 245.581 369.492 248.901 373.088 248.901C376.712 248.901 378.538 245.581 378.538 240.74C378.538 235.899 376.712 232.579 373.088 232.579C369.492 232.579 367.666 235.899 367.666 240.74ZM396.928 236.286C396.928 239.993 393.857 241.653 390.897 243.562C388.491 245.166 386.111 246.826 386.111 248.624H397.122V250.616H383.566V249.537C383.566 246.024 386.969 243.562 389.901 241.736C392.53 240.048 394.66 238.582 394.66 236.286C394.66 234.405 393.581 232.524 390.648 232.524C387.937 232.524 386.36 234.571 386.194 236.95H383.954C384.147 233.464 386.526 230.532 390.676 230.532C394.826 230.532 396.928 233.354 396.928 236.286ZM413.589 245.249C413.589 248.32 411.127 250.948 406.701 250.948C402.468 250.948 399.73 248.569 399.453 244.834H401.777C401.943 247.296 403.686 249.012 406.701 249.012C409.578 249.012 411.349 247.545 411.349 245.166C411.349 242.87 409.633 241.57 407.033 241.57H404.875V239.633H406.95C409.025 239.633 410.823 238.721 410.823 236.175C410.823 234.156 409.495 232.468 406.784 232.468C403.962 232.468 402.385 234.433 402.247 236.784H400.006C400.228 233.354 402.524 230.532 406.784 230.532C411.017 230.532 413.119 233.215 413.119 236.148C413.119 238.582 411.514 240.27 409.578 240.546C411.929 240.906 413.589 242.787 413.589 245.249Z" fill="#757575"/>
<path d="M1308.05 196.515C1308.05 200.088 1304.98 202.744 1300.68 202.997V206.158H1298.78V202.965C1294.61 202.617 1291.13 200.309 1290.88 196.073H1293.41C1293.69 199.076 1296 200.499 1298.78 200.815V192.405L1297.2 192.089C1294.23 191.488 1291.61 190.097 1291.61 186.208C1291.61 182.636 1294.48 179.98 1298.78 179.79V176.818H1300.68V179.854C1304.63 180.233 1307.19 182.256 1307.57 185.892H1305.08C1304.79 183.679 1303.18 182.415 1300.68 182.098V190.255L1302.52 190.603C1305.9 191.299 1308.05 192.974 1308.05 196.515ZM1298.03 189.718L1298.78 189.876V182.035C1295.81 182.193 1294.11 183.869 1294.11 186.114C1294.11 188.358 1295.34 189.18 1298.03 189.718ZM1301.5 192.911L1300.68 192.753V200.847C1303.59 200.625 1305.52 199.108 1305.52 196.642C1305.52 194.745 1304.54 193.48 1301.5 192.911ZM1326.24 186.335C1326.24 190.572 1322.73 192.468 1319.35 194.65C1316.6 196.484 1313.88 198.381 1313.88 200.436H1326.46V202.712H1310.97V201.479C1310.97 197.464 1314.86 194.65 1318.21 192.563C1321.22 190.635 1323.65 188.959 1323.65 186.335C1323.65 184.185 1322.42 182.035 1319.07 182.035C1315.97 182.035 1314.17 184.375 1313.98 187.094H1311.42C1311.64 183.11 1314.36 179.759 1319.1 179.759C1323.84 179.759 1326.24 182.984 1326.24 186.335ZM1328.65 185.292V183.458C1332.51 183.458 1333.9 182.383 1334.44 180.043H1336.12V202.712H1333.4V185.292H1328.65ZM1348.84 189.908C1346.47 189.908 1344.89 191.077 1344.03 192.437H1341.6L1342.87 180.138H1355.57V182.446H1344.83L1344.07 189.908C1345.02 188.706 1346.98 187.694 1349.06 187.694C1353.77 187.694 1356.71 191.109 1356.71 195.377C1356.71 199.677 1353.77 203.092 1348.84 203.092C1344.29 203.092 1341.03 200.373 1340.68 196.009H1343.37C1343.59 198.887 1345.68 200.878 1348.87 200.878C1352.41 200.878 1354.09 198.254 1354.09 195.377C1354.09 192.5 1352.41 189.908 1348.84 189.908ZM1360.3 202.712V199.266H1363.74V202.712H1360.3ZM1366.9 191.425C1366.9 184.659 1370.41 179.759 1375.88 179.759C1381.38 179.759 1384.86 184.659 1384.86 191.425C1384.86 198.191 1381.38 203.092 1375.88 203.092C1370.41 203.092 1366.9 198.191 1366.9 191.425ZM1369.69 191.425C1369.69 196.958 1371.77 200.752 1375.88 200.752C1380.02 200.752 1382.11 196.958 1382.11 191.425C1382.11 185.892 1380.02 182.098 1375.88 182.098C1371.77 182.098 1369.69 185.892 1369.69 191.425ZM1388.02 191.425C1388.02 184.659 1391.53 179.759 1397 179.759C1402.5 179.759 1405.98 184.659 1405.98 191.425C1405.98 198.191 1402.5 203.092 1397 203.092C1391.53 203.092 1388.02 198.191 1388.02 191.425ZM1390.8 191.425C1390.8 196.958 1392.89 200.752 1397 200.752C1401.14 200.752 1403.23 196.958 1403.23 191.425C1403.23 185.892 1401.14 182.098 1397 182.098C1392.89 182.098 1390.8 185.892 1390.8 191.425Z" fill="#009221"/>
<path d="M1293.52 245.194C1293.52 248.32 1290.84 250.644 1287.08 250.865V253.632H1285.42V250.837C1281.77 250.533 1278.72 248.514 1278.5 244.807H1280.72C1280.96 247.435 1282.98 248.68 1285.42 248.956V241.598L1284.04 241.321C1281.43 240.795 1279.14 239.578 1279.14 236.175C1279.14 233.049 1281.66 230.726 1285.42 230.56V227.959H1287.08V230.615C1290.54 230.947 1292.78 232.717 1293.11 235.899H1290.92C1290.67 233.962 1289.26 232.856 1287.08 232.579V239.716L1288.68 240.021C1291.64 240.629 1293.52 242.096 1293.52 245.194ZM1284.75 239.246L1285.42 239.385V232.524C1282.82 232.662 1281.32 234.128 1281.32 236.092C1281.32 238.057 1282.4 238.776 1284.75 239.246ZM1287.8 242.04L1287.08 241.902V248.984C1289.62 248.79 1291.31 247.462 1291.31 245.305C1291.31 243.645 1290.45 242.538 1287.8 242.04ZM1295.91 235.373V233.769C1299.28 233.769 1300.5 232.828 1300.97 230.781H1302.44V250.616H1300.06V235.373H1295.91ZM1307.93 250.588V247.601H1310.94V251.086C1310.94 253.383 1309.56 254.959 1307.04 254.959V253.549C1308.45 253.549 1309.25 252.912 1309.25 251.086V250.588H1307.93ZM1328.38 236.286C1328.38 239.993 1325.31 241.653 1322.35 243.562C1319.94 245.166 1317.56 246.826 1317.56 248.624H1328.58V250.616H1315.02V249.537C1315.02 246.024 1318.42 243.562 1321.35 241.736C1323.98 240.048 1326.11 238.582 1326.11 236.286C1326.11 234.405 1325.03 232.524 1322.1 232.524C1319.39 232.524 1317.81 234.571 1317.65 236.95H1315.41C1315.6 233.464 1317.98 230.532 1322.13 230.532C1326.28 230.532 1328.38 233.354 1328.38 236.286ZM1331.24 240.74C1331.24 234.82 1334.31 230.532 1339.09 230.532C1343.91 230.532 1346.95 234.82 1346.95 240.74C1346.95 246.66 1343.91 250.948 1339.09 250.948C1334.31 250.948 1331.24 246.66 1331.24 240.74ZM1333.67 240.74C1333.67 245.581 1335.5 248.901 1339.09 248.901C1342.72 248.901 1344.54 245.581 1344.54 240.74C1344.54 235.899 1342.72 232.579 1339.09 232.579C1335.5 232.579 1333.67 235.899 1333.67 240.74ZM1357.73 232.524C1354.08 232.524 1352.17 236.314 1352.17 241.432C1352.81 239.385 1354.75 237.42 1357.76 237.42C1361.66 237.42 1364.29 240.297 1364.29 244.087C1364.29 248.071 1361.58 250.948 1357.46 250.948C1353.09 250.948 1349.96 247.13 1349.96 241.072C1349.96 234.82 1353.22 230.532 1357.76 230.532C1361.27 230.532 1363.65 232.607 1364.1 235.926H1361.91C1361.44 233.686 1360.09 232.524 1357.73 232.524ZM1357.46 249.012C1360.28 249.012 1362.05 246.937 1362.05 244.17C1362.05 241.376 1360.28 239.357 1357.46 239.357C1354.69 239.357 1352.81 241.376 1352.81 244.17C1352.81 246.937 1354.69 249.012 1357.46 249.012ZM1367.63 250.616V247.601H1370.65V250.616H1367.63ZM1381.4 232.524C1377.75 232.524 1375.84 236.314 1375.84 241.432C1376.48 239.385 1378.41 237.42 1381.43 237.42C1385.33 237.42 1387.96 240.297 1387.96 244.087C1387.96 248.071 1385.24 250.948 1381.12 250.948C1376.75 250.948 1373.63 247.13 1373.63 241.072C1373.63 234.82 1376.89 230.532 1381.43 230.532C1384.94 230.532 1387.32 232.607 1387.76 235.926H1385.58C1385.11 233.686 1383.75 232.524 1381.4 232.524ZM1381.12 249.012C1383.94 249.012 1385.72 246.937 1385.72 244.17C1385.72 241.376 1383.94 239.357 1381.12 239.357C1378.36 239.357 1376.48 241.376 1376.48 244.17C1376.48 246.937 1378.36 249.012 1381.12 249.012ZM1402.56 230.864V243.285H1406.8V245.194H1402.56V250.616H1400.24V245.194H1390.45V243.257L1399.88 230.864H1402.56ZM1400.24 233.326L1392.74 243.285H1400.24V233.326Z" fill="#757575"/>
</g>
<g opacity="0.8">
<rect width="1286.38" height="132.393" transform="translate(153.328 986.78)" fill="white"/>
<mask id="path-15-inside-2_436_3271" fill="white">
<path d="M153.328 986.78H1439.71V1119.17H153.328V986.78Z"/>
</mask>
<path d="M153.328 986.78H1439.71V1119.17H153.328V986.78Z" fill="white"/>
<path d="M1439.71 1119.17V1117.2H153.328V1119.17V1121.15H1439.71V1119.17Z" fill="#E2E2E2" mask="url(#path-15-inside-2_436_3271)"/>
<path d="M194.088 1023.23L196.188 1021.13L212.86 1037.8L212.86 1023.11L215.824 1023.11L215.824 1042.87L196.064 1042.87L196.064 1039.9L210.761 1039.9L194.088 1023.23Z" fill="#009221"/>
<path d="M271.225 1044.49H269.012L261.677 1024.7H261.613V1044.49H259.021V1021.92H263.226L270.181 1040.95H270.245L277.2 1021.92H281.247V1044.49H278.623V1024.7H278.56L271.225 1044.49ZM300.657 1036.56C300.657 1041.68 297.495 1044.87 293.101 1044.87C288.706 1044.87 285.544 1041.68 285.544 1036.56C285.544 1031.43 288.706 1028.21 293.101 1028.21C297.495 1028.21 300.657 1031.43 300.657 1036.56ZM288.137 1036.56C288.137 1040.38 290.002 1042.75 293.101 1042.75C296.199 1042.75 298.064 1040.38 298.064 1036.56C298.064 1032.73 296.199 1030.33 293.101 1030.33C290.002 1030.33 288.137 1032.73 288.137 1036.56ZM307.368 1028.59V1031.5C308.127 1029.54 310.119 1028.21 312.553 1028.21C316.126 1028.21 318.244 1030.45 318.244 1034.25V1044.49H315.62V1034.82C315.62 1031.88 314.324 1030.36 311.826 1030.36C309.392 1030.36 307.463 1031.91 307.463 1035.73V1044.49H304.839V1028.59H307.368ZM330.825 1042.15V1044.3C329.656 1044.65 328.739 1044.75 328.043 1044.75C325.134 1044.75 323.648 1043.35 323.648 1040.41V1030.58H321.309V1028.59H323.648V1024.54H326.241V1028.59H330.414V1030.58H326.209V1040.29C326.209 1041.96 327.063 1042.53 328.517 1042.53C329.118 1042.53 329.814 1042.47 330.825 1042.15ZM337.445 1031.5C338.204 1029.47 340.101 1028.21 342.536 1028.21C346.108 1028.21 348.227 1030.45 348.227 1034.25V1044.49H345.602V1034.82C345.602 1031.88 344.306 1030.36 341.809 1030.36C339.374 1030.36 337.445 1031.91 337.445 1035.73V1044.49H334.821V1021.22H337.445V1031.5ZM356.034 1044.49H353.409V1021.22H356.034V1044.49ZM365.834 1044.62L359.448 1028.59H362.198L367.257 1041.58H367.32L372.094 1028.59H374.813L368.395 1044.97C366.941 1048.76 365.676 1050.34 362.768 1050.37C362.325 1050.37 361.724 1050.31 361.218 1050.21V1048.06C361.724 1048.19 362.072 1048.19 362.483 1048.19C364.064 1048.19 364.791 1047.31 365.834 1044.62ZM393.318 1035.42H387.627V1044.49H384.94V1021.92H393.286C398.313 1021.92 401.222 1024.23 401.222 1028.65C401.222 1033.11 398.313 1035.42 393.318 1035.42ZM387.627 1033.14H393.223C396.638 1033.14 398.503 1031.72 398.503 1028.65C398.503 1025.59 396.638 1024.19 393.223 1024.19H387.627V1033.14ZM414.559 1044.49C414.37 1043.61 414.275 1042.56 414.275 1041.8C413.579 1043.67 411.398 1044.84 408.742 1044.84C405.96 1044.84 403.588 1043.23 403.588 1040.29C403.588 1037.22 405.865 1035.89 409.09 1035.51L414.211 1034.85V1033.93C414.211 1031.4 412.662 1030.33 410.481 1030.33C408.362 1030.33 407.035 1031.43 406.845 1033.27H404.316C404.632 1030.04 407.161 1028.21 410.544 1028.21C414.401 1028.21 416.804 1030.04 416.804 1033.87V1041.17C416.804 1042.34 416.867 1043.45 417.183 1044.49H414.559ZM409.279 1042.85C411.745 1042.85 414.211 1041.3 414.211 1038.23V1036.81L409.88 1037.28C407.888 1037.57 406.244 1038.07 406.244 1040.22C406.244 1041.71 407.288 1042.85 409.279 1042.85ZM426.262 1044.62L419.875 1028.59H422.626L427.685 1041.58H427.748L432.522 1028.59H435.241L428.823 1044.97C427.369 1048.76 426.104 1050.34 423.195 1050.37C422.753 1050.37 422.152 1050.31 421.646 1050.21V1048.06C422.152 1048.19 422.5 1048.19 422.911 1048.19C424.491 1048.19 425.219 1047.31 426.262 1044.62ZM451.057 1031.62C452.037 1029.47 454.06 1028.21 456.4 1028.21C460.067 1028.21 461.869 1030.52 461.869 1034.25V1044.49H459.214V1034.82C459.214 1031.85 458.139 1030.36 455.767 1030.36C453.396 1030.36 451.594 1032.07 451.594 1035.73V1044.49H448.938V1034.82C448.938 1031.85 447.895 1030.36 445.492 1030.36C443.089 1030.36 441.287 1032.07 441.287 1035.73V1044.49H438.663V1028.59H441.192V1031.5C441.951 1029.47 443.911 1028.21 446.219 1028.21C448.907 1028.21 450.361 1029.51 451.057 1031.62ZM480.096 1039.81C479.369 1043.2 476.618 1044.87 473.52 1044.87C469.03 1044.87 465.869 1041.74 465.869 1036.62C465.869 1031.43 469.125 1028.21 473.362 1028.21C478.073 1028.21 480.191 1031.97 480.191 1036.05V1037.09H468.43C468.556 1040.76 470.485 1042.78 473.52 1042.78C475.67 1042.78 476.966 1041.74 477.63 1039.81H480.096ZM473.362 1030.33C470.864 1030.33 468.967 1031.94 468.525 1035.2H477.63C477.567 1032.45 476.207 1030.33 473.362 1030.33ZM486.89 1028.59V1031.5C487.649 1029.54 489.641 1028.21 492.075 1028.21C495.648 1028.21 497.766 1030.45 497.766 1034.25V1044.49H495.142V1034.82C495.142 1031.88 493.846 1030.36 491.348 1030.36C488.914 1030.36 486.985 1031.91 486.985 1035.73V1044.49H484.361V1028.59H486.89ZM510.347 1042.15V1044.3C509.177 1044.65 508.26 1044.75 507.565 1044.75C504.656 1044.75 503.17 1043.35 503.17 1040.41V1030.58H500.831V1028.59H503.17V1024.54H505.763V1028.59H509.936V1030.58H505.731V1040.29C505.731 1041.96 506.585 1042.53 508.039 1042.53C508.64 1042.53 509.335 1042.47 510.347 1042.15Z" fill="#1A1A1A"/>
<path d="M1308.05 1038.3C1308.05 1041.87 1304.98 1044.52 1300.68 1044.78V1047.94H1298.78V1044.75C1294.61 1044.4 1291.13 1042.09 1290.88 1037.85H1293.41C1293.69 1040.86 1296 1042.28 1298.78 1042.6V1034.19L1297.2 1033.87C1294.23 1033.27 1291.61 1031.88 1291.61 1027.99C1291.61 1024.42 1294.48 1021.76 1298.78 1021.57V1018.6H1300.68V1021.63C1304.63 1022.01 1307.19 1024.04 1307.57 1027.67H1305.08C1304.79 1025.46 1303.18 1024.19 1300.68 1023.88V1032.04L1302.52 1032.38C1305.9 1033.08 1308.05 1034.75 1308.05 1038.3ZM1298.03 1031.5L1298.78 1031.66V1023.82C1295.81 1023.97 1294.11 1025.65 1294.11 1027.89C1294.11 1030.14 1295.34 1030.96 1298.03 1031.5ZM1301.5 1034.69L1300.68 1034.53V1042.63C1303.59 1042.41 1305.52 1040.89 1305.52 1038.42C1305.52 1036.52 1304.54 1035.26 1301.5 1034.69ZM1326.24 1028.11C1326.24 1032.35 1322.73 1034.25 1319.35 1036.43C1316.6 1038.26 1313.88 1040.16 1313.88 1042.22H1326.46V1044.49H1310.97V1043.26C1310.97 1039.24 1314.86 1036.43 1318.21 1034.34C1321.22 1032.41 1323.65 1030.74 1323.65 1028.11C1323.65 1025.97 1322.42 1023.82 1319.07 1023.82C1315.97 1023.82 1314.17 1026.15 1313.98 1028.87H1311.42C1311.64 1024.89 1314.36 1021.54 1319.1 1021.54C1323.84 1021.54 1326.24 1024.76 1326.24 1028.11ZM1328.65 1027.07V1025.24C1332.51 1025.24 1333.9 1024.16 1334.44 1021.82H1336.12V1044.49H1333.4V1027.07H1328.65ZM1348.84 1031.69C1346.47 1031.69 1344.89 1032.86 1344.03 1034.22H1341.6L1342.87 1021.92H1355.57V1024.23H1344.83L1344.07 1031.69C1345.02 1030.49 1346.98 1029.47 1349.06 1029.47C1353.77 1029.47 1356.71 1032.89 1356.71 1037.16C1356.71 1041.46 1353.77 1044.87 1348.84 1044.87C1344.29 1044.87 1341.03 1042.15 1340.68 1037.79H1343.37C1343.59 1040.67 1345.68 1042.66 1348.87 1042.66C1352.41 1042.66 1354.09 1040.03 1354.09 1037.16C1354.09 1034.28 1352.41 1031.69 1348.84 1031.69ZM1360.3 1044.49V1041.05H1363.74V1044.49H1360.3ZM1366.9 1033.21C1366.9 1026.44 1370.41 1021.54 1375.88 1021.54C1381.38 1021.54 1384.86 1026.44 1384.86 1033.21C1384.86 1039.97 1381.38 1044.87 1375.88 1044.87C1370.41 1044.87 1366.9 1039.97 1366.9 1033.21ZM1369.69 1033.21C1369.69 1038.74 1371.77 1042.53 1375.88 1042.53C1380.02 1042.53 1382.11 1038.74 1382.11 1033.21C1382.11 1027.67 1380.02 1023.88 1375.88 1023.88C1371.77 1023.88 1369.69 1027.67 1369.69 1033.21ZM1388.02 1033.21C1388.02 1026.44 1391.53 1021.54 1397 1021.54C1402.5 1021.54 1405.98 1026.44 1405.98 1033.21C1405.98 1039.97 1402.5 1044.87 1397 1044.87C1391.53 1044.87 1388.02 1039.97 1388.02 1033.21ZM1390.8 1033.21C1390.8 1038.74 1392.89 1042.53 1397 1042.53C1401.14 1042.53 1403.23 1038.74 1403.23 1033.21C1403.23 1027.67 1401.14 1023.88 1397 1023.88C1392.89 1023.88 1390.8 1027.67 1390.8 1033.21Z" fill="#009221"/>
</g>
<g opacity="0.8">
<rect width="1286.38" height="132.393" transform="translate(153.328 854.387)" fill="white"/>
<mask id="path-20-inside-3_436_3271" fill="white">
<path d="M153.328 854.387H1439.71V986.78H153.328V854.387Z"/>
</mask>
<path d="M153.328 854.387H1439.71V986.78H153.328V854.387Z" fill="white"/>
<path d="M1439.71 986.78V984.804H153.328V986.78V988.756H1439.71V986.78Z" fill="#E2E2E2" mask="url(#path-20-inside-3_436_3271)"/>
<path d="M194.088 890.836L196.188 888.736L212.86 905.409L212.86 890.712L215.824 890.712L215.824 910.473L196.064 910.473L196.064 907.509L210.761 907.509L194.088 890.836Z" fill="#009221"/>
<path d="M271.225 912.099H269.012L261.677 892.308H261.613V912.099H259.021V889.525H263.226L270.181 908.558H270.245L277.2 889.525H281.247V912.099H278.623V892.308H278.56L271.225 912.099ZM300.657 904.164C300.657 909.286 297.495 912.479 293.101 912.479C288.706 912.479 285.544 909.286 285.544 904.164C285.544 899.042 288.706 895.817 293.101 895.817C297.495 895.817 300.657 899.042 300.657 904.164ZM288.137 904.164C288.137 907.989 290.002 910.361 293.101 910.361C296.199 910.361 298.064 907.989 298.064 904.164C298.064 900.338 296.199 897.935 293.101 897.935C290.002 897.935 288.137 900.338 288.137 904.164ZM307.368 896.196V899.105C308.127 897.145 310.119 895.817 312.553 895.817C316.126 895.817 318.244 898.062 318.244 901.856V912.099H315.62V902.425C315.62 899.485 314.324 897.967 311.826 897.967C309.392 897.967 307.463 899.516 307.463 903.342V912.099H304.839V896.196H307.368ZM330.825 909.76V911.91C329.656 912.258 328.739 912.352 328.043 912.352C325.134 912.352 323.648 910.961 323.648 908.021V898.188H321.309V896.196H323.648V892.15H326.241V896.196H330.414V898.188H326.209V907.894C326.209 909.57 327.063 910.139 328.517 910.139C329.118 910.139 329.814 910.076 330.825 909.76ZM337.445 899.105C338.204 897.082 340.101 895.817 342.536 895.817C346.108 895.817 348.227 898.062 348.227 901.856V912.099H345.602V902.425C345.602 899.485 344.306 897.967 341.809 897.967C339.374 897.967 337.445 899.516 337.445 903.342V912.099H334.821V888.83H337.445V899.105ZM356.034 912.099H353.409V888.83H356.034V912.099ZM365.834 912.226L359.448 896.196H362.198L367.257 909.191H367.32L372.094 896.196H374.813L368.395 912.574C366.941 916.368 365.676 917.948 362.768 917.98C362.325 917.98 361.724 917.917 361.218 917.822V915.672C361.724 915.799 362.072 915.799 362.483 915.799C364.064 915.799 364.791 914.913 365.834 912.226ZM393.318 903.026H387.627V912.099H384.94V889.525H393.286C398.313 889.525 401.222 891.833 401.222 896.26C401.222 900.718 398.313 903.026 393.318 903.026ZM387.627 900.749H393.223C396.638 900.749 398.503 899.326 398.503 896.26C398.503 893.193 396.638 891.802 393.223 891.802H387.627V900.749ZM414.559 912.099C414.37 911.214 414.275 910.171 414.275 909.412C413.579 911.277 411.398 912.447 408.742 912.447C405.96 912.447 403.588 910.835 403.588 907.894C403.588 904.828 405.865 903.5 409.09 903.12L414.211 902.456V901.54C414.211 899.01 412.662 897.935 410.481 897.935C408.362 897.935 407.035 899.042 406.845 900.876H404.316C404.632 897.651 407.161 895.817 410.544 895.817C414.401 895.817 416.804 897.651 416.804 901.476V908.78C416.804 909.95 416.867 911.056 417.183 912.099H414.559ZM409.279 910.455C411.745 910.455 414.211 908.906 414.211 905.839V904.417L409.88 904.891C407.888 905.175 406.244 905.681 406.244 907.831C406.244 909.317 407.288 910.455 409.279 910.455ZM426.262 912.226L419.875 896.196H422.626L427.685 909.191H427.748L432.522 896.196H435.241L428.823 912.574C427.369 916.368 426.104 917.948 423.195 917.98C422.753 917.98 422.152 917.917 421.646 917.822V915.672C422.152 915.799 422.5 915.799 422.911 915.799C424.491 915.799 425.219 914.913 426.262 912.226ZM451.057 899.232C452.037 897.082 454.06 895.817 456.4 895.817C460.067 895.817 461.869 898.125 461.869 901.856V912.099H459.214V902.425C459.214 899.453 458.139 897.967 455.767 897.967C453.396 897.967 451.594 899.674 451.594 903.342V912.099H448.938V902.425C448.938 899.453 447.895 897.967 445.492 897.967C443.089 897.967 441.287 899.674 441.287 903.342V912.099H438.663V896.196H441.192V899.105C441.951 897.082 443.911 895.817 446.219 895.817C448.907 895.817 450.361 897.113 451.057 899.232ZM480.096 907.42C479.369 910.803 476.618 912.479 473.52 912.479C469.03 912.479 465.869 909.349 465.869 904.227C465.869 899.042 469.125 895.817 473.362 895.817C478.073 895.817 480.191 899.579 480.191 903.658V904.701H468.43C468.556 908.369 470.485 910.392 473.52 910.392C475.67 910.392 476.966 909.349 477.63 907.42H480.096ZM473.362 897.935C470.864 897.935 468.967 899.548 468.525 902.804H477.63C477.567 900.054 476.207 897.935 473.362 897.935ZM486.89 896.196V899.105C487.649 897.145 489.641 895.817 492.075 895.817C495.648 895.817 497.766 898.062 497.766 901.856V912.099H495.142V902.425C495.142 899.485 493.846 897.967 491.348 897.967C488.914 897.967 486.985 899.516 486.985 903.342V912.099H484.361V896.196H486.89ZM510.347 909.76V911.91C509.177 912.258 508.26 912.352 507.565 912.352C504.656 912.352 503.17 910.961 503.17 908.021V898.188H500.831V896.196H503.17V892.15H505.763V896.196H509.936V898.188H505.731V907.894C505.731 909.57 506.585 910.139 508.039 910.139C508.64 910.139 509.335 910.076 510.347 909.76Z" fill="#1A1A1A"/>
<path d="M257.574 950.127C257.574 944.207 260.645 939.919 265.431 939.919C270.245 939.919 273.288 944.207 273.288 950.127C273.288 956.048 270.245 960.335 265.431 960.335C260.645 960.335 257.574 956.048 257.574 950.127ZM260.009 950.127C260.009 954.969 261.835 958.288 265.431 958.288C269.055 958.288 270.881 954.969 270.881 950.127C270.881 945.286 269.055 941.966 265.431 941.966C261.835 941.966 260.009 945.286 260.009 950.127ZM275.494 944.761V943.156C278.869 943.156 280.086 942.215 280.557 940.168H282.023V960.003H279.644V944.761H275.494ZM296.409 940.251L306.949 956.02H307.004V940.251H309.301V960.003H307.087L295.856 943.156H295.8V960.003H293.477V940.251H296.409ZM326.557 953.06C326.557 957.541 323.791 960.335 319.945 960.335C316.1 960.335 313.334 957.541 313.334 953.06C313.334 948.578 316.1 945.756 319.945 945.756C323.791 945.756 326.557 948.578 326.557 953.06ZM315.602 953.06C315.602 956.407 317.234 958.482 319.945 958.482C322.656 958.482 324.289 956.407 324.289 953.06C324.289 949.712 322.656 947.61 319.945 947.61C317.234 947.61 315.602 949.712 315.602 953.06ZM333.872 960.003L328.312 946.088H330.663L335.145 957.735H335.2L339.488 946.088H341.784L336.445 960.003H333.872ZM363.051 945.673C363.051 949.38 359.98 951.04 357.02 952.949C354.613 954.554 352.234 956.213 352.234 958.012H363.245V960.003H349.689V958.925C349.689 955.411 353.092 952.949 356.024 951.123C358.652 949.436 360.782 947.97 360.782 945.673C360.782 943.792 359.704 941.911 356.771 941.911C354.06 941.911 352.483 943.958 352.317 946.337H350.076C350.27 942.852 352.649 939.919 356.799 939.919C360.948 939.919 363.051 942.741 363.051 945.673ZM365.908 950.127C365.908 944.207 368.978 939.919 373.764 939.919C378.578 939.919 381.621 944.207 381.621 950.127C381.621 956.048 378.578 960.335 373.764 960.335C368.978 960.335 365.908 956.048 365.908 950.127ZM368.342 950.127C368.342 954.969 370.168 958.288 373.764 958.288C377.388 958.288 379.214 954.969 379.214 950.127C379.214 945.286 377.388 941.966 373.764 941.966C370.168 941.966 368.342 945.286 368.342 950.127ZM397.604 945.673C397.604 949.38 394.533 951.04 391.573 952.949C389.166 954.554 386.787 956.213 386.787 958.012H397.798V960.003H384.242V958.925C384.242 955.411 387.645 952.949 390.577 951.123C393.205 949.436 395.336 947.97 395.336 945.673C395.336 943.792 394.257 941.911 391.324 941.911C388.613 941.911 387.036 943.958 386.87 946.337H384.63C384.823 942.852 387.202 939.919 391.352 939.919C395.502 939.919 397.604 942.741 397.604 945.673ZM414.265 954.637C414.265 957.707 411.803 960.335 407.377 960.335C403.144 960.335 400.405 957.956 400.129 954.222H402.453C402.619 956.684 404.361 958.399 407.377 958.399C410.254 958.399 412.024 956.933 412.024 954.554C412.024 952.258 410.309 950.957 407.709 950.957H405.551V949.021H407.626C409.701 949.021 411.499 948.108 411.499 945.563C411.499 943.543 410.171 941.856 407.46 941.856C404.638 941.856 403.061 943.82 402.923 946.171H400.682C400.903 942.741 403.2 939.919 407.46 939.919C411.692 939.919 413.795 942.603 413.795 945.535C413.795 947.97 412.19 949.657 410.254 949.934C412.605 950.293 414.265 952.175 414.265 954.637Z" fill="#757575"/>
<path d="M1308.05 905.903C1308.05 909.475 1304.98 912.131 1300.68 912.384V915.546H1298.78V912.352C1294.61 912.005 1291.13 909.697 1290.88 905.46H1293.41C1293.69 908.464 1296 909.886 1298.78 910.202V901.793L1297.2 901.476C1294.23 900.876 1291.61 899.485 1291.61 895.596C1291.61 892.023 1294.48 889.367 1298.78 889.178V886.206H1300.68V889.241C1304.63 889.62 1307.19 891.644 1307.57 895.28H1305.08C1304.79 893.066 1303.18 891.802 1300.68 891.486V899.643L1302.52 899.99C1305.9 900.686 1308.05 902.362 1308.05 905.903ZM1298.03 899.105L1298.78 899.263V891.422C1295.81 891.581 1294.11 893.256 1294.11 895.501C1294.11 897.746 1295.34 898.568 1298.03 899.105ZM1301.5 902.298L1300.68 902.14V910.234C1303.59 910.013 1305.52 908.495 1305.52 906.029C1305.52 904.132 1304.54 902.868 1301.5 902.298ZM1326.24 895.722C1326.24 899.959 1322.73 901.856 1319.35 904.037C1316.6 905.871 1313.88 907.768 1313.88 909.823H1326.46V912.099H1310.97V910.866C1310.97 906.851 1314.86 904.037 1318.21 901.951C1321.22 900.022 1323.65 898.346 1323.65 895.722C1323.65 893.572 1322.42 891.422 1319.07 891.422C1315.97 891.422 1314.17 893.762 1313.98 896.481H1311.42C1311.64 892.497 1314.36 889.146 1319.1 889.146C1323.84 889.146 1326.24 892.371 1326.24 895.722ZM1328.65 894.679V892.845C1332.51 892.845 1333.9 891.77 1334.44 889.431H1336.12V912.099H1333.4V894.679H1328.65ZM1348.84 899.295C1346.47 899.295 1344.89 900.465 1344.03 901.824H1341.6L1342.87 889.525H1355.57V891.833H1344.83L1344.07 899.295C1345.02 898.093 1346.98 897.082 1349.06 897.082C1353.77 897.082 1356.71 900.496 1356.71 904.764C1356.71 909.064 1353.77 912.479 1348.84 912.479C1344.29 912.479 1341.03 909.76 1340.68 905.397H1343.37C1343.59 908.274 1345.68 910.266 1348.87 910.266C1352.41 910.266 1354.09 907.642 1354.09 904.764C1354.09 901.887 1352.41 899.295 1348.84 899.295ZM1360.3 912.099V908.653H1363.74V912.099H1360.3ZM1366.9 900.812C1366.9 894.047 1370.41 889.146 1375.88 889.146C1381.38 889.146 1384.86 894.047 1384.86 900.812C1384.86 907.578 1381.38 912.479 1375.88 912.479C1370.41 912.479 1366.9 907.578 1366.9 900.812ZM1369.69 900.812C1369.69 906.345 1371.77 910.139 1375.88 910.139C1380.02 910.139 1382.11 906.345 1382.11 900.812C1382.11 895.28 1380.02 891.486 1375.88 891.486C1371.77 891.486 1369.69 895.28 1369.69 900.812ZM1388.02 900.812C1388.02 894.047 1391.53 889.146 1397 889.146C1402.5 889.146 1405.98 894.047 1405.98 900.812C1405.98 907.578 1402.5 912.479 1397 912.479C1391.53 912.479 1388.02 907.578 1388.02 900.812ZM1390.8 900.812C1390.8 906.345 1392.89 910.139 1397 910.139C1401.14 910.139 1403.23 906.345 1403.23 900.812C1403.23 895.28 1401.14 891.486 1397 891.486C1392.89 891.486 1390.8 895.28 1390.8 900.812Z" fill="#009221"/>
<path d="M1321.59 954.581C1321.59 957.707 1318.91 960.031 1315.15 960.252V963.019H1313.49V960.225C1309.84 959.92 1306.79 957.901 1306.57 954.194H1308.78C1309.03 956.822 1311.05 958.067 1313.49 958.344V950.985L1312.1 950.708C1309.5 950.183 1307.21 948.965 1307.21 945.563C1307.21 942.437 1309.73 940.113 1313.49 939.947V937.347H1315.15V940.002C1318.61 940.334 1320.85 942.105 1321.18 945.286H1318.99C1318.74 943.35 1317.33 942.243 1315.15 941.966V949.104L1316.75 949.408C1319.71 950.017 1321.59 951.483 1321.59 954.581ZM1312.82 948.634L1313.49 948.772V941.911C1310.89 942.049 1309.39 943.516 1309.39 945.48C1309.39 947.444 1310.47 948.163 1312.82 948.634ZM1315.87 951.428L1315.15 951.289V958.371C1317.69 958.178 1319.38 956.85 1319.38 954.692C1319.38 953.032 1318.52 951.926 1315.87 951.428ZM1337.76 945.673C1337.76 949.38 1334.69 951.04 1331.73 952.949C1329.32 954.554 1326.94 956.213 1326.94 958.012H1337.95V960.003H1324.39V958.925C1324.39 955.411 1327.8 952.949 1330.73 951.123C1333.36 949.436 1335.49 947.97 1335.49 945.673C1335.49 943.792 1334.41 941.911 1331.48 941.911C1328.77 941.911 1327.19 943.958 1327.02 946.337H1324.78C1324.98 942.852 1327.35 939.919 1331.5 939.919C1335.65 939.919 1337.76 942.741 1337.76 945.673ZM1351.15 942.271H1339.87V940.251H1353.75V941.939C1349.05 947.638 1347.39 953.281 1347.31 960.003H1344.82C1344.9 953.004 1347.42 947.029 1351.15 942.271ZM1355.61 944.761V943.156C1358.99 943.156 1360.21 942.215 1360.68 940.168H1362.14V960.003H1359.76V944.761H1355.61ZM1367.63 960.003V956.988H1370.65V960.003H1367.63ZM1381.4 941.911C1377.75 941.911 1375.84 945.701 1375.84 950.819C1376.48 948.772 1378.41 946.808 1381.43 946.808C1385.33 946.808 1387.96 949.685 1387.96 953.475C1387.96 957.458 1385.24 960.335 1381.12 960.335C1376.75 960.335 1373.63 956.518 1373.63 950.459C1373.63 944.207 1376.89 939.919 1381.43 939.919C1384.94 939.919 1387.32 941.994 1387.76 945.314H1385.58C1385.11 943.073 1383.75 941.911 1381.4 941.911ZM1381.12 958.399C1383.94 958.399 1385.72 956.324 1385.72 953.558C1385.72 950.764 1383.94 948.744 1381.12 948.744C1378.36 948.744 1376.48 950.764 1376.48 953.558C1376.48 956.324 1378.36 958.399 1381.12 958.399ZM1402.56 940.251V952.672H1406.8V954.581H1402.56V960.003H1400.24V954.581H1390.45V952.645L1399.88 940.251H1402.56ZM1400.24 942.713L1392.74 952.672H1400.24V942.713Z" fill="#757575"/>
</g>
<g opacity="0.8">
<rect width="1286.38" height="132.393" transform="translate(153.328 589.602)" fill="white"/>
<mask id="path-27-inside-4_436_3271" fill="white">
<path d="M153.328 589.602H1439.71V721.995H153.328V589.602Z"/>
</mask>
<path d="M153.328 589.602H1439.71V721.995H153.328V589.602Z" fill="white"/>
<path d="M1439.71 721.995V720.019H153.328V721.995V723.971H1439.71V721.995Z" fill="#E2E2E2" mask="url(#path-27-inside-4_436_3271)"/>
<path d="M194.088 626.051L196.188 623.951L212.86 640.624L212.86 625.927L215.824 625.927L215.824 645.687L196.064 645.687L196.064 642.723L210.761 642.723L194.088 626.051Z" fill="#009221"/>
<path d="M271.225 647.314H269.012L261.677 627.522H261.613V647.314H259.021V624.74H263.226L270.181 643.773H270.245L277.2 624.74H281.247V647.314H278.623V627.522H278.56L271.225 647.314ZM300.657 639.379C300.657 644.5 297.495 647.694 293.101 647.694C288.706 647.694 285.544 644.5 285.544 639.379C285.544 634.257 288.706 631.032 293.101 631.032C297.495 631.032 300.657 634.257 300.657 639.379ZM288.137 639.379C288.137 643.204 290.002 645.575 293.101 645.575C296.199 645.575 298.064 643.204 298.064 639.379C298.064 635.553 296.199 633.15 293.101 633.15C290.002 633.15 288.137 635.553 288.137 639.379ZM307.368 631.411V634.32C308.127 632.36 310.119 631.032 312.553 631.032C316.126 631.032 318.244 633.277 318.244 637.071V647.314H315.62V637.64C315.62 634.699 314.324 633.182 311.826 633.182C309.392 633.182 307.463 634.731 307.463 638.557V647.314H304.839V631.411H307.368ZM330.825 644.975V647.125C329.656 647.472 328.739 647.567 328.043 647.567C325.134 647.567 323.648 646.176 323.648 643.236V633.403H321.309V631.411H323.648V627.364H326.241V631.411H330.414V633.403H326.209V643.109C326.209 644.785 327.063 645.354 328.517 645.354C329.118 645.354 329.814 645.291 330.825 644.975ZM337.445 634.32C338.204 632.297 340.101 631.032 342.536 631.032C346.108 631.032 348.227 633.277 348.227 637.071V647.314H345.602V637.64C345.602 634.699 344.306 633.182 341.809 633.182C339.374 633.182 337.445 634.731 337.445 638.557V647.314H334.821V624.045H337.445V634.32ZM356.034 647.314H353.409V624.045H356.034V647.314ZM365.834 647.441L359.448 631.411H362.198L367.257 644.406H367.32L372.094 631.411H374.813L368.395 647.788C366.941 651.582 365.676 653.163 362.768 653.195C362.325 653.195 361.724 653.132 361.218 653.037V650.887C361.724 651.013 362.072 651.013 362.483 651.013C364.064 651.013 364.791 650.128 365.834 647.441ZM393.318 638.24H387.627V647.314H384.94V624.74H393.286C398.313 624.74 401.222 627.048 401.222 631.475C401.222 635.932 398.313 638.24 393.318 638.24ZM387.627 635.964H393.223C396.638 635.964 398.503 634.541 398.503 631.475C398.503 628.408 396.638 627.017 393.223 627.017H387.627V635.964ZM414.559 647.314C414.37 646.429 414.275 645.386 414.275 644.627C413.579 646.492 411.398 647.662 408.742 647.662C405.96 647.662 403.588 646.05 403.588 643.109C403.588 640.042 405.865 638.715 409.09 638.335L414.211 637.671V636.754C414.211 634.225 412.662 633.15 410.481 633.15C408.362 633.15 407.035 634.257 406.845 636.09H404.316C404.632 632.866 407.161 631.032 410.544 631.032C414.401 631.032 416.804 632.866 416.804 636.691V643.995C416.804 645.164 416.867 646.271 417.183 647.314H414.559ZM409.279 645.67C411.745 645.67 414.211 644.121 414.211 641.054V639.631L409.88 640.106C407.888 640.39 406.244 640.896 406.244 643.046C406.244 644.532 407.288 645.67 409.279 645.67ZM426.262 647.441L419.875 631.411H422.626L427.685 644.406H427.748L432.522 631.411H435.241L428.823 647.788C427.369 651.582 426.104 653.163 423.195 653.195C422.753 653.195 422.152 653.132 421.646 653.037V650.887C422.152 651.013 422.5 651.013 422.911 651.013C424.491 651.013 425.219 650.128 426.262 647.441ZM451.057 634.446C452.037 632.297 454.06 631.032 456.4 631.032C460.067 631.032 461.869 633.34 461.869 637.071V647.314H459.214V637.64C459.214 634.668 458.139 633.182 455.767 633.182C453.396 633.182 451.594 634.889 451.594 638.557V647.314H448.938V637.64C448.938 634.668 447.895 633.182 445.492 633.182C443.089 633.182 441.287 634.889 441.287 638.557V647.314H438.663V631.411H441.192V634.32C441.951 632.297 443.911 631.032 446.219 631.032C448.907 631.032 450.361 632.328 451.057 634.446ZM480.096 642.635C479.369 646.018 476.618 647.694 473.52 647.694C469.03 647.694 465.869 644.564 465.869 639.442C465.869 634.257 469.125 631.032 473.362 631.032C478.073 631.032 480.191 634.794 480.191 638.873V639.916H468.43C468.556 643.584 470.485 645.607 473.52 645.607C475.67 645.607 476.966 644.564 477.63 642.635H480.096ZM473.362 633.15C470.864 633.15 468.967 634.763 468.525 638.019H477.63C477.567 635.268 476.207 633.15 473.362 633.15ZM486.89 631.411V634.32C487.649 632.36 489.641 631.032 492.075 631.032C495.648 631.032 497.766 633.277 497.766 637.071V647.314H495.142V637.64C495.142 634.699 493.846 633.182 491.348 633.182C488.914 633.182 486.985 634.731 486.985 638.557V647.314H484.361V631.411H486.89ZM510.347 644.975V647.125C509.177 647.472 508.26 647.567 507.565 647.567C504.656 647.567 503.17 646.176 503.17 643.236V633.403H500.831V631.411H503.17V627.364H505.763V631.411H509.936V633.403H505.731V643.109C505.731 644.785 506.585 645.354 508.039 645.354C508.64 645.354 509.335 645.291 510.347 644.975Z" fill="#1A1A1A"/>
<path d="M257.574 685.342C257.574 679.422 260.645 675.134 265.431 675.134C270.245 675.134 273.288 679.422 273.288 685.342C273.288 691.262 270.245 695.55 265.431 695.55C260.645 695.55 257.574 691.262 257.574 685.342ZM260.009 685.342C260.009 690.183 261.835 693.503 265.431 693.503C269.055 693.503 270.881 690.183 270.881 685.342C270.881 680.501 269.055 677.181 265.431 677.181C261.835 677.181 260.009 680.501 260.009 685.342ZM275.494 679.975V678.371C278.869 678.371 280.086 677.43 280.557 675.383H282.023V695.218H279.644V679.975H275.494ZM310.269 685.342C310.269 691.29 306.755 695.55 301.278 695.55C295.8 695.55 292.287 691.29 292.287 685.342C292.287 679.422 295.8 675.134 301.278 675.134C306.755 675.134 310.269 679.422 310.269 685.342ZM307.807 685.342C307.807 680.584 305.594 677.154 301.278 677.154C296.935 677.154 294.722 680.584 294.722 685.342C294.722 690.128 296.935 693.531 301.278 693.531C305.594 693.531 307.807 690.128 307.807 685.342ZM313.091 688.275C313.091 683.821 315.774 680.971 319.647 680.971C322.745 680.971 324.792 682.742 325.235 685.702H323.05C322.662 683.848 321.528 682.825 319.647 682.825C316.908 682.825 315.359 685.01 315.359 688.275C315.359 691.539 316.908 693.697 319.647 693.697C321.528 693.697 322.662 692.673 323.05 690.82H325.235C324.792 693.807 322.745 695.55 319.647 695.55C315.774 695.55 313.091 692.728 313.091 688.275ZM335.5 693.171V695.052C334.477 695.357 333.674 695.44 333.066 695.44C330.521 695.44 329.22 694.222 329.22 691.65V683.046H327.173V681.303H329.22V677.762H331.489V681.303H335.141V683.046H331.461V691.539C331.461 693.005 332.208 693.503 333.481 693.503C334.006 693.503 334.615 693.448 335.5 693.171ZM357.242 680.888C357.242 684.595 354.172 686.255 351.212 688.164C348.805 689.768 346.426 691.428 346.426 693.226H357.436V695.218H343.881V694.139C343.881 690.626 347.283 688.164 350.216 686.338C352.844 684.651 354.974 683.184 354.974 680.888C354.974 679.007 353.895 677.126 350.963 677.126C348.252 677.126 346.675 679.173 346.509 681.552H344.268C344.462 678.066 346.841 675.134 350.99 675.134C355.14 675.134 357.242 677.956 357.242 680.888ZM360.099 685.342C360.099 679.422 363.17 675.134 367.956 675.134C372.769 675.134 375.812 679.422 375.812 685.342C375.812 691.262 372.769 695.55 367.956 695.55C363.17 695.55 360.099 691.262 360.099 685.342ZM362.534 685.342C362.534 690.183 364.36 693.503 367.956 693.503C371.58 693.503 373.406 690.183 373.406 685.342C373.406 680.501 371.58 677.181 367.956 677.181C364.36 677.181 362.534 680.501 362.534 685.342ZM391.796 680.888C391.796 684.595 388.725 686.255 385.765 688.164C383.358 689.768 380.979 691.428 380.979 693.226H391.989V695.218H378.434V694.139C378.434 690.626 381.837 688.164 384.769 686.338C387.397 684.651 389.527 683.184 389.527 680.888C389.527 679.007 388.448 677.126 385.516 677.126C382.805 677.126 381.228 679.173 381.062 681.552H378.821C379.015 678.066 381.394 675.134 385.544 675.134C389.693 675.134 391.796 677.956 391.796 680.888ZM408.457 689.851C408.457 692.922 405.995 695.55 401.568 695.55C397.336 695.55 394.597 693.171 394.32 689.436H396.644C396.81 691.899 398.553 693.614 401.568 693.614C404.445 693.614 406.216 692.148 406.216 689.768C406.216 687.472 404.501 686.172 401.9 686.172H399.743V684.236H401.817C403.892 684.236 405.69 683.323 405.69 680.778C405.69 678.758 404.362 677.071 401.651 677.071C398.83 677.071 397.253 679.035 397.114 681.386H394.874C395.095 677.956 397.391 675.134 401.651 675.134C405.884 675.134 407.987 677.818 407.987 680.75C407.987 683.184 406.382 684.872 404.445 685.149C406.797 685.508 408.457 687.389 408.457 689.851Z" fill="#757575"/>
<path d="M1308.05 641.117C1308.05 644.69 1304.98 647.346 1300.68 647.599V650.76H1298.78V647.567C1294.61 647.219 1291.13 644.911 1290.88 640.675H1293.41C1293.69 643.678 1296 645.101 1298.78 645.417V637.007L1297.2 636.691C1294.23 636.09 1291.61 634.699 1291.61 630.811C1291.61 627.238 1294.48 624.582 1298.78 624.392V621.421H1300.68V624.456C1304.63 624.835 1307.19 626.859 1307.57 630.494H1305.08C1304.79 628.281 1303.18 627.017 1300.68 626.7V634.857L1302.52 635.205C1305.9 635.901 1308.05 637.576 1308.05 641.117ZM1298.03 634.32L1298.78 634.478V626.637C1295.81 626.795 1294.11 628.471 1294.11 630.716C1294.11 632.96 1295.34 633.782 1298.03 634.32ZM1301.5 637.513L1300.68 637.355V645.449C1303.59 645.228 1305.52 643.71 1305.52 641.244C1305.52 639.347 1304.54 638.082 1301.5 637.513ZM1326.24 630.937C1326.24 635.174 1322.73 637.071 1319.35 639.252C1316.6 641.086 1313.88 642.983 1313.88 645.038H1326.46V647.314H1310.97V646.081C1310.97 642.066 1314.86 639.252 1318.21 637.165C1321.22 635.237 1323.65 633.561 1323.65 630.937C1323.65 628.787 1322.42 626.637 1319.07 626.637C1315.97 626.637 1314.17 628.977 1313.98 631.696H1311.42C1311.64 627.712 1314.36 624.361 1319.1 624.361C1323.84 624.361 1326.24 627.586 1326.24 630.937ZM1328.65 629.894V628.06C1332.51 628.06 1333.9 626.985 1334.44 624.645H1336.12V647.314H1333.4V629.894H1328.65ZM1348.84 634.51C1346.47 634.51 1344.89 635.679 1344.03 637.039H1341.6L1342.87 624.74H1355.57V627.048H1344.83L1344.07 634.51C1345.02 633.308 1346.98 632.297 1349.06 632.297C1353.77 632.297 1356.71 635.711 1356.71 639.979C1356.71 644.279 1353.77 647.694 1348.84 647.694C1344.29 647.694 1341.03 644.975 1340.68 640.612H1343.37C1343.59 643.489 1345.68 645.48 1348.87 645.48C1352.41 645.48 1354.09 642.856 1354.09 639.979C1354.09 637.102 1352.41 634.51 1348.84 634.51ZM1360.3 647.314V643.868H1363.74V647.314H1360.3ZM1366.9 636.027C1366.9 629.261 1370.41 624.361 1375.88 624.361C1381.38 624.361 1384.86 629.261 1384.86 636.027C1384.86 642.793 1381.38 647.694 1375.88 647.694C1370.41 647.694 1366.9 642.793 1366.9 636.027ZM1369.69 636.027C1369.69 641.56 1371.77 645.354 1375.88 645.354C1380.02 645.354 1382.11 641.56 1382.11 636.027C1382.11 630.494 1380.02 626.7 1375.88 626.7C1371.77 626.7 1369.69 630.494 1369.69 636.027ZM1388.02 636.027C1388.02 629.261 1391.53 624.361 1397 624.361C1402.5 624.361 1405.98 629.261 1405.98 636.027C1405.98 642.793 1402.5 647.694 1397 647.694C1391.53 647.694 1388.02 642.793 1388.02 636.027ZM1390.8 636.027C1390.8 641.56 1392.89 645.354 1397 645.354C1401.14 645.354 1403.23 641.56 1403.23 636.027C1403.23 630.494 1401.14 626.7 1397 626.7C1392.89 626.7 1390.8 630.494 1390.8 636.027Z" fill="#009221"/>
<path d="M1316.81 689.796C1316.81 692.922 1314.13 695.246 1310.37 695.467V698.234H1308.71V695.44C1305.05 695.135 1302.01 693.116 1301.79 689.409H1304C1304.25 692.037 1306.27 693.282 1308.71 693.558V686.2L1307.32 685.923C1304.72 685.397 1302.43 684.18 1302.43 680.778C1302.43 677.652 1304.94 675.328 1308.71 675.162V672.561H1310.37V675.217C1313.82 675.549 1316.06 677.32 1316.4 680.501H1314.21C1313.96 678.564 1312.55 677.458 1310.37 677.181V684.319L1311.97 684.623C1314.93 685.232 1316.81 686.698 1316.81 689.796ZM1308.04 683.848L1308.71 683.987V677.126C1306.11 677.264 1304.61 678.73 1304.61 680.695C1304.61 682.659 1305.69 683.378 1308.04 683.848ZM1311.08 686.642L1310.37 686.504V693.586C1312.91 693.392 1314.6 692.065 1314.6 689.907C1314.6 688.247 1313.74 687.14 1311.08 686.642ZM1327.33 675.134C1331.04 675.134 1333.86 677.181 1333.86 680.584C1333.86 682.825 1332.56 684.429 1330.6 685.204C1332.7 685.591 1334.74 687.5 1334.74 689.824C1334.74 693.226 1331.87 695.55 1327.33 695.55C1322.85 695.55 1319.94 693.226 1319.94 689.824C1319.94 687.5 1321.99 685.591 1324.09 685.204C1322.16 684.429 1320.83 682.825 1320.83 680.584C1320.83 677.181 1323.65 675.134 1327.33 675.134ZM1327.33 684.18C1329.71 684.18 1331.67 683.018 1331.67 680.584C1331.67 678.177 1329.71 677.015 1327.33 677.015C1324.98 677.015 1323.02 678.177 1323.02 680.584C1323.02 683.018 1324.98 684.18 1327.33 684.18ZM1327.33 693.641C1330.48 693.641 1332.37 692.148 1332.37 689.824C1332.37 687.528 1330.48 686.089 1327.33 686.089C1324.23 686.089 1322.32 687.528 1322.32 689.824C1322.32 692.148 1324.23 693.641 1327.33 693.641ZM1337.7 685.342C1337.7 679.422 1340.77 675.134 1345.55 675.134C1350.37 675.134 1353.41 679.422 1353.41 685.342C1353.41 691.262 1350.37 695.55 1345.55 695.55C1340.77 695.55 1337.7 691.262 1337.7 685.342ZM1340.13 685.342C1340.13 690.183 1341.96 693.503 1345.55 693.503C1349.18 693.503 1351 690.183 1351 685.342C1351 680.501 1349.18 677.181 1345.55 677.181C1341.96 677.181 1340.13 680.501 1340.13 685.342ZM1355.61 679.975V678.371C1358.99 678.371 1360.21 677.43 1360.68 675.383H1362.14V695.218H1359.76V679.975H1355.61ZM1367.63 695.218V692.203H1370.65V695.218H1367.63ZM1381.4 677.126C1377.75 677.126 1375.84 680.916 1375.84 686.034C1376.48 683.987 1378.41 682.022 1381.43 682.022C1385.33 682.022 1387.96 684.9 1387.96 688.69C1387.96 692.673 1385.24 695.55 1381.12 695.55C1376.75 695.55 1373.63 691.733 1373.63 685.674C1373.63 679.422 1376.89 675.134 1381.43 675.134C1384.94 675.134 1387.32 677.209 1387.76 680.529H1385.58C1385.11 678.288 1383.75 677.126 1381.4 677.126ZM1381.12 693.614C1383.94 693.614 1385.72 691.539 1385.72 688.773C1385.72 685.978 1383.94 683.959 1381.12 683.959C1378.36 683.959 1376.48 685.978 1376.48 688.773C1376.48 691.539 1378.36 693.614 1381.12 693.614ZM1402.56 675.466V687.887H1406.8V689.796H1402.56V695.218H1400.24V689.796H1390.45V687.86L1399.88 675.466H1402.56ZM1400.24 677.928L1392.74 687.887H1400.24V677.928Z" fill="#757575"/>
</g>
<g opacity="0.8">
<rect width="1286.38" height="132.393" transform="translate(153.328 721.995)" fill="white"/>
<mask id="path-34-inside-5_436_3271" fill="white">
<path d="M153.328 721.995H1439.71V854.387H153.328V721.995Z"/>
</mask>
<path d="M153.328 721.995H1439.71V854.387H153.328V721.995Z" fill="white"/>
<path d="M1439.71 854.387V852.411H153.328V854.387V856.363H1439.71V854.387Z" fill="#E2E2E2" mask="url(#path-34-inside-5_436_3271)"/>
<path d="M194.088 758.443L196.188 756.344L212.86 773.016L212.86 758.32L215.824 758.32L215.824 778.08L196.064 778.08L196.064 775.116L210.761 775.116L194.088 758.443Z" fill="#009221"/>
<path d="M271.225 779.707H269.012L261.677 759.915H261.613V779.707H259.021V757.133H263.226L270.181 776.166H270.245L277.2 757.133H281.247V779.707H278.623V759.915H278.56L271.225 779.707ZM300.657 771.771C300.657 776.893 297.495 780.086 293.101 780.086C288.706 780.086 285.544 776.893 285.544 771.771C285.544 766.649 288.706 763.424 293.101 763.424C297.495 763.424 300.657 766.649 300.657 771.771ZM288.137 771.771C288.137 775.597 290.002 777.968 293.101 777.968C296.199 777.968 298.064 775.597 298.064 771.771C298.064 767.946 296.199 765.543 293.101 765.543C290.002 765.543 288.137 767.946 288.137 771.771ZM307.368 763.804V766.713C308.127 764.752 310.119 763.424 312.553 763.424C316.126 763.424 318.244 765.669 318.244 769.463V779.707H315.62V770.032C315.62 767.092 314.324 765.574 311.826 765.574C309.392 765.574 307.463 767.124 307.463 770.949V779.707H304.839V763.804H307.368ZM330.825 777.367V779.517C329.656 779.865 328.739 779.96 328.043 779.96C325.134 779.96 323.648 778.569 323.648 775.628V765.796H321.309V763.804H323.648V759.757H326.241V763.804H330.414V765.796H326.209V775.502C326.209 777.177 327.063 777.747 328.517 777.747C329.118 777.747 329.814 777.683 330.825 777.367ZM337.445 766.713C338.204 764.689 340.101 763.424 342.536 763.424C346.108 763.424 348.227 765.669 348.227 769.463V779.707H345.602V770.032C345.602 767.092 344.306 765.574 341.809 765.574C339.374 765.574 337.445 767.124 337.445 770.949V779.707H334.821V756.437H337.445V766.713ZM356.034 779.707H353.409V756.437H356.034V779.707ZM365.834 779.833L359.448 763.804H362.198L367.257 776.798H367.32L372.094 763.804H374.813L368.395 780.181C366.941 783.975 365.676 785.556 362.768 785.587C362.325 785.587 361.724 785.524 361.218 785.429V783.279C361.724 783.406 362.072 783.406 362.483 783.406C364.064 783.406 364.791 782.521 365.834 779.833ZM393.318 770.633H387.627V779.707H384.94V757.133H393.286C398.313 757.133 401.222 759.441 401.222 763.867C401.222 768.325 398.313 770.633 393.318 770.633ZM387.627 768.357H393.223C396.638 768.357 398.503 766.934 398.503 763.867C398.503 760.8 396.638 759.409 393.223 759.409H387.627V768.357ZM414.559 779.707C414.37 778.822 414.275 777.778 414.275 777.019C413.579 778.885 411.398 780.055 408.742 780.055C405.96 780.055 403.588 778.442 403.588 775.502C403.588 772.435 405.865 771.107 409.09 770.728L414.211 770.064V769.147C414.211 766.618 412.662 765.543 410.481 765.543C408.362 765.543 407.035 766.649 406.845 768.483H404.316C404.632 765.258 407.161 763.424 410.544 763.424C414.401 763.424 416.804 765.258 416.804 769.084V776.387C416.804 777.557 416.867 778.663 417.183 779.707H414.559ZM409.279 778.063C411.745 778.063 414.211 776.514 414.211 773.447V772.024L409.88 772.498C407.888 772.783 406.244 773.289 406.244 775.439C406.244 776.925 407.288 778.063 409.279 778.063ZM426.262 779.833L419.875 763.804H422.626L427.685 776.798H427.748L432.522 763.804H435.241L428.823 780.181C427.369 783.975 426.104 785.556 423.195 785.587C422.753 785.587 422.152 785.524 421.646 785.429V783.279C422.152 783.406 422.5 783.406 422.911 783.406C424.491 783.406 425.219 782.521 426.262 779.833ZM451.057 766.839C452.037 764.689 454.06 763.424 456.4 763.424C460.067 763.424 461.869 765.732 461.869 769.463V779.707H459.214V770.032C459.214 767.06 458.139 765.574 455.767 765.574C453.396 765.574 451.594 767.282 451.594 770.949V779.707H448.938V770.032C448.938 767.06 447.895 765.574 445.492 765.574C443.089 765.574 441.287 767.282 441.287 770.949V779.707H438.663V763.804H441.192V766.713C441.951 764.689 443.911 763.424 446.219 763.424C448.907 763.424 450.361 764.721 451.057 766.839ZM480.096 775.028C479.369 778.411 476.618 780.086 473.52 780.086C469.03 780.086 465.869 776.956 465.869 771.834C465.869 766.649 469.125 763.424 473.362 763.424C478.073 763.424 480.191 767.187 480.191 771.265V772.309H468.43C468.556 775.976 470.485 778 473.52 778C475.67 778 476.966 776.956 477.63 775.028H480.096ZM473.362 765.543C470.864 765.543 468.967 767.155 468.525 770.412H477.63C477.567 767.661 476.207 765.543 473.362 765.543ZM486.89 763.804V766.713C487.649 764.752 489.641 763.424 492.075 763.424C495.648 763.424 497.766 765.669 497.766 769.463V779.707H495.142V770.032C495.142 767.092 493.846 765.574 491.348 765.574C488.914 765.574 486.985 767.124 486.985 770.949V779.707H484.361V763.804H486.89ZM510.347 777.367V779.517C509.177 779.865 508.26 779.96 507.565 779.96C504.656 779.96 503.17 778.569 503.17 775.628V765.796H500.831V763.804H503.17V759.757H505.763V763.804H509.936V765.796H505.731V775.502C505.731 777.177 506.585 777.747 508.039 777.747C508.64 777.747 509.335 777.683 510.347 777.367Z" fill="#1A1A1A"/>
<path d="M257.574 817.735C257.574 811.815 260.645 807.527 265.431 807.527C270.245 807.527 273.288 811.815 273.288 817.735C273.288 823.655 270.245 827.943 265.431 827.943C260.645 827.943 257.574 823.655 257.574 817.735ZM260.009 817.735C260.009 822.576 261.835 825.896 265.431 825.896C269.055 825.896 270.881 822.576 270.881 817.735C270.881 812.894 269.055 809.574 265.431 809.574C261.835 809.574 260.009 812.894 260.009 817.735ZM275.494 812.368V810.763C278.869 810.763 280.086 809.823 280.557 807.776H282.023V827.611H279.644V812.368H275.494ZM310.269 817.735C310.269 823.683 306.755 827.943 301.278 827.943C295.8 827.943 292.287 823.683 292.287 817.735C292.287 811.815 295.8 807.527 301.278 807.527C306.755 807.527 310.269 811.815 310.269 817.735ZM307.807 817.735C307.807 812.977 305.594 809.546 301.278 809.546C296.935 809.546 294.722 812.977 294.722 817.735C294.722 822.521 296.935 825.923 301.278 825.923C305.594 825.923 307.807 822.521 307.807 817.735ZM313.091 820.667C313.091 816.213 315.774 813.364 319.647 813.364C322.745 813.364 324.792 815.134 325.235 818.094H323.05C322.662 816.241 321.528 815.217 319.647 815.217C316.908 815.217 315.359 817.403 315.359 820.667C315.359 823.932 316.908 826.089 319.647 826.089C321.528 826.089 322.662 825.066 323.05 823.212H325.235C324.792 826.2 322.745 827.943 319.647 827.943C315.774 827.943 313.091 825.121 313.091 820.667ZM335.5 825.564V827.445C334.477 827.749 333.674 827.832 333.066 827.832C330.521 827.832 329.22 826.615 329.22 824.042V815.439H327.173V813.696H329.22V810.155H331.489V813.696H335.141V815.439H331.461V823.932C331.461 825.398 332.208 825.896 333.481 825.896C334.006 825.896 334.615 825.84 335.5 825.564ZM357.242 813.281C357.242 816.988 354.172 818.648 351.212 820.556C348.805 822.161 346.426 823.821 346.426 825.619H357.436V827.611H343.881V826.532C343.881 823.019 347.283 820.556 350.216 818.731C352.844 817.043 354.974 815.577 354.974 813.281C354.974 811.4 353.895 809.518 350.963 809.518C348.252 809.518 346.675 811.566 346.509 813.945H344.268C344.462 810.459 346.841 807.527 350.99 807.527C355.14 807.527 357.242 810.348 357.242 813.281ZM360.099 817.735C360.099 811.815 363.17 807.527 367.956 807.527C372.769 807.527 375.812 811.815 375.812 817.735C375.812 823.655 372.769 827.943 367.956 827.943C363.17 827.943 360.099 823.655 360.099 817.735ZM362.534 817.735C362.534 822.576 364.36 825.896 367.956 825.896C371.58 825.896 373.406 822.576 373.406 817.735C373.406 812.894 371.58 809.574 367.956 809.574C364.36 809.574 362.534 812.894 362.534 817.735ZM391.796 813.281C391.796 816.988 388.725 818.648 385.765 820.556C383.358 822.161 380.979 823.821 380.979 825.619H391.989V827.611H378.434V826.532C378.434 823.019 381.837 820.556 384.769 818.731C387.397 817.043 389.527 815.577 389.527 813.281C389.527 811.4 388.448 809.518 385.516 809.518C382.805 809.518 381.228 811.566 381.062 813.945H378.821C379.015 810.459 381.394 807.527 385.544 807.527C389.693 807.527 391.796 810.348 391.796 813.281ZM408.457 822.244C408.457 825.315 405.995 827.943 401.568 827.943C397.336 827.943 394.597 825.564 394.32 821.829H396.644C396.81 824.291 398.553 826.006 401.568 826.006C404.445 826.006 406.216 824.54 406.216 822.161C406.216 819.865 404.501 818.565 401.9 818.565H399.743V816.628H401.817C403.892 816.628 405.69 815.715 405.69 813.17C405.69 811.151 404.362 809.463 401.651 809.463C398.83 809.463 397.253 811.427 397.114 813.779H394.874C395.095 810.348 397.391 807.527 401.651 807.527C405.884 807.527 407.987 810.21 407.987 813.142C407.987 815.577 406.382 817.264 404.445 817.541C406.797 817.901 408.457 819.782 408.457 822.244Z" fill="#757575"/>
<path d="M1308.05 773.51C1308.05 777.083 1304.98 779.738 1300.68 779.991V783.153H1298.78V779.96C1294.61 779.612 1291.13 777.304 1290.88 773.067H1293.41C1293.69 776.071 1296 777.494 1298.78 777.81V769.4L1297.2 769.084C1294.23 768.483 1291.61 767.092 1291.61 763.203C1291.61 759.631 1294.48 756.975 1298.78 756.785V753.813H1300.68V756.848C1304.63 757.228 1307.19 759.251 1307.57 762.887H1305.08C1304.79 760.674 1303.18 759.409 1300.68 759.093V767.25L1302.52 767.598C1305.9 768.293 1308.05 769.969 1308.05 773.51ZM1298.03 766.713L1298.78 766.871V759.03C1295.81 759.188 1294.11 760.864 1294.11 763.108C1294.11 765.353 1295.34 766.175 1298.03 766.713ZM1301.5 769.906L1300.68 769.748V777.841C1303.59 777.62 1305.52 776.103 1305.52 773.636C1305.52 771.74 1304.54 770.475 1301.5 769.906ZM1326.24 763.33C1326.24 767.566 1322.73 769.463 1319.35 771.645C1316.6 773.478 1313.88 775.375 1313.88 777.43H1326.46V779.707H1310.97V778.474C1310.97 774.459 1314.86 771.645 1318.21 769.558C1321.22 767.629 1323.65 765.954 1323.65 763.33C1323.65 761.18 1322.42 759.03 1319.07 759.03C1315.97 759.03 1314.17 761.369 1313.98 764.088H1311.42C1311.64 760.105 1314.36 756.753 1319.1 756.753C1323.84 756.753 1326.24 759.978 1326.24 763.33ZM1328.65 762.286V760.453C1332.51 760.453 1333.9 759.378 1334.44 757.038H1336.12V779.707H1333.4V762.286H1328.65ZM1348.84 766.902C1346.47 766.902 1344.89 768.072 1344.03 769.432H1341.6L1342.87 757.133H1355.57V759.441H1344.83L1344.07 766.902C1345.02 765.701 1346.98 764.689 1349.06 764.689C1353.77 764.689 1356.71 768.104 1356.71 772.372C1356.71 776.672 1353.77 780.086 1348.84 780.086C1344.29 780.086 1341.03 777.367 1340.68 773.004H1343.37C1343.59 775.881 1345.68 777.873 1348.87 777.873C1352.41 777.873 1354.09 775.249 1354.09 772.372C1354.09 769.495 1352.41 766.902 1348.84 766.902ZM1360.3 779.707V776.261H1363.74V779.707H1360.3ZM1366.9 768.42C1366.9 761.654 1370.41 756.753 1375.88 756.753C1381.38 756.753 1384.86 761.654 1384.86 768.42C1384.86 775.186 1381.38 780.086 1375.88 780.086C1370.41 780.086 1366.9 775.186 1366.9 768.42ZM1369.69 768.42C1369.69 773.953 1371.77 777.747 1375.88 777.747C1380.02 777.747 1382.11 773.953 1382.11 768.42C1382.11 762.887 1380.02 759.093 1375.88 759.093C1371.77 759.093 1369.69 762.887 1369.69 768.42ZM1388.02 768.42C1388.02 761.654 1391.53 756.753 1397 756.753C1402.5 756.753 1405.98 761.654 1405.98 768.42C1405.98 775.186 1402.5 780.086 1397 780.086C1391.53 780.086 1388.02 775.186 1388.02 768.42ZM1390.8 768.42C1390.8 773.953 1392.89 777.747 1397 777.747C1401.14 777.747 1403.23 773.953 1403.23 768.42C1403.23 762.887 1401.14 759.093 1397 759.093C1392.89 759.093 1390.8 762.887 1390.8 768.42Z" fill="#009221"/>
<path d="M1310.79 822.189C1310.79 825.315 1308.1 827.639 1304.34 827.86V830.626H1302.68V827.832C1299.03 827.528 1295.99 825.508 1295.77 821.801H1297.98C1298.23 824.429 1300.25 825.674 1302.68 825.951V818.592L1301.3 818.316C1298.7 817.79 1296.4 816.573 1296.4 813.17C1296.4 810.044 1298.92 807.72 1302.68 807.554V804.954H1304.34V807.61C1307.8 807.942 1310.04 809.712 1310.37 812.894H1308.19C1307.94 810.957 1306.53 809.85 1304.34 809.574V816.711L1305.95 817.015C1308.91 817.624 1310.79 819.09 1310.79 822.189ZM1302.02 816.241L1302.68 816.379V809.518C1300.08 809.657 1298.59 811.123 1298.59 813.087C1298.59 815.051 1299.67 815.771 1302.02 816.241ZM1305.06 819.035L1304.34 818.897V825.979C1306.89 825.785 1308.57 824.457 1308.57 822.299C1308.57 820.639 1307.72 819.533 1305.06 819.035ZM1325.62 807.859V820.28H1329.85V822.189H1325.62V827.611H1323.3V822.189H1313.5V820.252L1322.94 807.859H1325.62ZM1323.3 810.321L1315.8 820.28H1323.3V810.321ZM1339.6 807.527C1343.3 807.527 1346.12 809.574 1346.12 812.977C1346.12 815.217 1344.82 816.822 1342.86 817.596C1344.96 817.984 1347.01 819.893 1347.01 822.216C1347.01 825.619 1344.13 827.943 1339.6 827.943C1335.11 827.943 1332.21 825.619 1332.21 822.216C1332.21 819.893 1334.26 817.984 1336.36 817.596C1334.42 816.822 1333.09 815.217 1333.09 812.977C1333.09 809.574 1335.92 807.527 1339.6 807.527ZM1339.6 816.573C1341.98 816.573 1343.94 815.411 1343.94 812.977C1343.94 810.57 1341.98 809.408 1339.6 809.408C1337.24 809.408 1335.28 810.57 1335.28 812.977C1335.28 815.411 1337.24 816.573 1339.6 816.573ZM1339.6 826.034C1342.75 826.034 1344.63 824.54 1344.63 822.216C1344.63 819.92 1342.75 818.482 1339.6 818.482C1336.5 818.482 1334.59 819.92 1334.59 822.216C1334.59 824.54 1336.5 826.034 1339.6 826.034ZM1357.73 809.518C1354.08 809.518 1352.17 813.308 1352.17 818.426C1352.81 816.379 1354.75 814.415 1357.76 814.415C1361.66 814.415 1364.29 817.292 1364.29 821.082C1364.29 825.066 1361.58 827.943 1357.46 827.943C1353.09 827.943 1349.96 824.125 1349.96 818.067C1349.96 811.815 1353.22 807.527 1357.76 807.527C1361.27 807.527 1363.65 809.601 1364.1 812.921H1361.91C1361.44 810.68 1360.09 809.518 1357.73 809.518ZM1357.46 826.006C1360.28 826.006 1362.05 823.932 1362.05 821.165C1362.05 818.371 1360.28 816.352 1357.46 816.352C1354.69 816.352 1352.81 818.371 1352.81 821.165C1352.81 823.932 1354.69 826.006 1357.46 826.006ZM1367.63 827.611V824.595H1370.65V827.611H1367.63ZM1381.4 809.518C1377.75 809.518 1375.84 813.308 1375.84 818.426C1376.48 816.379 1378.41 814.415 1381.43 814.415C1385.33 814.415 1387.96 817.292 1387.96 821.082C1387.96 825.066 1385.24 827.943 1381.12 827.943C1376.75 827.943 1373.63 824.125 1373.63 818.067C1373.63 811.815 1376.89 807.527 1381.43 807.527C1384.94 807.527 1387.32 809.601 1387.76 812.921H1385.58C1385.11 810.68 1383.75 809.518 1381.4 809.518ZM1381.12 826.006C1383.94 826.006 1385.72 823.932 1385.72 821.165C1385.72 818.371 1383.94 816.352 1381.12 816.352C1378.36 816.352 1376.48 818.371 1376.48 821.165C1376.48 823.932 1378.36 826.006 1381.12 826.006ZM1402.56 807.859V820.28H1406.8V822.189H1402.56V827.611H1400.24V822.189H1390.45V820.252L1399.88 807.859H1402.56ZM1400.24 810.321L1392.74 820.28H1400.24V810.321Z" fill="#757575"/>
</g>
</g>
</g>
<g filter="url(#filter1_d_436_3271)">
<rect x="98" y="409.785" width="1397.04" height="179.817" rx="23.7121" fill="white"/>
</g>
<path d="M155.582 485.266L152.741 482.425L175.304 459.862H155.415V455.851H182.157V482.592H178.146V462.703L155.582 485.266Z" fill="#1A1A1A"/>
<path d="M241.034 487.875V457.325H244.714V484.794H261.144V487.875H241.034ZM280.241 487.875C279.984 486.677 279.856 485.265 279.856 484.238C278.915 486.762 275.963 488.345 272.369 488.345C268.603 488.345 265.394 486.163 265.394 482.184C265.394 478.034 268.475 476.237 272.839 475.724L279.771 474.825V473.584C279.771 470.161 277.674 468.707 274.722 468.707C271.855 468.707 270.058 470.204 269.801 472.686H266.378C266.806 468.322 270.229 465.84 274.807 465.84C280.027 465.84 283.279 468.322 283.279 473.499V483.382C283.279 484.965 283.365 486.463 283.792 487.875H280.241ZM273.096 485.65C276.433 485.65 279.771 483.553 279.771 479.403V477.478L273.909 478.12C271.213 478.505 268.988 479.189 268.988 482.099C268.988 484.11 270.4 485.65 273.096 485.65ZM300.308 484.709V487.618C298.725 488.089 297.484 488.217 296.543 488.217C292.607 488.217 290.596 486.335 290.596 482.355V469.049H287.43V466.353H290.596V460.877H294.104V466.353H299.752V469.049H294.061V482.184C294.061 484.452 295.217 485.222 297.185 485.222C297.998 485.222 298.939 485.136 300.308 484.709ZM323.136 481.542C322.152 486.121 318.43 488.388 314.236 488.388C308.161 488.388 303.882 484.152 303.882 477.221C303.882 470.204 308.289 465.84 314.023 465.84C320.398 465.84 323.264 470.931 323.264 476.451V477.863H307.348C307.519 482.826 310.129 485.564 314.236 485.564C317.146 485.564 318.9 484.152 319.799 481.542H323.136ZM314.023 468.707C310.642 468.707 308.075 470.889 307.476 475.296H319.799C319.713 471.573 317.873 468.707 314.023 468.707ZM337.98 487.875V457.325H357.533V460.406H341.66V471.573H356.079V474.654H341.66V487.875H337.98ZM379.758 481.542C378.773 486.121 375.051 488.388 370.858 488.388C364.782 488.388 360.504 484.152 360.504 477.221C360.504 470.204 364.911 465.84 370.644 465.84C377.019 465.84 379.886 470.931 379.886 476.451V477.863H363.969C364.141 482.826 366.751 485.564 370.858 485.564C373.767 485.564 375.522 484.152 376.42 481.542H379.758ZM370.644 468.707C367.264 468.707 364.697 470.889 364.098 475.296H376.42C376.335 471.573 374.495 468.707 370.644 468.707ZM403.242 481.542C402.257 486.121 398.535 488.388 394.342 488.388C388.266 488.388 383.988 484.152 383.988 477.221C383.988 470.204 388.395 465.84 394.128 465.84C400.503 465.84 403.37 470.931 403.37 476.451V477.863H387.453C387.625 482.826 390.235 485.564 394.342 485.564C397.251 485.564 399.006 484.152 399.904 481.542H403.242ZM394.128 468.707C390.748 468.707 388.181 470.889 387.582 475.296H399.904C399.819 471.573 397.979 468.707 394.128 468.707Z" fill="#1A1A1A"/>
<path d="M239.077 539.206C239.077 531.194 243.232 525.391 249.709 525.391C256.223 525.391 260.342 531.194 260.342 539.206C260.342 547.218 256.223 553.021 249.709 553.021C243.232 553.021 239.077 547.218 239.077 539.206ZM242.371 539.206C242.371 545.758 244.842 550.25 249.709 550.25C254.614 550.25 257.084 545.758 257.084 539.206C257.084 532.654 254.614 528.162 249.709 528.162C244.842 528.162 242.371 532.654 242.371 539.206ZM273.885 537.409C271.077 537.409 269.205 538.794 268.194 540.404H265.312L266.809 525.841H281.859V528.574H269.13L268.232 537.409C269.355 535.986 271.676 534.788 274.147 534.788C279.725 534.788 283.207 538.832 283.207 543.886C283.207 548.977 279.725 553.021 273.885 553.021C268.494 553.021 264.638 549.801 264.226 544.635H267.408C267.67 548.041 270.141 550.4 273.922 550.4C278.116 550.4 280.1 547.293 280.1 543.886C280.1 540.479 278.116 537.409 273.885 537.409ZM294.972 544.672H298.079C298.491 548.977 302.01 550.437 305.978 550.437C309.797 550.437 312.605 548.603 312.605 545.383C312.605 543.137 311.369 541.677 307.738 541.003L302.646 539.992C299.052 539.318 295.833 537.671 295.833 533.066C295.833 528.686 299.614 525.391 305.155 525.391C310.883 525.391 314.664 527.862 315.188 532.692H312.081C311.632 529.697 309.011 527.975 305.192 527.975C301.299 527.975 298.978 530.146 298.978 532.954C298.978 535.612 300.475 536.548 303.732 537.184L308.973 538.27C313.092 539.094 315.712 541.003 315.712 545.234C315.712 549.801 311.669 553.021 306.016 553.021C300.213 553.021 295.346 550.512 294.972 544.672ZM336.648 547.031C335.787 551.036 332.53 553.021 328.861 553.021C323.544 553.021 319.801 549.314 319.801 543.249C319.801 537.11 323.657 533.291 328.673 533.291C334.252 533.291 336.76 537.746 336.76 542.575V543.811H322.833C322.983 548.154 325.267 550.55 328.861 550.55C331.406 550.55 332.941 549.314 333.728 547.031H336.648ZM328.673 535.799C325.716 535.799 323.47 537.709 322.945 541.565H333.728C333.653 538.308 332.043 535.799 328.673 535.799ZM345.133 549.277V559.235H342.025V533.74H345.02V537.184C345.881 535.275 348.128 533.291 351.385 533.291C356.177 533.291 359.771 537.184 359.771 543.174C359.771 549.127 356.177 553.021 351.385 553.021C348.277 553.021 346.069 551.186 345.133 549.277ZM344.983 542.875V543.399C344.983 547.667 347.079 550.587 350.748 550.587C354.455 550.587 356.626 547.555 356.626 543.174C356.626 538.757 354.455 535.724 350.748 535.724C347.079 535.724 344.983 538.607 344.983 542.875ZM389.423 533.179C389.423 538.195 385.267 540.441 381.261 543.025C378.004 545.196 374.785 547.442 374.785 549.876H389.685V552.571H371.34V551.111C371.34 546.357 375.945 543.025 379.914 540.554C383.47 538.27 386.353 536.286 386.353 533.179C386.353 530.633 384.893 528.087 380.924 528.087C377.256 528.087 375.122 530.857 374.897 534.077H371.865C372.127 529.36 375.346 525.391 380.962 525.391C386.578 525.391 389.423 529.21 389.423 533.179ZM393.289 539.206C393.289 531.194 397.445 525.391 403.921 525.391C410.436 525.391 414.554 531.194 414.554 539.206C414.554 547.218 410.436 553.021 403.921 553.021C397.445 553.021 393.289 547.218 393.289 539.206ZM396.583 539.206C396.583 545.758 399.054 550.25 403.921 550.25C408.826 550.25 411.297 545.758 411.297 539.206C411.297 532.654 408.826 528.162 403.921 528.162C399.054 528.162 396.583 532.654 396.583 539.206ZM436.184 533.179C436.184 538.195 432.028 540.441 428.022 543.025C424.765 545.196 421.546 547.442 421.546 549.876H436.446V552.571H418.101V551.111C418.101 546.357 422.706 543.025 426.675 540.554C430.231 538.27 433.114 536.286 433.114 533.179C433.114 530.633 431.654 528.087 427.685 528.087C424.016 528.087 421.882 530.857 421.658 534.077H418.625C418.887 529.36 422.107 525.391 427.723 525.391C433.338 525.391 436.184 529.21 436.184 533.179ZM458.731 545.308C458.731 549.464 455.399 553.021 449.409 553.021C443.681 553.021 439.975 549.801 439.601 544.747H442.745C442.97 548.079 445.329 550.4 449.409 550.4C453.303 550.4 455.699 548.416 455.699 545.196C455.699 542.089 453.378 540.329 449.859 540.329H446.938V537.709H449.746C452.554 537.709 454.988 536.473 454.988 533.029C454.988 530.296 453.191 528.012 449.522 528.012C445.703 528.012 443.569 530.67 443.382 533.852H440.349C440.649 529.21 443.756 525.391 449.522 525.391C455.25 525.391 458.095 529.023 458.095 532.991C458.095 536.286 455.924 538.57 453.303 538.944C456.485 539.431 458.731 541.976 458.731 545.308Z" fill="#757575"/>
<path d="M1333.05 479.489C1333.05 484.324 1328.9 487.918 1323.08 488.26V492.539H1320.51V488.217C1314.87 487.746 1310.16 484.623 1309.82 478.89H1313.24C1313.63 482.954 1316.75 484.88 1320.51 485.308V473.927L1318.38 473.499C1314.35 472.686 1310.8 470.803 1310.8 465.54C1310.8 460.706 1314.7 457.112 1320.51 456.855V452.833H1323.08V456.94C1328.43 457.454 1331.9 460.192 1332.41 465.113H1329.03C1328.64 462.118 1326.46 460.406 1323.08 459.978V471.017L1325.56 471.488C1330.14 472.429 1333.05 474.697 1333.05 479.489ZM1319.49 470.29L1320.51 470.504V459.893C1316.49 460.107 1314.18 462.374 1314.18 465.412C1314.18 468.45 1315.85 469.562 1319.49 470.29ZM1324.19 474.611L1323.08 474.397V485.35C1327.02 485.051 1329.63 482.997 1329.63 479.66C1329.63 477.093 1328.3 475.381 1324.19 474.611ZM1357.67 465.712C1357.67 471.445 1352.93 474.012 1348.35 476.964C1344.62 479.446 1340.94 482.013 1340.94 484.794H1357.97V487.875H1337.01V486.206C1337.01 480.772 1342.27 476.964 1346.81 474.14C1350.87 471.53 1354.17 469.263 1354.17 465.712C1354.17 462.802 1352.5 459.893 1347.96 459.893C1343.77 459.893 1341.33 463.059 1341.07 466.738H1337.61C1337.91 461.347 1341.59 456.812 1348 456.812C1354.42 456.812 1357.67 461.176 1357.67 465.712ZM1372.54 470.546C1369.33 470.546 1367.19 472.129 1366.04 473.969H1362.75L1364.46 457.325H1381.66V460.449H1367.11L1366.08 470.546C1367.37 468.921 1370.02 467.551 1372.84 467.551C1379.22 467.551 1383.2 472.172 1383.2 477.948C1383.2 483.767 1379.22 488.388 1372.54 488.388C1366.38 488.388 1361.98 484.709 1361.5 478.804H1365.14C1365.44 482.698 1368.26 485.393 1372.59 485.393C1377.38 485.393 1379.65 481.842 1379.65 477.948C1379.65 474.055 1377.38 470.546 1372.54 470.546ZM1388.05 487.875V483.211H1392.71V487.875H1388.05ZM1396.99 472.6C1396.99 463.444 1401.74 456.812 1409.14 456.812C1416.58 456.812 1421.29 463.444 1421.29 472.6C1421.29 481.756 1416.58 488.388 1409.14 488.388C1401.74 488.388 1396.99 481.756 1396.99 472.6ZM1400.75 472.6C1400.75 480.088 1403.58 485.222 1409.14 485.222C1414.74 485.222 1417.57 480.088 1417.57 472.6C1417.57 465.113 1414.74 459.978 1409.14 459.978C1403.58 459.978 1400.75 465.113 1400.75 472.6ZM1425.57 472.6C1425.57 463.444 1430.32 456.812 1437.72 456.812C1445.16 456.812 1449.87 463.444 1449.87 472.6C1449.87 481.756 1445.16 488.388 1437.72 488.388C1430.32 488.388 1425.57 481.756 1425.57 472.6ZM1429.33 472.6C1429.33 480.088 1432.16 485.222 1437.72 485.222C1443.32 485.222 1446.15 480.088 1446.15 472.6C1446.15 465.113 1443.32 459.978 1437.72 459.978C1432.16 459.978 1429.33 465.113 1429.33 472.6Z" fill="#DB2C4E"/>
<path d="M1307.41 545.234C1307.41 549.464 1303.78 552.609 1298.68 552.908V556.652H1296.44V552.871C1291.5 552.459 1287.38 549.726 1287.08 544.709H1290.07C1290.41 548.266 1293.14 549.951 1296.44 550.325V540.367L1294.57 539.992C1291.05 539.281 1287.94 537.634 1287.94 533.029C1287.94 528.798 1291.35 525.654 1296.44 525.429V521.91H1298.68V525.504C1303.36 525.953 1306.4 528.349 1306.85 532.654H1303.89C1303.55 530.034 1301.64 528.536 1298.68 528.162V537.821L1300.86 538.233C1304.86 539.056 1307.41 541.04 1307.41 545.234ZM1295.54 537.184L1296.44 537.372V528.087C1292.92 528.274 1290.9 530.258 1290.9 532.916C1290.9 535.575 1292.36 536.548 1295.54 537.184ZM1299.66 540.966L1298.68 540.778V550.363C1302.13 550.1 1304.41 548.303 1304.41 545.383C1304.41 543.137 1303.25 541.64 1299.66 540.966ZM1310.64 531.943V529.772C1315.2 529.772 1316.85 528.499 1317.49 525.728H1319.47V552.571H1316.25V531.943H1310.64ZM1326.9 552.534V548.491H1330.98V553.208C1330.98 556.315 1329.11 558.449 1325.7 558.449V556.54C1327.61 556.54 1328.7 555.679 1328.7 553.208V552.534H1326.9ZM1335.05 539.206C1335.05 531.194 1339.2 525.391 1345.68 525.391C1352.19 525.391 1356.31 531.194 1356.31 539.206C1356.31 547.218 1352.19 553.021 1345.68 553.021C1339.2 553.021 1335.05 547.218 1335.05 539.206ZM1338.34 539.206C1338.34 545.758 1340.81 550.25 1345.68 550.25C1350.59 550.25 1353.06 545.758 1353.06 539.206C1353.06 532.654 1350.59 528.162 1345.68 528.162C1340.81 528.162 1338.34 532.654 1338.34 539.206ZM1359.3 531.943V529.772C1363.87 529.772 1365.51 528.499 1366.15 525.728H1368.13V552.571H1364.91V531.943H1359.3ZM1384.58 528.087C1379.64 528.087 1377.05 533.216 1377.05 540.142C1377.91 537.372 1380.54 534.713 1384.62 534.713C1389.89 534.713 1393.45 538.607 1393.45 543.736C1393.45 549.127 1389.78 553.021 1384.2 553.021C1378.29 553.021 1374.06 547.854 1374.06 539.655C1374.06 531.194 1378.48 525.391 1384.62 525.391C1389.37 525.391 1392.59 528.199 1393.19 532.692H1390.23C1389.6 529.659 1387.76 528.087 1384.58 528.087ZM1384.2 550.4C1388.02 550.4 1390.42 547.592 1390.42 543.848C1390.42 540.067 1388.02 537.334 1384.2 537.334C1380.46 537.334 1377.91 540.067 1377.91 543.848C1377.91 547.592 1380.46 550.4 1384.2 550.4ZM1397.97 552.571V548.491H1402.05V552.571H1397.97ZM1416.61 528.087C1411.66 528.087 1409.08 533.216 1409.08 540.142C1409.94 537.372 1412.56 534.713 1416.64 534.713C1421.92 534.713 1425.48 538.607 1425.48 543.736C1425.48 549.127 1421.81 553.021 1416.23 553.021C1410.32 553.021 1406.09 547.854 1406.09 539.655C1406.09 531.194 1410.5 525.391 1416.64 525.391C1421.4 525.391 1424.62 528.199 1425.22 532.692H1422.26C1421.62 529.659 1419.79 528.087 1416.61 528.087ZM1416.23 550.4C1420.05 550.4 1422.45 547.592 1422.45 543.848C1422.45 540.067 1420.05 537.334 1416.23 537.334C1412.49 537.334 1409.94 540.067 1409.94 543.848C1409.94 547.592 1412.49 550.4 1416.23 550.4ZM1445.25 525.841V542.65H1450.97V545.234H1445.25V552.571H1442.1V545.234H1428.85V542.613L1441.61 525.841H1445.25ZM1442.1 529.173L1431.95 542.65H1442.1V529.173Z" fill="#757575"/>
</g>
<defs>
<filter id="filter0_d_436_3271" x="113.928" y="117.336" width="1364.8" height="1053.04" filterUnits="userSpaceOnUse" color-interpolation-filters="sRGB">
<feFlood flood-opacity="0" result="BackgroundImageFix"/>
<feColorMatrix in="SourceAlpha" type="matrix" values="0 0 0 0 0 0 0 0 0 0 0 0 0 0 0 0 0 0 127 0" result="hardAlpha"/>
<feOffset dy="11.8561"/>
<feGaussianBlur stdDeviation="19.7601"/>
<feComposite in2="hardAlpha" operator="out"/>
<feColorMatrix type="matrix" values="0 0 0 0 0 0 0 0 0 0 0 0 0 0 0 0 0 0 0.1 0"/>
<feBlend mode="normal" in2="BackgroundImageFix" result="effect1_dropShadow_436_3271"/>
<feBlend mode="normal" in="SourceGraphic" in2="effect1_dropShadow_436_3271" result="shape"/>
</filter>
<filter id="filter1_d_436_3271" x="44.5172" y="372.347" width="1504" height="286.782" filterUnits="userSpaceOnUse" color-interpolation-filters="sRGB">
<feFlood flood-opacity="0" result="BackgroundImageFix"/>
<feColorMatrix in="SourceAlpha" type="matrix" values="0 0 0 0 0 0 0 0 0 0 0 0 0 0 0 0 0 0 127 0" result="hardAlpha"/>
<feOffset dy="16.0448"/>
<feGaussianBlur stdDeviation="26.7414"/>
<feComposite in2="hardAlpha" operator="out"/>
<feColorMatrix type="matrix" values="0 0 0 0 0 0 0 0 0 0 0 0 0 0 0 0 0 0 0.1 0"/>
<feBlend mode="normal" in2="BackgroundImageFix" result="effect1_dropShadow_436_3271"/>
<feBlend mode="normal" in="SourceGraphic" in2="effect1_dropShadow_436_3271" result="shape"/>
</filter>
<clipPath id="clip0_436_3271">
<rect width="1593" height="1068" fill="white"/>
</clipPath>
<clipPath id="clip1_436_3271">
<rect x="153.448" y="145" width="1285.76" height="974" rx="23.7121" fill="white"/>
</clipPath>
<clipPath id="clip2_436_3271">
<rect width="1286.38" height="132.393" fill="white" transform="translate(153.328 145)"/>
</clipPath>
</defs>
</svg>
