<svg width="16" height="16" viewBox="0 0 16 16" fill="none" xmlns="http://www.w3.org/2000/svg">
<path d="M10.1881 1.18317C10.3097 1.33405 10.3717 1.53767 10.4952 1.94442L13.2022 10.8364C12.1855 10.3086 11.0942 9.93911 9.96597 9.7408L8.20372 3.78505C8.1898 3.73744 8.16082 3.69563 8.12111 3.6659C8.08141 3.63617 8.03313 3.62013 7.98353 3.62019C7.93393 3.62025 7.88569 3.6364 7.84605 3.66621C7.80641 3.69603 7.77752 3.73791 7.76372 3.78555L6.02259 9.7378C4.88946 9.93542 3.79329 10.3055 2.77222 10.835L5.49197 1.94255C5.61647 1.5363 5.67847 1.33305 5.79997 1.18217C5.90727 1.04927 6.04683 0.946077 6.20534 0.882422C6.38447 0.810547 6.59734 0.810547 7.02222 0.810547H8.96509C9.39034 0.810547 9.60322 0.810547 9.78297 0.882922C9.94148 0.946737 10.0809 1.05011 10.1881 1.18317Z" fill="white"/>
<path d="M10.5117 11.2593C10.0655 11.6412 9.17475 11.9014 8.14887 11.9014C6.89012 11.9014 5.8345 11.5093 5.55462 10.9819C5.45462 11.2842 5.43212 11.6299 5.43212 11.8512C5.43212 11.8512 5.36625 12.9356 6.12062 13.6899C6.1206 13.5968 6.13893 13.5046 6.17456 13.4186C6.21018 13.3326 6.26241 13.2544 6.32825 13.1886C6.39409 13.1228 6.47226 13.0706 6.55829 13.0349C6.64431 12.9993 6.73651 12.981 6.82962 12.9811C7.50087 12.9811 7.5005 13.5664 7.5 14.0421V14.0841C7.5 14.8057 7.94087 15.4239 8.56787 15.6847C8.47115 15.4862 8.42105 15.2682 8.42137 15.0474C8.42137 14.3589 8.82512 14.1031 9.29487 13.8052C9.6685 13.5684 10.0835 13.3052 10.3691 12.7774C10.5233 12.4931 10.6039 12.1747 10.6035 11.8512C10.6036 11.6503 10.5726 11.4507 10.5117 11.2593Z" fill="white"/>
</svg>
