<svg width="15" height="15" viewBox="0 0 15 15" fill="none" xmlns="http://www.w3.org/2000/svg">
<path fill-rule="evenodd" clip-rule="evenodd" d="M5.4169 5.88562C5.20489 5.88562 4.99497 5.92738 4.7991 6.00851C4.60324 6.08964 4.42527 6.20856 4.27536 6.35846C4.12545 6.50837 4.00654 6.68634 3.92541 6.88221C3.84428 7.07807 3.80252 7.288 3.80252 7.5C3.80252 7.712 3.84428 7.92193 3.92541 8.11779C4.00654 8.31366 4.12545 8.49163 4.27536 8.64154C4.42527 8.79144 4.60324 8.91036 4.7991 8.99149C4.99497 9.07262 5.20489 9.11438 5.4169 9.11438H7.03127V5.88562H5.4169ZM7.03127 4.94812H5.4169C4.98865 4.94812 4.57795 4.77801 4.27514 4.47519C3.97233 4.17238 3.80221 3.76168 3.80221 3.33344C3.80221 2.9052 3.97233 2.49449 4.27514 2.19168C4.57795 1.88887 4.98865 1.71875 5.4169 1.71875H7.03127V4.94812ZM7.96877 1.71875V4.94812H9.58315C10.0059 4.93981 10.4085 4.76603 10.7045 4.46413C11.0006 4.16222 11.1664 3.75626 11.1664 3.33344C11.1664 2.91061 11.0006 2.50465 10.7045 2.20275C10.4085 1.90084 10.0059 1.72707 9.58315 1.71875H7.96877ZM9.58315 5.885C9.15939 5.88495 8.7526 6.05151 8.45057 6.34874C8.14855 6.64598 7.9755 7.05005 7.96877 7.47375V7.52563C7.97394 7.84375 8.073 8.15325 8.25351 8.41526C8.43402 8.67727 8.68792 8.88009 8.98332 8.99827C9.27873 9.11644 9.60247 9.14469 9.91388 9.07946C10.2253 9.01424 10.5105 8.85845 10.7336 8.63167C10.9568 8.40488 11.108 8.11721 11.1682 7.80479C11.2283 7.49237 11.1949 7.16913 11.072 6.87567C10.949 6.58221 10.7421 6.33161 10.4773 6.15535C10.2124 5.9791 9.90131 5.88504 9.58315 5.885ZM5.4169 10.0519C5.09745 10.0518 4.78515 10.1464 4.51948 10.3237C4.25381 10.5011 4.04672 10.7533 3.92438 11.0484C3.80205 11.3435 3.76998 11.6682 3.83223 11.9816C3.89447 12.2949 4.04823 12.5827 4.27407 12.8086C4.49991 13.0346 4.78767 13.1884 5.10097 13.2508C5.41427 13.3132 5.73902 13.2812 6.03416 13.159C6.3293 13.0368 6.58156 12.8298 6.75905 12.5642C6.93654 12.2986 7.03127 11.9863 7.03127 11.6669V10.0519H5.4169Z" fill="white"/>
</svg>
