<?xml version="1.0" encoding="UTF-8"?>
<svg id="Layer_2" data-name="Layer 2" xmlns="http://www.w3.org/2000/svg" xmlns:xlink="http://www.w3.org/1999/xlink" viewBox="0 0 1807.89 2013.44">
  <defs>
    <style>
      .cls-1, .cls-2 {
        fill: #fff;
      }

      .cls-1, .cls-3 {
        stroke: #182723;
        stroke-miterlimit: 10;
        stroke-width: 31.18px;
      }

      .cls-4 {
        fill: #182723;
      }

      .cls-5, .cls-3 {
        fill: none;
      }

      .cls-6 {
        clip-path: url(#clippath-1);
      }

      .cls-7 {
        clip-path: url(#clippath-2);
      }

      .cls-8 {
        clip-path: url(#clippath);
      }
    </style>
    <clipPath id="clippath">
      <rect class="cls-1" x="15.59" y="186.69" width="1776.71" height="1776.71" rx="888.35" ry="888.35"/>
    </clipPath>
    <clipPath id="clippath-1">
      <rect class="cls-5" x="15.59" width="1747.94" height="1265.08"/>
    </clipPath>
    <clipPath id="clippath-2">
      <polygon class="cls-5" points="1749.25 1724.54 1266.01 1724.54 1259.23 1324.46 1742.47 1324.46 1749.25 1724.54"/>
    </clipPath>
  </defs>
  <g id="Layer_1-2" data-name="Layer 1">
    <g>
      <g>
        <rect class="cls-2" x="15.59" y="186.69" width="1776.71" height="1776.71" rx="888.35" ry="888.35"/>
        <g class="cls-8">
          <g>
            <path class="cls-4" d="M1203.53,1162.17c38.08,18.63,70.36,47.35,97.18,79.72,17.84-4.42,35.87-8.77,54.1-11.4,79.37-11.45,176.82-11.4,255.09,6.34,23.09,5.23,71.78,16.9,80.09,41.91,2.35,7.08,3.65,39.1,3.64,48.53-.06,81.29-14.03,178.88-37.11,256.94-8.46,28.63-31.77,98.31-54.04,115.96-22.16,17.55-58.39,20.34-85.61,24.4l-2.9,2.56c5.61,25.84,9.78,52.13,13.3,78.34,4.1,30.55,10.98,69.95,12.28,99.81,1.14,26.31-27.97,31.36-35.48,9.4l-25.4-186.6c-2.49-3.71-42.04-1.36-50.11-1.89-20.75-1.34-41.45-7.14-62-10l-.94,119.11c-5.1,23.88-.27,53.91-4.56,77.44-3.86,21.24-33.45,22.4-35.62-1.43-2.18-23.96,3.61-55.49,4.18-80.01.5-21.49,3.3-116.96-1.93-130.23-1.97-4.98-12.46-16.45-16.49-23.51-7.53-13.19-12.48-27.85-18.96-41.51-29.12-8.39-58.32-16.65-85.67-29.85-1.05,6.19-2.31,11.46-4.68,17.36s-13.39,19.85-13.55,21.66c-.26,2.99,4.62,14.29,5.19,20.02,1.46,14.86-1.15,30.52-8.34,43.63-3.26,5.94-14.4,15.86-15.24,18.76-1.79,6.17-.61,16.87-2.62,25.38-20.31,85.61-187.06,79.35-252.52,64.97-16.21-3.56-31.84-10.44-47.79-13.44-108.48,83.79-236.28,180.02-375.09,203.06-462.72,76.81-202.07-622.23-30.4-788.4,35.44-34.3,83.51-66.48,132.03-76.98.53-2.78.39-2.56-1.29-4.16-6.71-6.42-19.11-13.8-26.75-20.8-24.03-22-45.21-47.48-63.91-74.15-11.91,4.51-21.31,10.82-34.07,14.11-87.89,22.63-175.8-53.57-203.48-132.49-18.86-53.77-17.43-120.8,26.93-161.46-31.08-54.58-56.47-113.69-72.87-174.6-21.31-79.14-27.17-163.6,13.09-237.77,7.2-13.27,18.53-25.7,24.7-39.3,8.07-17.8,10.6-38.16,19.29-56.71,48.52-103.64,200.99-191.39,307.32-222.68,155.29-45.71,397.64-42.32,510.98,91.1,6.62,7.8,18.54,29.25,24.16,33.84,6.81,5.56,34.94,14.26,46.55,21.45,63.1,39.13,90.91,126.5,99.11,196.89,4.01,34.38-.17,68.08,2.26,101.74,2.92,40.48,11.14,97.02,18.9,137.1,8.46,43.7,17.92,54.02,37.42,90.58,71.69,134.43,56.58,259.41-38.39,376.29-24.18,29.75-52.91,54.25-79.95,81.02ZM1225.51,468.2c-10.83-43.13-27.62-84.17-51.15-121.83-11.27-18.04-47.54-70.6-67.93-74.06-30.13-5.11-58.28,27.41-83.07,42.72-110.56,68.29-218.82,68.98-344.81,61.15-51.88-3.22-109.36-18.46-153.97,18.06-45.51,37.25-36.77,101.79-19.08,150.99,8.41,23.38,20.77,30.87,11.01,56.94-9.47,25.29-30.42,50.79-33.06,78.94-5.44,58.04,30.2,110.57,41.17,162.99.7,3.34,1.43,6.61.85,10.04l-58.57,5.68c-24.17-32.46-51.51-78.97-96.4-83.6-69.5-7.17-89.93,56.78-78.38,114.38,14.07,70.23,93.93,154.88,170.96,130.15,7.12-2.29,13.59-5.98,19.4-10.6,9.27-7.38,17.2-26.02,30.93-16.83,5.64,3.77,17,27.57,22.49,35.51,94.82,137.05,292.12,195.11,452.71,185.45,149.02-8.96,330.83-171.42,341-323,6.17-92.02-22.79-128.21-61.12-203.04-25.87-50.49-23.11-116.95-35.48-171.54-52.03-26.33-98.62-11.77-146.83,13.16-15.77,8.15-30.05,25.75-48.52,13.2-9.45-6.42-28.19-36.31-27.51-47.59,1.1-18.15,32.45-33.61,47.43-40.21,58.29-25.67,116.34-28.64,167.91,12.93ZM1165.53,1305.2c1.43,9.23-1.04,21.38,0,31,22.9-9.3,46.85-16.84,72.01-15.99,2.83-26.03-4.16-52.81,25.99-64.05-22.85-30.2-57.35-53.94-91.97-69.2-16.26,6.25-31.19,18.82-47.28,27-143.47,72.98-351.8,30.32-487.36-44.3-8.47-2.69-32.89,5.32-42.43,8.5-138.39,46.13-212.65,207.62-262.99,333.01,31.33-.35,61.24-3.93,93-.95,66.61,6.24,132.41,28.95,188.99,63.98,9.37-31.47,19.33-63.72,33.67-93.35,2.65-5.47,11.64-26.68,19.1-24.52,5.78,3.95,5.49,10.4,5.06,16.59-2.46,35.01-20.12,77.42-25.28,112.8-.33,2.3-1.76,7.09.46,8.46l129.7-58.3c24.98-41.05,46.55-86.18,83.28-118.72,45.9-40.66,109.95-50.49,155.08-88.92,33.86-28.83,60.22-87.17,113.69-65.79,15.97,6.39,34.57,25.41,37.26,42.74ZM1415.12,1252.79c-21.56,1.18-121.07,11.35-130.69,29.4-4.15,7.78,9.45,13.3,14.59,15.53,66.78,28.99,248.65,26.93,318.51,5.47,7.68-2.36,38.38-11.61,26.74-22.74-30.68-29.35-185.31-30.06-229.15-27.66ZM1150.83,1701.51c10.38-11.11,12.39-29.42,7.72-43.41-2.01-3.46-49.18,10.71-44.8-6.49,1.93-7.59,29.18-14.62,37.13-19.04,15.13-8.41,29.71-26.54,24.21-44.96-.69-2.3-31.43-33.35-33.61-34.36-8.94-4.12-20.12,5.01-29.08-2.95-3.81-8.63,5.01-13.29,11.73-16.48,38.79-18.41,92.32-7.62,85.16-66.4-5.08-41.69-48.88-38.71-80.76-37.2-39.75,1.88-79.86,11.63-119.99,7.95-18.91-1.73-26.55-10.97-4.73-16.66,22.59-5.9,63.24-5.51,82.17-13.83,12.94-5.69,39.21-44.55,43.63-58.37,7.22-22.58,5.89-62.91-26.91-59.06-15.54,1.83-41.83,40.13-54.15,52-65.72,63.32-140.06,55.86-200.68,139.32-16.91,23.28-26.13,49.94-40.7,71.3-12.6,18.47-65.3,36.51-87.73,46.27-63.22,27.49-127.66,52.19-191.29,78.71-29.52,12.31-69.81,35-99.01,42.98-3.73,1.02-7.5,2.19-11.4,1.15-.69-1.98-1.97-4.4-1.73-6.47.84-7.1,30.19-25.43,37.66-30.14,43.38-27.37,89.67-44.64,135.18-66.82,3.11-1.51,10.84-3.34,10.64-7.33-3.61-9.4-56.49-33.53-68.01-38-66.99-25.99-144.66-36.5-215.11-19.17-47.05,128.3-116.43,409.27,94.05,422.24,120.21,7.41,244.13-62.2,339.73-128.46,37.24-25.81,71.88-55.04,108.81-81.25,9.82-2.21,21.77,6.49,31.52,9.65,56.28,18.25,129.6,22.59,187.4,9.33,25.07-5.75,58.95-18.49,57.61-49.37-7.07,2.27-46.39,10.07-39.05-5.96,4.82-10.52,43.05-16.61,54.37-28.73ZM1559.54,1668.19c12.15-2.2,18.41-5.98,24.34-16.64,43.6-78.4,63.16-201.17,65.75-290.28.18-6.09-.25-11.31-2.13-17.08-10.77,5.41-30.09,3.84-33.1,17.88-1.26,105.04-16.93,208.24-54.86,306.12ZM1267.52,1562.19c-14.06-57.81-25.09-117.01-26.27-176.71-2.58-7.86-31.37-1.44-38.27,1.17-2.55.97-21.78,11.29-19.45,13.53,52.92,8.31,76.56,80.22,46.87,121.9-2.48,3.48-15.46,13.75-14.78,16.91,13.71,13.09,33.35,20.22,51.9,23.21Z"/>
            <path class="cls-4" d="M1502.95,650.53l4.58,2.71c-14.36,22.63-36.37,40.68-48.36,65.61-39.27,81.67,52.43,94.46,92.29,142.41,44,52.93,16.24,114.97-37.9,145.98-55.06,31.52-162.92,41.41-108.88,134.8,7.7,13.31,26.5,30.19,31.38,40.75,5.46,11.8-8.08,7.71-14.63,4.48-41.9-20.64-72.43-72.09-60.97-119.14,19.74-81.11,152.09-76.17,167.7-136.3,12.25-47.17-46.93-70.76-75.58-95.7-77.47-67.44-27.17-150.45,50.37-185.61Z"/>
            <path class="cls-4" d="M1650.84,842.45c9.47-.82.88,21.16.6,26.7-1.39,27.81,23.46,45.74,36.92,67.22,35.97,57.42,10.35,108.3-47.48,134.17-38.51,17.23-102.02,18.64-85.98,77.29,1.69,6.17,13.37,29.67,12.52,33.22-2.46,10.26-18.98-2.85-22.94-6.8-33.5-33.51-33.3-79.73,5.22-108.88,30.48-23.06,77.23-23.03,102.85-53.15,28.89-33.98-1.89-57.65-15.36-88.68-12.35-28.46-15.31-62.18,13.65-81.09Z"/>
            <path class="cls-4" d="M602.02,677.72c-9.32-9.24,12.05-35.92,18.49-43.55,57.7-68.36,145.73-77.24,229.04-57,19.93,4.84,34.49,8.71,31.48,33.49-1.39,11.42-15.02,46.43-26.93,49.1-20.79,4.67-73.59-13.67-99.6-15.55-39.06-2.81-76.51,3.41-111.69,20.25-12.75,6.1-25.69,21.47-40.79,13.24Z"/>
            <path class="cls-4" d="M1113.54,672.19l47.55,9.36c7.18,3.17,1.38,35.78-.52,42.69-11.63,42.2-49.48,55.21-77.86,17.79-23.42-30.87-31.28-89.27-14.6-124.25,12.17-25.53,37.64-34.66,61.25-16.39,7.28,5.63,25.28,27.36,20.32,35.89-3.94,6.78-26.34,21.47-33.2,28.87-1.82,1.97-3.67,2.83-2.93,6.05Z"/>
            <path class="cls-4" d="M1162.9,969.61c-11.55,14.04-53.97,33.08-71.83,39.13-99.96,33.89-219.16,22.8-312.7-24.61l-2.53.36c-4.27,10.63-23.56,40.29-26.38,12.72-2.39-23.42,14.78-48.74,34.69-59.38,5.39-2.88,36.22-15.79,35.14-2.98l-19.7,20.47c-.92,4.12,17.9,12.07,21.95,13.84,102.86,44.93,239.05,38.28,339.08-10.98,6.4.09,5.52,7.46,2.27,11.42Z"/>
            <path class="cls-4" d="M337.53,899.2l-5,3.08c-27.63-19.33-17.53-78.21,18.12-83.95,40.15-6.46,74.81,31,89.22,64.53,15.28,35.54,11.57,74.26-18.3,22.24-27.21,9.62-12.92,52.71,13.22,54.46,5.32.36,20.16-5.72,20.89,3.69-1.03,10.63-13.73,14.32-23.06,15.03-42.88,3.27-69.94-42.75-49.86-79.84,10.1-18.65,27.19-17.4.6-39.07-9.94-8.1-22.12-15.32-35.33-9.66-3.19,1.37-10.51,11.07-10.51,13.49v36Z"/>
            <path class="cls-4" d="M873.04,759.71c-6.29,6.3-25.86-3.88-34.25-5.77-60.36-13.53-110.68-2.11-162.76,29.88-21.96,1.59-15.95-16.66-6.45-28.58,40.96-51.37,143.26-62.28,193.78-19.88,6.1,5.12,17.85,16.15,9.68,24.34Z"/>
            <path class="cls-4" d="M1001.5,702.2c7.78,28.02,21.01,60.3,47.42,75.61,14.32,8.3,32.08,9.81,44.66,21.34,23.53,21.58,19.36,57.42.78,80.87-10.19,12.86-45.17,35.01-61.51,29.85-12.69-4,10.96-15.43,14.71-18.65,10.42-8.95,25.37-28.8,27.48-42.5,5.42-35.11-24.09-36.37-44.46-52.57-21.15-16.83-36.86-58.27-35.08-84.95.24-3.61.86-10.61,6-9Z"/>
            <path class="cls-4" d="M1077.53,1056.21c-.24,21.75-34.9,35.84-53.25,37.75-19.29,2.01-51.53-1.16-62.84-18.76-.18-3.39,2.18-4.46,5.09-4.99,10.98-1.97,24.39,2.31,36.09,2.08,10.7-.2,26-2.92,36.47-5.53,6.5-1.62,34.91-14.04,38.44-10.56Z"/>
            <path class="cls-4" d="M1071.53,1574.19c13.14-4.28,20.07,17.27,19.82,26.82-.33,12.91-15.67,40.71-30.95,33.3-4.06-5.73,11.04-21.99,12.64-31.58,1.74-10.44-1.81-18.45-1.51-28.54Z"/>
            <path class="cls-4" d="M1078.75,1468.3c10.73-3.14,19.05,18.06,18.84,26.81-.24,9.86-9.91,31.26-21.15,31.11-11.82-.16,2.35-24.21,2.92-31.29.61-7.61-7.2-24.7-.61-26.63Z"/>
            <path class="cls-4" d="M1064.56,1676.21c23.37,13.01,6.35,53.05-17.72,51.75-10.54-3.43,8.74-21.02,11.06-26.39s3.59-24.77,6.66-25.37Z"/>
          </g>
        </g>
        <rect class="cls-3" x="15.59" y="186.69" width="1776.71" height="1776.71" rx="888.35" ry="888.35"/>
      </g>
      <g class="cls-6">
        <g>
          <path class="cls-4" d="M1203.53,1162.17c38.08,18.63,70.36,47.35,97.18,79.72,17.84-4.42,35.87-8.77,54.1-11.4,79.37-11.45,176.82-11.4,255.09,6.34,23.09,5.23,71.78,16.9,80.09,41.91,2.35,7.08,3.65,39.1,3.64,48.53-.06,81.29-14.03,178.88-37.11,256.94-8.46,28.63-31.77,98.31-54.04,115.96-22.16,17.55-58.39,20.34-85.61,24.4l-2.9,2.56c5.61,25.84,9.78,52.13,13.3,78.34,4.1,30.55,10.98,69.95,12.28,99.81,1.14,26.31-27.97,31.36-35.48,9.4l-25.4-186.6c-2.49-3.71-42.04-1.36-50.11-1.89-20.75-1.34-41.45-7.14-62-10l-.94,119.11c-5.1,23.88-.27,53.91-4.56,77.44-3.86,21.24-33.45,22.4-35.62-1.43-2.18-23.96,3.61-55.49,4.18-80.01.5-21.49,3.3-116.96-1.93-130.23-1.97-4.98-12.46-16.45-16.49-23.51-7.53-13.19-12.48-27.85-18.96-41.51-29.12-8.39-58.32-16.65-85.67-29.85-1.05,6.19-2.31,11.46-4.68,17.36s-13.39,19.85-13.55,21.66c-.26,2.99,4.62,14.29,5.19,20.02,1.46,14.86-1.15,30.52-8.34,43.63-3.26,5.94-14.4,15.86-15.24,18.76-1.79,6.17-.61,16.87-2.62,25.38-20.31,85.61-187.06,79.35-252.52,64.97-16.21-3.56-31.84-10.44-47.79-13.44-108.48,83.79-236.28,180.02-375.09,203.06-462.72,76.81-202.07-622.23-30.4-788.4,35.44-34.3,83.51-66.48,132.03-76.98.53-2.78.39-2.56-1.29-4.16-6.71-6.42-19.11-13.8-26.75-20.8-24.03-22-45.21-47.48-63.91-74.15-11.91,4.51-21.31,10.82-34.07,14.11-87.89,22.63-175.8-53.57-203.48-132.49-18.86-53.77-17.43-120.8,26.93-161.46-31.08-54.58-56.47-113.69-72.87-174.6-21.31-79.14-27.17-163.6,13.09-237.77,7.2-13.27,18.53-25.7,24.7-39.3,8.07-17.8,10.6-38.16,19.29-56.71,48.52-103.64,200.99-191.39,307.32-222.68,155.29-45.71,397.64-42.32,510.98,91.1,6.62,7.8,18.54,29.25,24.16,33.84,6.81,5.56,34.94,14.26,46.55,21.45,63.1,39.13,90.91,126.5,99.11,196.89,4.01,34.38-.17,68.08,2.26,101.74,2.92,40.48,11.14,97.02,18.9,137.1,8.46,43.7,17.92,54.02,37.42,90.58,71.69,134.43,56.58,259.41-38.39,376.29-24.18,29.75-52.91,54.25-79.95,81.02ZM1225.51,468.2c-10.83-43.13-27.62-84.17-51.15-121.83-11.27-18.04-47.54-70.6-67.93-74.06-30.13-5.11-58.28,27.41-83.07,42.72-110.56,68.29-218.82,68.98-344.81,61.15-51.88-3.22-109.36-18.46-153.97,18.06-45.51,37.25-36.77,101.79-19.08,150.99,8.41,23.38,20.77,30.87,11.01,56.94-9.47,25.29-30.42,50.79-33.06,78.94-5.44,58.04,30.2,110.57,41.17,162.99.7,3.34,1.43,6.61.85,10.04l-58.57,5.68c-24.17-32.46-51.51-78.97-96.4-83.6-69.5-7.17-89.93,56.78-78.38,114.38,14.07,70.23,93.93,154.88,170.96,130.15,7.12-2.29,13.59-5.98,19.4-10.6,9.27-7.38,17.2-26.02,30.93-16.83,5.64,3.77,17,27.57,22.49,35.51,94.82,137.05,292.12,195.11,452.71,185.45,149.02-8.96,330.83-171.42,341-323,6.17-92.02-22.79-128.21-61.12-203.04-25.87-50.49-23.11-116.95-35.48-171.54-52.03-26.33-98.62-11.77-146.83,13.16-15.77,8.15-30.05,25.75-48.52,13.2-9.45-6.42-28.19-36.31-27.51-47.59,1.1-18.15,32.45-33.61,47.43-40.21,58.29-25.67,116.34-28.64,167.91,12.93ZM1165.53,1305.2c1.43,9.23-1.04,21.38,0,31,22.9-9.3,46.85-16.84,72.01-15.99,2.83-26.03-4.16-52.81,25.99-64.05-22.85-30.2-57.35-53.94-91.97-69.2-16.26,6.25-31.19,18.82-47.28,27-143.47,72.98-351.8,30.32-487.36-44.3-8.47-2.69-32.89,5.32-42.43,8.5-138.39,46.13-212.65,207.62-262.99,333.01,31.33-.35,61.24-3.93,93-.95,66.61,6.24,132.41,28.95,188.99,63.98,9.37-31.47,19.33-63.72,33.67-93.35,2.65-5.47,11.64-26.68,19.1-24.52,5.78,3.95,5.49,10.4,5.06,16.59-2.46,35.01-20.12,77.42-25.28,112.8-.33,2.3-1.76,7.09.46,8.46l129.7-58.3c24.98-41.05,46.55-86.18,83.28-118.72,45.9-40.66,109.95-50.49,155.08-88.92,33.86-28.83,60.22-87.17,113.69-65.79,15.97,6.39,34.57,25.41,37.26,42.74ZM1415.12,1252.79c-21.56,1.18-121.07,11.35-130.69,29.4-4.15,7.78,9.45,13.3,14.59,15.53,66.78,28.99,248.65,26.93,318.51,5.47,7.68-2.36,38.38-11.61,26.74-22.74-30.68-29.35-185.31-30.06-229.15-27.66ZM1150.83,1701.51c10.38-11.11,12.39-29.42,7.72-43.41-2.01-3.46-49.18,10.71-44.8-6.49,1.93-7.59,29.18-14.62,37.13-19.04,15.13-8.41,29.71-26.54,24.21-44.96-.69-2.3-31.43-33.35-33.61-34.36-8.94-4.12-20.12,5.01-29.08-2.95-3.81-8.63,5.01-13.29,11.73-16.48,38.79-18.41,92.32-7.62,85.16-66.4-5.08-41.69-48.88-38.71-80.76-37.2-39.75,1.88-79.86,11.63-119.99,7.95-18.91-1.73-26.55-10.97-4.73-16.66,22.59-5.9,63.24-5.51,82.17-13.83,12.94-5.69,39.21-44.55,43.63-58.37,7.22-22.58,5.89-62.91-26.91-59.06-15.54,1.83-41.83,40.13-54.15,52-65.72,63.32-140.06,55.86-200.68,139.32-16.91,23.28-26.13,49.94-40.7,71.3-12.6,18.47-65.3,36.51-87.73,46.27-63.22,27.49-127.66,52.19-191.29,78.71-29.52,12.31-69.81,35-99.01,42.98-3.73,1.02-7.5,2.19-11.4,1.15-.69-1.98-1.97-4.4-1.73-6.47.84-7.1,30.19-25.43,37.66-30.14,43.38-27.37,89.67-44.64,135.18-66.82,3.11-1.51,10.84-3.34,10.64-7.33-3.61-9.4-56.49-33.53-68.01-38-66.99-25.99-144.66-36.5-215.11-19.17-47.05,128.3-116.43,409.27,94.05,422.24,120.21,7.41,244.13-62.2,339.73-128.46,37.24-25.81,71.88-55.04,108.81-81.25,9.82-2.21,21.77,6.49,31.52,9.65,56.28,18.25,129.6,22.59,187.4,9.33,25.07-5.75,58.95-18.49,57.61-49.37-7.07,2.27-46.39,10.07-39.05-5.96,4.82-10.52,43.05-16.61,54.37-28.73ZM1559.54,1668.19c12.15-2.2,18.41-5.98,24.34-16.64,43.6-78.4,63.16-201.17,65.75-290.28.18-6.09-.25-11.31-2.13-17.08-10.77,5.41-30.09,3.84-33.1,17.88-1.26,105.04-16.93,208.24-54.86,306.12ZM1267.52,1562.19c-14.06-57.81-25.09-117.01-26.27-176.71-2.58-7.86-31.37-1.44-38.27,1.17-2.55.97-21.78,11.29-19.45,13.53,52.92,8.31,76.56,80.22,46.87,121.9-2.48,3.48-15.46,13.75-14.78,16.91,13.71,13.09,33.35,20.22,51.9,23.21Z"/>
          <path class="cls-4" d="M602.02,677.72c-9.32-9.24,12.05-35.92,18.49-43.55,57.7-68.36,145.73-77.24,229.04-57,19.93,4.84,34.49,8.71,31.48,33.49-1.39,11.42-15.02,46.43-26.93,49.1-20.79,4.67-73.59-13.67-99.6-15.55-39.06-2.81-76.51,3.41-111.69,20.25-12.75,6.1-25.69,21.47-40.79,13.24Z"/>
          <path class="cls-4" d="M1113.54,672.19l47.55,9.36c7.18,3.17,1.38,35.78-.52,42.69-11.63,42.2-49.48,55.21-77.86,17.79-23.42-30.87-31.28-89.27-14.6-124.25,12.17-25.53,37.64-34.66,61.25-16.39,7.28,5.63,25.28,27.36,20.32,35.89-3.94,6.78-26.34,21.47-33.2,28.87-1.82,1.97-3.67,2.83-2.93,6.05Z"/>
          <path class="cls-4" d="M1162.9,969.61c-11.55,14.04-53.97,33.08-71.83,39.13-99.96,33.89-219.16,22.8-312.7-24.61l-2.53.36c-4.27,10.63-23.56,40.29-26.38,12.72-2.39-23.42,14.78-48.74,34.69-59.38,5.39-2.88,36.22-15.79,35.14-2.98l-19.7,20.47c-.92,4.12,17.9,12.07,21.95,13.84,102.86,44.93,239.05,38.28,339.08-10.98,6.4.09,5.52,7.46,2.27,11.42Z"/>
          <path class="cls-4" d="M337.53,899.2l-5,3.08c-27.63-19.33-17.53-78.21,18.12-83.95,40.15-6.46,74.81,31,89.22,64.53,15.28,35.54,11.57,74.26-18.3,22.24-27.21,9.62-12.92,52.71,13.22,54.46,5.32.36,20.16-5.72,20.89,3.69-1.03,10.63-13.73,14.32-23.06,15.03-42.88,3.27-69.94-42.75-49.86-79.84,10.1-18.65,27.19-17.4.6-39.07-9.94-8.1-22.12-15.32-35.33-9.66-3.19,1.37-10.51,11.07-10.51,13.49v36Z"/>
          <path class="cls-4" d="M873.04,759.71c-6.29,6.3-25.86-3.88-34.25-5.77-60.36-13.53-110.68-2.11-162.76,29.88-21.96,1.59-15.95-16.66-6.45-28.58,40.96-51.37,143.26-62.28,193.78-19.88,6.1,5.12,17.85,16.15,9.68,24.34Z"/>
          <path class="cls-4" d="M1001.5,702.2c7.78,28.02,21.01,60.3,47.42,75.61,14.32,8.3,32.08,9.81,44.66,21.34,23.53,21.58,19.36,57.42.78,80.87-10.19,12.86-45.17,35.01-61.51,29.85-12.69-4,10.96-15.43,14.71-18.65,10.42-8.95,25.37-28.8,27.48-42.5,5.42-35.11-24.09-36.37-44.46-52.57-21.15-16.83-36.86-58.27-35.08-84.95.24-3.61.86-10.61,6-9Z"/>
          <path class="cls-4" d="M1077.53,1056.21c-.24,21.75-34.9,35.84-53.25,37.75-19.29,2.01-51.53-1.16-62.84-18.76-.18-3.39,2.18-4.46,5.09-4.99,10.98-1.97,24.39,2.31,36.09,2.08,10.7-.2,26-2.92,36.47-5.53,6.5-1.62,34.91-14.04,38.44-10.56Z"/>
          <path class="cls-4" d="M1071.53,1574.19c13.14-4.28,20.07,17.27,19.82,26.82-.33,12.91-15.67,40.71-30.95,33.3-4.06-5.73,11.04-21.99,12.64-31.58,1.74-10.44-1.81-18.45-1.51-28.54Z"/>
          <path class="cls-4" d="M1078.75,1468.3c10.73-3.14,19.05,18.06,18.84,26.81-.24,9.86-9.91,31.26-21.15,31.11-11.82-.16,2.35-24.21,2.92-31.29.61-7.61-7.2-24.7-.61-26.63Z"/>
          <path class="cls-4" d="M1064.56,1676.21c23.37,13.01,6.35,53.05-17.72,51.75-10.54-3.43,8.74-21.02,11.06-26.39s3.59-24.77,6.66-25.37Z"/>
        </g>
      </g>
      <g class="cls-7">
        <g>
          <path class="cls-4" d="M1203.53,1162.17c38.08,18.63,70.36,47.35,97.18,79.72,17.84-4.42,35.87-8.77,54.1-11.4,79.37-11.45,176.82-11.4,255.09,6.34,23.09,5.23,71.78,16.9,80.09,41.91,2.35,7.08,3.65,39.1,3.64,48.53-.06,81.29-14.03,178.88-37.11,256.94-8.46,28.63-31.77,98.31-54.04,115.96-22.16,17.55-58.39,20.34-85.61,24.4l-2.9,2.56c5.61,25.84,9.78,52.13,13.3,78.34,4.1,30.55,10.98,69.95,12.28,99.81,1.14,26.31-27.97,31.36-35.48,9.4l-25.4-186.6c-2.49-3.71-42.04-1.36-50.11-1.89-20.75-1.34-41.45-7.14-62-10l-.94,119.11c-5.1,23.88-.27,53.91-4.56,77.44-3.86,21.24-33.45,22.4-35.62-1.43-2.18-23.96,3.61-55.49,4.18-80.01.5-21.49,3.3-116.96-1.93-130.23-1.97-4.98-12.46-16.45-16.49-23.51-7.53-13.19-12.48-27.85-18.96-41.51-29.12-8.39-58.32-16.65-85.67-29.85-1.05,6.19-2.31,11.46-4.68,17.36s-13.39,19.85-13.55,21.66c-.26,2.99,4.62,14.29,5.19,20.02,1.46,14.86-1.15,30.52-8.34,43.63-3.26,5.94-14.4,15.86-15.24,18.76-1.79,6.17-.61,16.87-2.62,25.38-20.31,85.61-187.06,79.35-252.52,64.97-16.21-3.56-31.84-10.44-47.79-13.44-108.48,83.79-236.28,180.02-375.09,203.06-462.72,76.81-202.07-622.23-30.4-788.4,35.44-34.3,83.51-66.48,132.03-76.98.53-2.78.39-2.56-1.29-4.16-6.71-6.42-19.11-13.8-26.75-20.8-24.03-22-45.21-47.48-63.91-74.15-11.91,4.51-21.31,10.82-34.07,14.11-87.89,22.63-175.8-53.57-203.48-132.49-18.86-53.77-17.43-120.8,26.93-161.46-31.08-54.58-56.47-113.69-72.87-174.6-21.31-79.14-27.17-163.6,13.09-237.77,7.2-13.27,18.53-25.7,24.7-39.3,8.07-17.8,10.6-38.16,19.29-56.71,48.52-103.64,200.99-191.39,307.32-222.68,155.29-45.71,397.64-42.32,510.98,91.1,6.62,7.8,18.54,29.25,24.16,33.84,6.81,5.56,34.94,14.26,46.55,21.45,63.1,39.13,90.91,126.5,99.11,196.89,4.01,34.38-.17,68.08,2.26,101.74,2.92,40.48,11.14,97.02,18.9,137.1,8.46,43.7,17.92,54.02,37.42,90.58,71.69,134.43,56.58,259.41-38.39,376.29-24.18,29.75-52.91,54.25-79.95,81.02ZM1225.51,468.2c-10.83-43.13-27.62-84.17-51.15-121.83-11.27-18.04-47.54-70.6-67.93-74.06-30.13-5.11-58.28,27.41-83.07,42.72-110.56,68.29-218.82,68.98-344.81,61.15-51.88-3.22-109.36-18.46-153.97,18.06-45.51,37.25-36.77,101.79-19.08,150.99,8.41,23.38,20.77,30.87,11.01,56.94-9.47,25.29-30.42,50.79-33.06,78.94-5.44,58.04,30.2,110.57,41.17,162.99.7,3.34,1.43,6.61.85,10.04l-58.57,5.68c-24.17-32.46-51.51-78.97-96.4-83.6-69.5-7.17-89.93,56.78-78.38,114.38,14.07,70.23,93.93,154.88,170.96,130.15,7.12-2.29,13.59-5.98,19.4-10.6,9.27-7.38,17.2-26.02,30.93-16.83,5.64,3.77,17,27.57,22.49,35.51,94.82,137.05,292.12,195.11,452.71,185.45,149.02-8.96,330.83-171.42,341-323,6.17-92.02-22.79-128.21-61.12-203.04-25.87-50.49-23.11-116.95-35.48-171.54-52.03-26.33-98.62-11.77-146.83,13.16-15.77,8.15-30.05,25.75-48.52,13.2-9.45-6.42-28.19-36.31-27.51-47.59,1.1-18.15,32.45-33.61,47.43-40.21,58.29-25.67,116.34-28.64,167.91,12.93ZM1165.53,1305.2c1.43,9.23-1.04,21.38,0,31,22.9-9.3,46.85-16.84,72.01-15.99,2.83-26.03-4.16-52.81,25.99-64.05-22.85-30.2-57.35-53.94-91.97-69.2-16.26,6.25-31.19,18.82-47.28,27-143.47,72.98-351.8,30.32-487.36-44.3-8.47-2.69-32.89,5.32-42.43,8.5-138.39,46.13-212.65,207.62-262.99,333.01,31.33-.35,61.24-3.93,93-.95,66.61,6.24,132.41,28.95,188.99,63.98,9.37-31.47,19.33-63.72,33.67-93.35,2.65-5.47,11.64-26.68,19.1-24.52,5.78,3.95,5.49,10.4,5.06,16.59-2.46,35.01-20.12,77.42-25.28,112.8-.33,2.3-1.76,7.09.46,8.46l129.7-58.3c24.98-41.05,46.55-86.18,83.28-118.72,45.9-40.66,109.95-50.49,155.08-88.92,33.86-28.83,60.22-87.17,113.69-65.79,15.97,6.39,34.57,25.41,37.26,42.74ZM1415.12,1252.79c-21.56,1.18-121.07,11.35-130.69,29.4-4.15,7.78,9.45,13.3,14.59,15.53,66.78,28.99,248.65,26.93,318.51,5.47,7.68-2.36,38.38-11.61,26.74-22.74-30.68-29.35-185.31-30.06-229.15-27.66ZM1150.83,1701.51c10.38-11.11,12.39-29.42,7.72-43.41-2.01-3.46-49.18,10.71-44.8-6.49,1.93-7.59,29.18-14.62,37.13-19.04,15.13-8.41,29.71-26.54,24.21-44.96-.69-2.3-31.43-33.35-33.61-34.36-8.94-4.12-20.12,5.01-29.08-2.95-3.81-8.63,5.01-13.29,11.73-16.48,38.79-18.41,92.32-7.62,85.16-66.4-5.08-41.69-48.88-38.71-80.76-37.2-39.75,1.88-79.86,11.63-119.99,7.95-18.91-1.73-26.55-10.97-4.73-16.66,22.59-5.9,63.24-5.51,82.17-13.83,12.94-5.69,39.21-44.55,43.63-58.37,7.22-22.58,5.89-62.91-26.91-59.06-15.54,1.83-41.83,40.13-54.15,52-65.72,63.32-140.06,55.86-200.68,139.32-16.91,23.28-26.13,49.94-40.7,71.3-12.6,18.47-65.3,36.51-87.73,46.27-63.22,27.49-127.66,52.19-191.29,78.71-29.52,12.31-69.81,35-99.01,42.98-3.73,1.02-7.5,2.19-11.4,1.15-.69-1.98-1.97-4.4-1.73-6.47.84-7.1,30.19-25.43,37.66-30.14,43.38-27.37,89.67-44.64,135.18-66.82,3.11-1.51,10.84-3.34,10.64-7.33-3.61-9.4-56.49-33.53-68.01-38-66.99-25.99-144.66-36.5-215.11-19.17-47.05,128.3-116.43,409.27,94.05,422.24,120.21,7.41,244.13-62.2,339.73-128.46,37.24-25.81,71.88-55.04,108.81-81.25,9.82-2.21,21.77,6.49,31.52,9.65,56.28,18.25,129.6,22.59,187.4,9.33,25.07-5.75,58.95-18.49,57.61-49.37-7.07,2.27-46.39,10.07-39.05-5.96,4.82-10.52,43.05-16.61,54.37-28.73ZM1267.52,1562.19c-14.06-57.81-25.09-117.01-26.27-176.71-2.58-7.86-31.37-1.44-38.27,1.17-2.55.97-21.78,11.29-19.45,13.53,52.92,8.31,76.56,80.22,46.87,121.9-2.48,3.48-15.46,13.75-14.78,16.91,13.71,13.09,33.35,20.22,51.9,23.21Z"/>
          <path class="cls-4" d="M1502.95,650.53l4.58,2.71c-14.36,22.63-36.37,40.68-48.36,65.61-39.27,81.67,52.43,94.46,92.29,142.41,44,52.93,16.24,114.97-37.9,145.98-55.06,31.52-162.92,41.41-108.88,134.8,7.7,13.31,26.5,30.19,31.38,40.75,5.46,11.8-8.08,7.71-14.63,4.48-41.9-20.64-72.43-72.09-60.97-119.14,19.74-81.11,152.09-76.17,167.7-136.3,12.25-47.17-46.93-70.76-75.58-95.7-77.47-67.44-27.17-150.45,50.37-185.61Z"/>
          <path class="cls-4" d="M1650.84,842.45c9.47-.82.88,21.16.6,26.7-1.39,27.81,23.46,45.74,36.92,67.22,35.97,57.42,10.35,108.3-47.48,134.17-38.51,17.23-102.02,18.64-85.98,77.29,1.69,6.17,13.37,29.67,12.52,33.22-2.46,10.26-18.98-2.85-22.94-6.8-33.5-33.51-33.3-79.73,5.22-108.88,30.48-23.06,77.23-23.03,102.85-53.15,28.89-33.98-1.89-57.65-15.36-88.68-12.35-28.46-15.31-62.18,13.65-81.09Z"/>
          <path class="cls-4" d="M602.02,677.72c-9.32-9.24,12.05-35.92,18.49-43.55,57.7-68.36,145.73-77.24,229.04-57,19.93,4.84,34.49,8.71,31.48,33.49-1.39,11.42-15.02,46.43-26.93,49.1-20.79,4.67-73.59-13.67-99.6-15.55-39.06-2.81-76.51,3.41-111.69,20.25-12.75,6.1-25.69,21.47-40.79,13.24Z"/>
          <path class="cls-4" d="M1113.54,672.19l47.55,9.36c7.18,3.17,1.38,35.78-.52,42.69-11.63,42.2-49.48,55.21-77.86,17.79-23.42-30.87-31.28-89.27-14.6-124.25,12.17-25.53,37.64-34.66,61.25-16.39,7.28,5.63,25.28,27.36,20.32,35.89-3.94,6.78-26.34,21.47-33.2,28.87-1.82,1.97-3.67,2.83-2.93,6.05Z"/>
          <path class="cls-4" d="M1162.9,969.61c-11.55,14.04-53.97,33.08-71.83,39.13-99.96,33.89-219.16,22.8-312.7-24.61l-2.53.36c-4.27,10.63-23.56,40.29-26.38,12.72-2.39-23.42,14.78-48.74,34.69-59.38,5.39-2.88,36.22-15.79,35.14-2.98l-19.7,20.47c-.92,4.12,17.9,12.07,21.95,13.84,102.86,44.93,239.05,38.28,339.08-10.98,6.4.09,5.52,7.46,2.27,11.42Z"/>
          <path class="cls-4" d="M337.53,899.2l-5,3.08c-27.63-19.33-17.53-78.21,18.12-83.95,40.15-6.46,74.81,31,89.22,64.53,15.28,35.54,11.57,74.26-18.3,22.24-27.21,9.62-12.92,52.71,13.22,54.46,5.32.36,20.16-5.72,20.89,3.69-1.03,10.63-13.73,14.32-23.06,15.03-42.88,3.27-69.94-42.75-49.86-79.84,10.1-18.65,27.19-17.4.6-39.07-9.94-8.1-22.12-15.32-35.33-9.66-3.19,1.37-10.51,11.07-10.51,13.49v36Z"/>
          <path class="cls-4" d="M873.04,759.71c-6.29,6.3-25.86-3.88-34.25-5.77-60.36-13.53-110.68-2.11-162.76,29.88-21.96,1.59-15.95-16.66-6.45-28.58,40.96-51.37,143.26-62.28,193.78-19.88,6.1,5.12,17.85,16.15,9.68,24.34Z"/>
          <path class="cls-4" d="M1001.5,702.2c7.78,28.02,21.01,60.3,47.42,75.61,14.32,8.3,32.08,9.81,44.66,21.34,23.53,21.58,19.36,57.42.78,80.87-10.19,12.86-45.17,35.01-61.51,29.85-12.69-4,10.96-15.43,14.71-18.65,10.42-8.95,25.37-28.8,27.48-42.5,5.42-35.11-24.09-36.37-44.46-52.57-21.15-16.83-36.86-58.27-35.08-84.95.24-3.61.86-10.61,6-9Z"/>
          <path class="cls-4" d="M1077.53,1056.21c-.24,21.75-34.9,35.84-53.25,37.75-19.29,2.01-51.53-1.16-62.84-18.76-.18-3.39,2.18-4.46,5.09-4.99,10.98-1.97,24.39,2.31,36.09,2.08,10.7-.2,26-2.92,36.47-5.53,6.5-1.62,34.91-14.04,38.44-10.56Z"/>
          <path class="cls-4" d="M1071.53,1574.19c13.14-4.28,20.07,17.27,19.82,26.82-.33,12.91-15.67,40.71-30.95,33.3-4.06-5.73,11.04-21.99,12.64-31.58,1.74-10.44-1.81-18.45-1.51-28.54Z"/>
          <path class="cls-4" d="M1078.75,1468.3c10.73-3.14,19.05,18.06,18.84,26.81-.24,9.86-9.91,31.26-21.15,31.11-11.82-.16,2.35-24.21,2.92-31.29.61-7.61-7.2-24.7-.61-26.63Z"/>
          <path class="cls-4" d="M1064.56,1676.21c23.37,13.01,6.35,53.05-17.72,51.75-10.54-3.43,8.74-21.02,11.06-26.39s3.59-24.77,6.66-25.37Z"/>
        </g>
      </g>
    </g>
    <path class="cls-4" d="M224.69,502.48c5.02,0,104.45,230.68,104.45,230.68l-35.43,70.54-13.25,47.71,17.33,76.15,46.41,75.25,85.29,46.41,53.93-8.78,30.1-3.76,105.35,106.61-13.8,18.81s-119.15,56.44-122.91,56.44-102.09,126.05-102.09,126.05l-117.4,325.47-101.59-107.86-87.79-204.44-57.69-173.08,15.05-188.13s17.56-155.52,20.07-159.28,67.32-176.74,67.32-176.74l106.66-158.04Z"/>
    <g>
      <path class="cls-4" d="M1502.95,650.53l4.58,2.71c-14.36,22.63-36.37,40.68-48.36,65.61-39.27,81.67,52.43,94.46,92.29,142.41,44,52.93,16.24,114.97-37.9,145.98-55.06,31.52-162.92,41.41-108.88,134.8,7.7,13.31,26.5,30.19,31.38,40.75,5.46,11.8-8.08,7.71-14.63,4.48-41.9-20.64-72.43-72.09-60.97-119.14,19.74-81.11,152.09-76.17,167.7-136.3,12.25-47.17-46.93-70.76-75.58-95.7-77.47-67.44-27.17-150.45,50.37-185.61Z"/>
      <path class="cls-4" d="M1650.84,842.45c9.47-.82.88,21.16.6,26.7-1.39,27.81,23.46,45.74,36.92,67.22,35.97,57.42,10.35,108.3-47.48,134.17-38.51,17.23-102.02,18.64-85.98,77.29,1.69,6.17,13.37,29.67,12.52,33.22-2.46,10.26-18.98-2.85-22.94-6.8-33.5-33.51-33.3-79.73,5.22-108.88,30.48-23.06,77.23-23.03,102.85-53.15,28.89-33.98-1.89-57.65-15.36-88.68-12.35-28.46-15.31-62.18,13.65-81.09Z"/>
    </g>
    <path class="cls-4" d="M1239.96,248.44c-8.93-1.09-44.27,17.46-44.27,17.46l73.47,324.22,71.41,174.92,27.39,104.25-30.04,77.74-109.55,181.1-32.69,29.15,106.01,98.94,76.86-9.72,194.36-12.37,101.6,37.99-7.07,224.39,32.42-7.11,85.31-245.78,11.26-172.27-22.98-228.96-74.21-191.89-116.07-165.53-273.53-213.79-65.37-20.32"/>
    <path class="cls-2" d="M1608.48,1342.43c6.47-1.68,19.52-5.26,29.19-9.04,2.82-1.1,5.8,1.1,5.84,4.35.56,39.84.29,244.04-61.47,337.26-2.98,4.5-9.46.63-7.56-4.51,19.28-52.27,54.49-174.52,30.74-322.65-.39-2.45,1.02-4.82,3.25-5.4Z"/>
    <path class="cls-2" d="M1491.51,632.54l4.58,2.71c-14.36,22.63-36.37,40.68-48.36,65.61-39.27,81.67,52.43,94.46,92.29,142.41,44,52.93,16.24,114.97-37.9,145.98-55.06,31.52-162.92,41.41-108.88,134.8,7.7,13.31,26.5,30.19,31.38,40.75,5.46,11.8-8.08,7.71-14.63,4.48-41.9-20.64-72.43-72.09-60.97-119.14,19.74-81.11,152.09-76.17,167.7-136.3,12.25-47.17-46.93-70.76-75.58-95.7-77.47-67.44-27.17-150.45,50.37-185.61Z"/>
    <path class="cls-2" d="M1639.4,824.45c9.47-.82.88,21.16.6,26.7-1.39,27.81,23.46,45.74,36.92,67.22,35.97,57.42,10.35,108.3-47.48,134.17-38.51,17.23-102.02,18.64-85.98,77.29,1.69,6.17,13.37,29.67,12.52,33.22-2.46,10.26-18.98-2.85-22.94-6.8-33.5-33.51-33.3-79.73,5.22-108.88,30.48-23.06,77.23-23.03,102.85-53.15,28.89-33.98-1.89-57.65-15.36-88.68-12.35-28.46-15.31-62.18,13.65-81.09Z"/>
  </g>
</svg>