<svg width="504" height="674" viewBox="0 0 504 674" fill="none" xmlns="http://www.w3.org/2000/svg">
<g clip-path="url(#clip0_524_15109)">
<path d="M427.535 578.21C422.239 576.563 416.649 578.138 411.191 577.769C404.547 577.319 397.376 575.198 390.778 574.133L390.564 607.11C389.461 613.417 389.765 619.851 389.801 626.235H434.292L427.539 578.215L427.535 578.21Z" fill="#FEEDE7"/>
<path d="M256.498 405.988C320.143 403.836 394.638 333.61 374.988 266.337C370.16 249.811 358.716 236.287 353.662 220.433C348.639 204.68 349.302 187.621 345.165 171.681C329.017 162.835 311.442 168.122 296.324 176.363C291.361 179.071 286.02 184.913 280.071 180.531C276.529 177.919 270.339 168.341 270.798 163.991C271.629 156.105 289.176 149.293 295.825 147.232C312.023 142.213 328.744 143.651 342.445 154.171C339.23 140.943 333.744 127.706 326.76 116.03C323.181 110.051 309.835 90.7116 303.177 89.6605C293.477 88.1315 282.982 99.4392 275.267 104.363C237.833 128.266 195.318 127.051 152.59 124.166C139.011 123.247 125.492 120.253 112.877 127.574C94.7888 138.072 95.3383 159.586 100.87 177.341C104.503 188.999 110.415 190.656 104.344 204.02C100.833 211.747 95.2929 218.691 94.7207 227.559C93.6263 244.523 102.037 258.256 106.655 273.814C107.74 277.477 109.012 281.167 108.803 285.071L89.1622 286.796C81.919 278.291 76.474 267.625 66.2926 261.978C53.836 255.071 38.0597 258.611 32.365 272.353C22.615 295.878 40.2486 326.452 61.3154 337.414C71.3788 342.652 85.7972 344.535 94.8887 336.354C97.4046 334.088 99.8705 328.404 104.13 330.889C107.1 332.618 110.951 341.136 113.24 344.485C141.963 386.476 207.384 407.649 256.498 405.988ZM74.5985 326.835C61.4607 325.51 53.8905 309.762 60.9702 298.736C63.754 294.395 68.2816 293.835 63.2318 288.684C60.0802 285.476 53.6634 280.944 49.1358 283.697C48.5046 284.079 45.7435 287.569 45.7435 288.025V300.524C43.0369 302.531 40.7118 298.158 39.7672 295.833C36.7064 288.334 39.7218 275.352 48.3592 272.917C62.1691 269.027 75.1707 282.446 80.1615 293.999C81.3695 296.802 84.8526 308.042 82.3095 310.112C78.8945 312.892 74.5849 302.19 73.277 302.404C65.3162 306.39 70.5704 319.527 78.236 320.05C80.5929 320.209 85.2341 317.547 85.2568 321.656C85.2795 326.084 78.0135 327.18 74.5985 326.835ZM290.498 359.151C283.355 365.927 269.408 367.255 260.553 363.706C258.387 362.837 253.342 360.198 254.995 357.431C259.608 356.025 264.522 357.927 269.172 357.791C272.274 357.7 277.842 356.703 280.848 355.843C282.905 355.256 292.169 351.147 293.468 352.08C295.234 353.345 291.67 358.046 290.498 359.151ZM293.009 200.767C296.415 196.935 301.751 195.62 306.619 197.113C311.111 198.492 318.935 206.614 317.941 211.656C317.409 214.363 308.536 219.519 306.379 222.345C306.029 222.8 305.498 222.922 305.702 223.71L321.714 226.431C324.221 227.059 322.287 239.085 321.692 241.329C319.003 251.417 310.543 258.788 300.384 252.445C286.924 244.041 282.501 212.589 293.009 200.767ZM267.374 233.256C269.2 233.862 269.104 236.815 269.636 238.253C272.519 246.107 276.647 254.834 284.245 259.071C290.089 262.329 296.974 262.429 301.274 268.372C305.688 274.474 305.366 282.491 302.246 289.098C298.577 296.87 286.066 305.776 277.165 303.205C275.707 301.052 283.264 297.28 284.631 295.992C287.065 293.699 291.706 286.964 292.351 283.729C294.767 271.598 285.194 271.475 278.268 265.964C272.238 261.164 268.06 252.454 266.566 244.983C266.157 242.935 264.713 233.834 267.379 233.256H267.374ZM133.607 221.093C134.843 217.171 140.878 209.581 143.898 206.596C163.225 187.484 194.405 184.517 219.609 192.012C231.258 195.475 229.2 204.134 224.573 213.107C219.918 222.135 216.38 220.611 207.148 219.036C190.959 216.283 183.243 212.329 165.764 215.501C154.951 217.467 150.75 220.898 141.641 225.466C137.354 227.618 131.714 227.086 133.603 221.084L133.607 221.093ZM159.297 261.337C151.691 263.093 153.407 255.503 156.663 251.43C163.857 242.421 177.267 236.988 188.561 236.114C196.526 235.5 205.45 236.21 212.861 239.226C216.671 240.778 226.121 246.157 226.289 250.798C226.512 256.85 216.312 252.013 213.497 251.321C198.983 247.767 183.429 249.565 169.887 255.59C167.349 256.718 161.018 260.941 159.293 261.337H159.297ZM192.802 328.764C191.549 332.277 184.792 342.074 183.316 333.369C181.803 324.45 189.941 314.489 197.861 311.345C199.546 310.676 207.675 307.8 207.271 311.641C207.148 312.806 201.749 317.388 200.904 318.935C200.904 320.678 211.594 324.714 213.488 325.41C247.688 337.983 288.164 335.012 321.015 319.695C326.047 320.291 321.551 324.723 319.457 326.357C291.275 348.371 238.165 346.469 206.263 334.47C201.694 332.75 197.344 330.225 192.802 328.768V328.764Z" fill="#FEEDE7"/>
<path d="M220.291 590.614C223.356 589.791 227.806 592.867 230.863 593.891C249.809 600.257 276.738 601.886 296.016 596.48C303.336 594.428 313.304 589.973 312.5 580.959C310.184 582.078 301.574 582.933 299.79 581.2C299.122 580.604 299.304 579.885 299.54 579.12C300.902 574.734 314.903 572.841 318.399 568.459C321.251 564.882 322.16 558.917 320.629 554.644C319.875 554.002 309.049 556.751 306.174 554.808C305.552 554.389 305.207 553.397 305.321 552.655C305.811 549.429 315.166 547.254 317.968 545.752C322.468 543.341 328.413 536.242 325.992 530.855C324.635 527.829 316.942 522.518 314.762 519.383C312.301 518.336 306.415 521.135 305.007 518.236C303.277 514.673 309.944 512.039 312.419 511.11C322.092 507.484 337.881 508.362 337.94 493.915C337.977 484.882 332.5 479.108 323.608 478.239C306.565 476.578 289.086 482.097 271.87 480.983C269.917 480.855 264.232 480.377 264.023 477.925C264.94 475.445 268.727 474.753 271.116 474.28C278.223 472.865 290.843 473.265 296.774 469.984C301.111 467.586 309.603 454.986 311.015 450.163C313.232 442.582 312.083 429.022 301.025 431.52C296.388 432.567 287.969 444.925 284.163 448.716C265.571 467.24 237.774 469.702 220.413 490.752C212.934 499.821 210.136 510.055 203.81 518.66C199.887 523.997 191.776 527.469 185.773 530.136C162.771 540.347 138.953 548.81 115.81 558.675C104.117 563.663 90.8881 571.426 79.0945 575.066C76.1927 575.962 71.3018 578.247 72.0692 573.487C72.3871 571.521 78.8084 567.075 80.7067 565.774C96.8598 554.689 115.606 548.337 132.867 539.396L133.094 538.226C106.133 520.298 70.7613 512.316 38.9318 519.834C35.1081 529.995 31.7885 540.419 29.1682 550.958C21.4208 582.124 12.8152 637.988 48.146 655.58C66.3336 664.635 92.8726 661.336 111.751 655.507C152.644 642.885 186.781 616.156 220.282 590.614H220.291ZM293.741 490.57C299.249 490.188 300.888 498.101 300.148 502.447C299.599 505.668 295.675 512.153 291.702 509.987C290.643 506.301 293.84 502.551 293.918 499.352C293.959 497.596 291.797 491.225 293.741 490.57ZM291.22 526.709C291.829 524.757 294.753 526.568 295.739 527.533C299.594 531.31 298.849 538.581 295.92 542.745C294.54 544.706 290.112 549.051 287.655 546.754C286.098 545.297 291.692 537.689 292.065 535.25C292.442 532.779 290.902 527.747 291.225 526.709H291.22ZM286.888 568.932C287.387 567.672 288.146 560.787 288.468 560.505C292.692 560.464 293.35 565.97 292.946 569.314C292.387 573.928 287.169 579.675 282.16 577.719C281.293 573.978 285.848 571.535 286.883 568.927L286.888 568.932Z" fill="#FEEDE7"/>
<path d="M364.911 431.875C371.827 437.254 398.906 440.102 407.989 440.53C426.304 441.39 461.803 440.921 478.41 433.777C480.363 432.935 485.78 430.71 483.405 427.916C482.647 427.02 477.742 424.777 476.384 424.276C460.399 418.356 431.553 418.238 414.374 418.715C400.718 419.098 383.548 420.121 370.569 424.372C366.959 425.555 359.566 427.725 364.906 431.875H364.911Z" fill="#B77D3D"/>
<path d="M473.66 454.927C473.083 489.801 468.169 524.834 455.417 557.32C459.673 557.388 461.921 553.811 463.819 550.517C476.584 528.361 482.084 493.31 484.005 468.019C484.468 461.912 485.73 455.71 484.45 449.603C481.507 450.623 474.477 451.273 473.66 454.927Z" fill="white"/>
<path d="M503.959 327.34L503.541 326.616C504.686 313.497 485.385 301.812 485.79 290.309C485.849 288.607 489.736 278.491 484.745 281.049C475.74 285.663 477.093 299.3 480.281 307.2C483.801 315.932 493.183 323.836 488.478 333.874C482.211 347.243 461.008 347.32 450.214 356.444C438.929 365.977 438.942 381.252 449.056 391.664C451.099 393.766 454.142 396.56 457.262 395.777C459.16 394.421 454.36 385.521 453.733 383.345C448.152 364.002 470.245 362.933 482.624 357.549C492.983 353.045 503.042 343.612 503.964 331.885C504.082 330.393 503.882 328.841 503.964 327.34H503.959Z" fill="#333333"/>
<path d="M388.253 355.766C384.357 370.391 392.912 387.705 405.66 395.14C408.225 396.637 411.073 398.23 414.134 397.793C416.372 395.531 405.242 384.337 403.77 382.035C383.58 350.505 423.339 346.519 441.499 335.439C458.656 324.973 466.48 304.337 452.884 287.378C440.277 271.657 409.797 267.216 421 240.819C424.933 231.554 433.211 225.653 437.721 216.898C436.576 215.319 431.209 218.499 429.869 219.255C404.974 233.274 396.268 259.767 420.269 280.057C429.524 287.883 449.192 296.106 444.097 311.645C437.871 330.648 395.215 329.624 388.248 355.766H388.253Z" fill="#333333"/>
<path d="M207.148 219.041C216.381 220.611 219.918 222.135 224.573 213.112C229.201 204.139 231.258 195.479 219.61 192.016C194.406 184.522 163.226 187.484 143.898 206.6C140.878 209.585 134.847 217.171 133.608 221.098C131.714 227.095 137.359 227.628 141.646 225.48C150.755 220.911 154.951 217.476 165.769 215.514C183.248 212.338 190.964 216.297 207.153 219.05L207.148 219.041Z" fill="#333333"/>
<path d="M319.462 326.352C321.556 324.719 326.052 320.287 321.02 319.691C288.173 335.007 247.693 337.983 213.493 325.406C211.599 324.71 200.909 320.673 200.909 318.931C201.749 317.384 207.153 312.806 207.276 311.636C207.68 307.796 199.546 310.676 197.866 311.341C189.942 314.485 181.808 324.446 183.321 333.364C184.796 342.069 191.554 332.272 192.807 328.759C197.348 330.216 201.699 332.741 206.267 334.461C238.17 346.46 291.284 348.362 319.462 326.348V326.352Z" fill="#333333"/>
<path d="M300.385 252.445C310.543 258.788 319.004 251.417 321.692 241.329C322.291 239.085 324.221 227.059 321.715 226.431L305.702 223.71C305.498 222.922 306.029 222.799 306.379 222.344C308.536 219.519 317.405 214.363 317.941 211.656C318.935 206.614 311.111 198.487 306.62 197.113C301.751 195.62 296.415 196.935 293.01 200.767C282.497 212.588 286.924 244.045 300.385 252.445Z" fill="#333333"/>
<path d="M78.2361 320.05C70.5705 319.526 65.3162 306.39 73.277 302.403C74.5849 302.194 78.89 312.897 82.3096 310.112C84.8526 308.041 81.3695 296.797 80.1616 293.999C75.1707 282.446 62.1692 269.031 48.3593 272.917C39.7218 275.347 36.7065 288.334 39.7673 295.833C40.7164 298.158 43.0415 302.531 45.7435 300.524V288.024C45.7435 287.569 48.5046 284.079 49.1358 283.697C53.6634 280.949 60.0802 285.476 63.2318 288.684C68.2817 293.831 63.7586 294.395 60.9703 298.736C53.8905 309.761 61.4562 325.51 74.5985 326.834C78.0135 327.18 85.275 326.084 85.2568 321.656C85.2387 317.547 80.593 320.214 78.2361 320.05Z" fill="#333333"/>
<path d="M213.497 251.326C216.313 252.017 226.512 256.854 226.29 250.802C226.117 246.166 216.671 240.783 212.861 239.231C205.445 236.214 196.526 235.5 188.561 236.118C177.267 236.992 163.857 242.425 156.663 251.435C153.412 255.508 151.691 263.098 159.297 261.341C161.023 260.941 167.349 256.723 169.892 255.594C183.434 249.574 198.988 247.772 213.502 251.326H213.497Z" fill="#333333"/>
<path d="M278.264 265.969C285.185 271.479 294.763 271.602 292.347 283.733C291.702 286.969 287.061 293.703 284.627 295.997C283.26 297.284 275.703 301.057 277.161 303.209C286.062 305.775 298.573 296.875 302.242 289.103C305.362 282.496 305.684 274.478 301.27 268.376C296.97 262.433 290.085 262.328 284.24 259.075C276.643 254.839 272.52 246.111 269.631 238.257C269.1 236.815 269.195 233.866 267.37 233.261C264.709 233.839 266.148 242.944 266.557 244.987C268.056 252.459 272.233 261.168 278.26 265.969H278.264Z" fill="#333333"/>
<path d="M293.468 352.08C292.169 351.147 282.905 355.256 280.848 355.843C277.837 356.703 272.27 357.695 269.172 357.791C264.522 357.932 259.609 356.025 254.995 357.431C253.346 360.202 258.392 362.842 260.553 363.706C269.413 367.251 283.355 365.922 290.498 359.151C291.665 358.046 295.235 353.345 293.468 352.08Z" fill="#333333"/>
<path d="M291.22 526.709C290.898 527.747 292.437 532.779 292.06 535.25C291.688 537.689 286.098 545.297 287.651 546.754C290.108 549.052 294.535 544.706 295.916 542.745C298.845 538.577 299.59 531.31 295.734 527.533C294.749 526.568 291.824 524.757 291.216 526.709H291.22Z" fill="#333333"/>
<path d="M293.741 490.57C291.802 491.225 293.963 497.596 293.918 499.352C293.841 502.551 290.644 506.301 291.702 509.987C295.671 512.153 299.599 505.668 300.148 502.447C300.889 498.106 299.245 490.188 293.741 490.57Z" fill="#333333"/>
<path d="M288.468 560.505C288.146 560.787 287.387 567.672 286.888 568.932C285.848 571.54 281.298 573.978 282.165 577.723C287.174 579.68 292.392 573.933 292.95 569.319C293.355 565.97 292.696 560.464 288.473 560.509L288.468 560.505Z" fill="#333333"/>
<path d="M491.266 419.371C480.421 413.241 466.225 412.145 454.2 409.651C425.718 407.044 396.436 407.339 368.598 414.515C359.611 403.663 348.962 394.721 336.551 388.009L360.374 364.161C391.531 328.159 399.474 286.19 379.583 242.184C374.602 231.163 367.445 222.144 364.357 210.172C360.469 195.106 357.436 173.187 356.518 157.574C355.687 143.491 357.445 130.609 355.029 116.344C351.428 95.107 340.887 67.0722 320.62 56.7338C317.109 54.9455 309.694 52.8615 307.082 50.7546C304.412 48.6023 301.76 42.3911 299.344 39.4197C263.6 -4.5687 181.604 -6.03847 131.482 7.58077C93.9304 17.7872 35.7072 50.3906 22.3833 89.1825C20.9346 93.4052 20.2489 97.9328 18.4551 102.065C15.7349 108.33 10.5806 113.618 7.55158 120.234C-7.1484 152.378 1.99765 191.893 14.6677 223.254C18.9955 233.957 24.3133 244.286 29.8536 254.402C17.2108 265.277 15.1309 284.407 18.3597 299.964C24.5994 330.02 55.9521 360.616 88.4083 353.504C92.8178 352.539 96.637 349.563 101.015 348.767C109.18 361.181 119.325 372.179 131.473 380.752C131.473 381.389 125.242 382.667 124.22 383.022C74.5938 400.441 41.9969 469.243 26.0072 515.975C9.49069 564.259 -11.4308 667.447 65.2434 673.681C71.0517 674.155 80.2522 674.068 86.115 673.681C86.1967 673.677 86.4737 673.299 86.8416 673.267C118.839 670.751 148.126 656.385 175.25 638.666C176.822 637.643 178.384 636.605 179.941 635.558C184.46 632.519 188.919 629.397 193.32 626.235C203.633 618.827 213.628 611.196 223.337 603.861C231.326 606.127 239.177 608.861 247.451 609.99C267.778 612.766 313.803 613.212 322.827 589.709C324.543 585.231 323.563 582.296 324.512 578.67C325.043 576.631 328.426 574.028 329.666 572.017C333.535 565.742 333.544 557.001 330.801 550.266C333.63 546.499 336.169 542.476 337.005 537.776L365.11 547.563C367.508 551.258 368.625 555.927 370.651 559.736C372.908 563.977 377.326 567.162 377.821 572.094C378.557 579.38 377.839 587.106 377.808 594.341C377.776 601.326 378.225 608.843 377.844 615.742C377.649 619.254 377.199 622.731 376.827 626.23H389.783C389.751 619.846 389.442 613.412 390.546 607.105L390.759 574.128C397.358 575.198 404.533 577.318 411.172 577.764C416.635 578.133 422.221 576.558 427.516 578.206L434.269 626.226H447.888C446.794 616.206 444.882 605.144 443.456 595.861C442.547 589.927 441.081 583.975 440.068 578.051C440.985 576.081 442.775 576.995 444.132 576.75C461.375 573.669 469.214 573.905 477.56 557.019C489.949 531.951 495.798 499.339 498.5 471.641C499.699 459.386 501.007 443.906 499.812 431.711C499.177 425.19 496.761 422.478 491.243 419.361L491.266 419.371ZM113.24 344.485C110.951 341.141 107.1 332.618 104.13 330.889C99.8704 328.409 97.409 334.088 94.8886 336.354C85.7971 344.535 71.3786 342.651 61.3153 337.414C40.2485 326.452 22.6149 295.878 32.3649 272.353C38.0596 258.615 53.8358 255.075 66.2925 261.978C76.4739 267.625 81.9189 278.291 89.1621 286.796L108.803 285.071C109.012 281.167 107.74 277.477 106.655 273.814C102.037 258.256 93.6307 244.523 94.7206 227.559C95.2928 218.69 100.833 211.751 104.343 204.02C110.415 190.66 104.502 189.004 100.869 177.341C95.3382 159.581 94.7887 138.067 112.876 127.574C125.487 120.257 139.011 123.251 152.59 124.166C195.318 127.051 237.833 128.266 275.267 104.362C282.982 99.4344 293.477 88.1268 303.177 89.6603C309.834 90.7114 323.181 110.05 326.76 116.03C333.744 127.706 339.23 140.943 342.445 154.171C328.749 143.65 312.023 142.212 295.825 147.231C289.176 149.293 271.629 156.105 270.798 163.99C270.339 168.341 276.524 177.919 280.071 180.531C286.016 184.913 291.361 179.07 296.324 176.363C311.437 168.118 329.017 162.835 345.165 171.681C349.307 187.621 348.644 204.68 353.662 220.433C358.712 236.287 370.16 249.81 374.988 266.337C394.637 333.61 320.143 403.84 256.498 405.988C207.384 407.649 141.968 386.476 113.24 344.485ZM83.8625 429.841C96.9413 413.105 115.301 397.934 136.123 392.214C146.382 389.397 146.377 391.659 154.774 395.599C198.956 416.335 261.189 428.885 306.919 406.962C312.396 404.336 317.477 400.036 322.636 397.711C326.16 396.127 328.671 398.271 331.868 399.986C336.859 402.662 343.199 407.003 347.449 410.739C348.589 411.74 354.933 418.115 355.133 418.961C355.329 419.789 351.914 421.304 351.064 422.096C349.602 423.466 348.657 425.409 348.122 427.329C347.726 428.744 346.986 432.171 346.986 433.468V440.967C338.617 440.439 330.751 443.46 322.945 445.963C323.149 439.724 324.525 435.62 320.87 430.087C316.369 423.279 308.299 419.011 300.071 420.094C289.304 421.509 278.259 439.497 269.377 446.159C255.231 456.775 235.526 460.524 221.766 472.091C208.697 483.08 201.19 499.225 192.248 513.422L149.406 532.77C148.966 529.858 149.788 526.65 150.423 523.788C152.621 513.873 156.895 504.08 157.744 493.856C157.935 491.567 158.321 487.64 155.759 486.611C155.251 486.525 154.842 486.543 154.397 486.848C151.927 488.532 148.602 495.844 147.285 498.834C143.53 507.375 140.487 516.949 138.289 525.954L120.306 516.475C96.3237 505.882 74.3532 503.457 48.2183 504.576C46.7833 504.635 45.4028 505.286 43.9269 505.045C54.8304 478.908 66.3152 452.288 83.858 429.836L83.8625 429.841ZM312.427 511.11C309.952 512.039 303.286 514.669 305.016 518.236C306.424 521.135 312.305 518.332 314.771 519.383C316.946 522.523 324.639 527.829 326.001 530.855C328.422 536.238 322.477 543.341 317.977 545.752C315.175 547.254 305.82 549.425 305.329 552.655C305.216 553.397 305.566 554.389 306.183 554.808C309.058 556.751 319.88 554.007 320.638 554.644C322.173 558.917 321.265 564.887 318.408 568.459C314.912 572.841 300.911 574.729 299.549 579.12C299.312 579.889 299.131 580.604 299.798 581.2C301.583 582.933 310.193 582.078 312.509 580.959C313.308 589.973 303.34 594.428 296.024 596.48C276.747 601.886 249.817 600.257 230.871 593.891C227.82 592.867 223.369 589.791 220.299 590.614C186.799 616.151 152.667 642.885 111.768 655.507C92.8905 661.332 66.347 664.635 48.1638 655.58C12.833 637.988 21.4387 582.123 29.186 550.958C31.8063 540.419 35.126 529.994 38.9497 519.834C70.7792 512.316 106.151 520.298 133.112 538.226L132.885 539.396C115.619 548.337 96.8777 554.689 80.7245 565.774C78.8263 567.075 72.405 571.521 72.0871 573.487C71.3196 578.247 76.2105 575.962 79.1124 575.066C90.9105 571.421 104.135 563.658 115.828 558.675C138.97 548.81 162.789 540.347 185.791 530.136C191.794 527.469 199.905 523.997 203.828 518.66C210.154 510.055 212.952 499.821 220.431 490.752C237.792 469.707 265.589 467.24 284.181 448.716C287.982 444.925 296.406 432.567 301.043 431.52C312.1 429.026 313.249 442.582 311.033 450.163C309.621 454.986 301.129 467.586 296.792 469.984C290.861 473.265 278.241 472.865 271.134 474.28C268.745 474.758 264.958 475.449 264.041 477.925C264.249 480.377 269.935 480.855 271.888 480.983C289.104 482.097 306.583 476.578 323.626 478.239C332.513 479.103 337.995 484.882 337.958 493.915C337.899 508.362 322.109 507.484 312.437 511.11H312.427ZM340.215 514.309C342.658 510.974 345.615 509.136 347.318 505.159C353.444 490.861 345.551 470.389 329.294 467.777C334.021 463.272 341.482 461.279 347.795 462.422C348.803 463.145 348.212 470.749 348.353 472.551C348.88 479.39 349.934 487.18 350.987 493.965C352.445 503.343 354.625 512.68 356.968 521.863C350.896 521.221 344.479 518.696 340.215 514.305V514.309ZM407.989 440.53C398.902 440.102 371.827 437.253 364.911 431.875C359.575 427.725 366.963 425.554 370.573 424.371C383.552 420.121 400.723 419.093 414.378 418.715C431.558 418.238 460.404 418.356 476.389 424.276C477.747 424.781 482.651 427.024 483.41 427.916C485.78 430.71 480.362 432.935 478.414 433.777C461.807 440.926 426.308 441.394 407.993 440.53H407.989ZM484.004 468.014C482.088 493.305 476.589 528.356 463.819 550.512C461.92 553.811 459.668 557.383 455.417 557.315C468.174 524.83 473.083 489.797 473.66 454.923C474.477 451.269 481.507 450.618 484.449 449.599C485.73 455.705 484.468 461.907 484.004 468.014Z" fill="#333333"/>
<rect x="355" y="626" width="121" height="25" fill="white"/>
</g>
<defs>
<clipPath id="clip0_524_15109">
<rect width="504" height="674" fill="white"/>
</clipPath>
</defs>
</svg>
