<svg width="43" height="18" viewBox="0 0 43 18" fill="none" xmlns="http://www.w3.org/2000/svg">
<rect x="1" y="1" width="41" height="16" rx="3" stroke="white" stroke-width="2"/>
<path d="M6.008 13V4.768H8.012V11.38H11.324L11.528 13H6.008ZM14.3073 13V11.548H15.9993V6.208H14.3073V4.768H19.6953V6.208H18.0033V11.548H19.6953V13H14.3073ZM21.8626 13L24.1306 4.768H26.6386L28.9306 13H26.9386L25.3426 6.412H25.2826L23.7586 13H21.8626ZM23.3986 11.368V9.952H27.3106V11.368H23.3986ZM30.6299 13V4.768H33.0419L33.7619 10.024H33.8099L34.5419 4.768H36.9539V13H35.2139V7.096H35.1659L34.3499 13H33.0179L32.2259 7.096H32.1659V13H30.6299Z" fill="white"/>
</svg>
