<svg width="24" height="24" viewBox="0 0 24 24" fill="none" xmlns="http://www.w3.org/2000/svg">
<path d="M21.738 16.1304C21.7431 16.349 21.6763 16.5633 21.548 16.7404C21.4213 16.921 21.2385 17.0546 21.028 17.1204L19.318 17.6904C18.7913 17.8653 18.3121 18.1597 17.918 18.5504C17.5243 18.9422 17.2295 19.4221 17.058 19.9504L16.458 21.6504C16.3955 21.8545 16.2693 22.0332 16.098 22.1604C15.9151 22.2846 15.6991 22.3508 15.478 22.3504C15.2561 22.3599 15.0374 22.2953 14.8564 22.1667C14.6753 22.0381 14.5422 21.853 14.478 21.6404L13.908 19.9304C13.7365 19.4021 13.4417 18.9222 13.048 18.5304C12.6506 18.1415 12.1727 17.8445 11.648 17.6604L9.93799 17.1004C9.73555 17.0294 9.55828 16.9008 9.42799 16.7304C9.2967 16.5498 9.22345 16.3336 9.21799 16.1104C9.20851 15.8886 9.27314 15.6698 9.4017 15.4888C9.53025 15.3077 9.71542 15.1746 9.92799 15.1104L11.648 14.5404C12.1814 14.368 12.6663 14.0715 13.0627 13.6751C13.459 13.2787 13.7556 12.7938 13.928 12.2604L14.498 10.5704C14.5563 10.3625 14.6803 10.179 14.8516 10.0474C15.0228 9.9158 15.2321 9.84319 15.448 9.84041C15.663 9.84041 15.874 9.89941 16.058 10.0104C16.24 10.1354 16.38 10.3134 16.458 10.5204L17.038 12.2604C17.2104 12.7938 17.5069 13.2787 17.9033 13.6751C18.2997 14.0715 18.7846 14.368 19.318 14.5404L21.018 15.1404C21.2248 15.2082 21.4039 15.3416 21.528 15.5204C21.6635 15.695 21.7373 15.9095 21.738 16.1304ZM11.739 9.77041C11.7375 9.96644 11.6783 10.1577 11.569 10.3204C11.4508 10.4814 11.2871 10.6033 11.099 10.6704L9.83899 11.0904C9.48599 11.2124 9.16599 11.4104 8.89899 11.6704C8.63799 11.9366 8.43983 12.2577 8.31899 12.6104L7.88899 13.8504C7.82803 14.0417 7.70482 14.2072 7.53899 14.3204C7.37459 14.4352 7.17948 14.4979 6.97899 14.5004C6.77401 14.497 6.57502 14.4307 6.40899 14.3104C6.25171 14.1908 6.1334 14.0272 6.06899 13.8404L5.65899 12.5904C5.53869 12.2404 5.34035 11.9224 5.07899 11.6604C4.82289 11.3917 4.50296 11.1922 4.14899 11.0804L2.89899 10.6604C2.70503 10.5994 2.53643 10.4764 2.41899 10.3104C2.33939 10.1857 2.28844 10.045 2.26981 9.89823C2.25117 9.7515 2.26532 9.60246 2.31124 9.46185C2.35715 9.32125 2.43368 9.19258 2.53532 9.08511C2.63695 8.97765 2.76116 8.89408 2.89899 8.84041L4.14899 8.43041C4.50269 8.30691 4.82396 8.10519 5.08887 7.84028C5.35378 7.57537 5.55549 7.2541 5.67899 6.90041L6.08899 5.67041C6.14793 5.48608 6.25909 5.32281 6.40899 5.20041C6.56828 5.08038 6.75982 5.01073 6.95899 5.00041C7.16079 4.99498 7.3595 5.05076 7.52899 5.16041C7.69581 5.27301 7.82476 5.43333 7.89899 5.62041L8.31899 6.90041C8.44249 7.2541 8.64421 7.57537 8.90912 7.84028C9.17403 8.10519 9.4953 8.30691 9.84899 8.43041L11.099 8.86041C11.2859 8.92462 11.4472 9.04735 11.559 9.21041C11.6774 9.37301 11.7404 9.56929 11.739 9.77041ZM17.528 4.41041C17.5189 4.59274 17.4601 4.76911 17.358 4.92041C17.2539 5.06301 17.1066 5.16822 16.938 5.22041L16.318 5.43041C16.1976 5.47197 16.0882 5.54039 15.9981 5.63048C15.908 5.72057 15.8396 5.82997 15.798 5.95041L15.578 6.58041C15.5176 6.73381 15.4175 6.86841 15.288 6.97041C15.1406 7.08851 14.9569 7.15209 14.768 7.15041C14.5951 7.13968 14.4272 7.08828 14.278 7.00041C14.1285 6.89026 14.0167 6.73657 13.958 6.56041L13.748 5.94041C13.7119 5.81744 13.6427 5.70675 13.548 5.62041C13.4598 5.5279 13.3498 5.45911 13.228 5.42041L12.608 5.22041C12.443 5.15608 12.2981 5.0491 12.188 4.91041C12.0842 4.76053 12.0285 4.58269 12.028 4.40041C12.0338 4.21748 12.0929 4.04023 12.198 3.89041C12.3057 3.75155 12.4517 3.64726 12.618 3.59041L13.228 3.39041C13.3512 3.34838 13.4637 3.28015 13.558 3.19041C13.6477 3.09616 13.716 2.98357 13.758 2.86041L13.968 2.24041C14.028 2.08541 14.123 1.94841 14.248 1.84041C14.3915 1.73452 14.5606 1.66892 14.738 1.65041C14.9267 1.64933 15.1114 1.70508 15.268 1.81041C15.409 1.91646 15.5194 2.05791 15.588 2.22041L15.798 2.86041C15.84 2.98357 15.9083 3.09616 15.998 3.19041C16.091 3.27678 16.1996 3.34465 16.318 3.39041L16.948 3.60041C17.1082 3.66344 17.2494 3.76678 17.358 3.90041C17.4671 4.0482 17.5266 4.22672 17.528 4.41041Z" fill="#377EDE"/>
</svg>
